<svg version="1.1" viewBox="0.0 0.0 600.0 371.0" fill="none" stroke="none" stroke-linecap="square" stroke-miterlimit="10" width="600" height="371" xmlns:xlink="http://www.w3.org/1999/xlink" xmlns="http://www.w3.org/2000/svg"><path fill="#ffffff" d="M0 0L600.0 0L600.0 371.0L0 371.0L0 0Z" fill-rule="nonzero"/><path stroke="#333333" stroke-width="1.0" stroke-linecap="butt" d="M48.5 331.5L581.5 331.5" fill-rule="nonzero"/><path stroke="#cccccc" stroke-width="1.0" stroke-linecap="butt" d="M48.5 255.5L581.5 255.5" fill-rule="nonzero"/><path stroke="#cccccc" stroke-width="1.0" stroke-linecap="butt" d="M48.5 178.5L581.5 178.5" fill-rule="nonzero"/><path stroke="#cccccc" stroke-width="1.0" stroke-linecap="butt" d="M48.5 102.5L581.5 102.5" fill-rule="nonzero"/><path stroke="#cccccc" stroke-width="1.0" stroke-linecap="butt" d="M48.5 26.5L581.5 26.5" fill-rule="nonzero"/><clipPath id="id_0"><path d="M48.55 26.05L581.45 26.05L581.45 331.45L48.55 331.45L48.55 26.05Z" clip-rule="nonzero"/></clipPath><path stroke="#000000" stroke-width="0.0" stroke-linecap="butt" stroke-opacity="0.0" clip-path="url(#id_0)" d="M171.0 331.0L91.0 331.0L91.0 314.0C91.0 312.89542 91.89543 312.0 93.0 312.0L169.0 312.0C170.10457 312.0 171.0 312.89542 171.0 314.0Z" fill-rule="nonzero"/><path fill="#db4437" clip-path="url(#id_0)" d="M171.0 331.0L91.0 331.0L91.0 314.0C91.0 312.89542 91.89543 312.0 93.0 312.0L169.0 312.0C170.10457 312.0 171.0 312.89542 171.0 314.0Z" fill-rule="nonzero"/><path stroke="#000000" stroke-width="0.0" stroke-linecap="butt" stroke-opacity="0.0" clip-path="url(#id_0)" d="M294.0 331.0L214.0 331.0L214.0 257.0C214.0 255.89543 214.89543 255.0 216.0 255.0L292.0 255.0C293.10458 255.0 294.0 255.89543 294.0 257.0Z" fill-rule="nonzero"/><path fill="#db4437" clip-path="url(#id_0)" d="M294.0 331.0L214.0 331.0L214.0 257.0C214.0 255.89543 214.89543 255.0 216.0 255.0L292.0 255.0C293.10458 255.0 294.0 255.89543 294.0 257.0Z" fill-rule="nonzero"/><path stroke="#000000" stroke-width="0.0" stroke-linecap="butt" stroke-opacity="0.0" clip-path="url(#id_0)" d="M416.0 331.0L336.0 331.0L336.0 190.0C336.0 188.89543 336.89542 188.0 338.0 188.0L414.0 188.0C415.10458 188.0 416.0 188.89543 416.0 190.0Z" fill-rule="nonzero"/><path fill="#db4437" clip-path="url(#id_0)" d="M416.0 331.0L336.0 331.0L336.0 190.0C336.0 188.89543 336.89542 188.0 338.0 188.0L414.0 188.0C415.10458 188.0 416.0 188.89543 416.0 190.0Z" fill-rule="nonzero"/><path stroke="#000000" stroke-width="0.0" stroke-linecap="butt" stroke-opacity="0.0" clip-path="url(#id_0)" d="M539.0 331.0L459.0 331.0L459.0 53.0C459.0 51.89543 459.89542 51.0 461.0 51.0L537.0 51.0C538.10455 51.0 539.0 51.89543 539.0 53.0Z" fill-rule="nonzero"/><path fill="#db4437" clip-path="url(#id_0)" d="M539.0 331.0L459.0 331.0L459.0 53.0C459.0 51.89543 459.89542 51.0 461.0 51.0L537.0 51.0C538.10455 51.0 539.0 51.89543 539.0 53.0Z" fill-rule="nonzero"/><path stroke="#db4437" stroke-width="3.0" stroke-linejoin="round" stroke-linecap="round" d="M125.0625 322.38388Q125.0625 324.29013 124.40625 325.22763Q123.765625 326.1495 122.375 326.1495Q121.015625 326.1495 120.359375 325.24326Q119.703125 324.337 119.671875 322.5245L119.671875 321.087Q119.671875 319.19638 120.3125 318.29013Q120.96875 317.36826 122.359375 317.36826Q123.734375 317.36826 124.390625 318.25888Q125.046875 319.13388 125.0625 320.97763L125.0625 322.38388ZM123.96875 320.8995Q123.96875 319.5245 123.578125 318.8995Q123.203125 318.25888 122.359375 318.25888Q121.53125 318.25888 121.140625 318.8995Q120.765625 319.5245 120.765625 320.82138L120.765625 322.55576Q120.765625 323.93076 121.15625 324.60263Q121.5625 325.25888 122.375 325.25888Q123.171875 325.25888 123.5625 324.63388Q123.953125 324.00888 123.96875 322.68076L123.96875 320.8995ZM126.84375 325.462Q126.84375 325.18076 127.0 324.99326Q127.171875 324.80576 127.5 324.80576Q127.84375 324.80576 128.01562 324.99326Q128.1875 325.18076 128.1875 325.462Q128.1875 325.72763 128.01562 325.91513Q127.84375 326.087 127.5 326.087Q127.171875 326.087 127.0 325.91513Q126.84375 325.72763 126.84375 325.462ZM130.20312 321.74326L130.64062 317.49326L135.01562 317.49326L135.01562 318.49326L131.5625 318.49326L131.29688 320.82138Q131.9375 320.44638 132.73438 320.44638Q133.89062 320.44638 134.57812 321.22763Q135.26562 321.99326 135.26562 323.30576Q135.26562 324.61826 134.54688 325.38388Q133.84375 326.1495 132.5625 326.1495Q131.4375 326.1495 130.71875 325.5245Q130.0 324.88388 129.90625 323.7745L130.92188 323.7745Q131.03125 324.50888 131.45312 324.88388Q131.875 325.25888 132.5625 325.25888Q133.3125 325.25888 133.75 324.74326Q134.1875 324.22763 134.1875 323.32138Q134.1875 322.462 133.71875 321.94638Q133.25 321.43076 132.46875 321.43076Q131.76562 321.43076 131.35938 321.72763L131.07812 321.962L130.20312 321.74326ZM142.29688 326.0245L136.70312 326.0245L136.70312 325.24326L139.65625 321.962Q140.3125 321.212 140.5625 320.75888Q140.8125 320.29013 140.8125 319.79013Q140.8125 319.11826 140.40625 318.69638Q140.01562 318.25888 139.32812 318.25888Q138.53125 318.25888 138.07812 318.72763Q137.625 319.18076 137.625 320.00888L136.54688 320.00888Q136.54688 318.82138 137.29688 318.10263Q138.0625 317.36826 139.32812 317.36826Q140.53125 317.36826 141.21875 317.99326Q141.90625 318.61826 141.90625 319.66513Q141.90625 320.91513 140.29688 322.66513L138.01562 325.13388L142.29688 325.13388L142.29688 326.0245Z" fill-rule="nonzero"/><path fill="#ffffff" d="M125.0625 322.38388Q125.0625 324.29013 124.40625 325.22763Q123.765625 326.1495 122.375 326.1495Q121.015625 326.1495 120.359375 325.24326Q119.703125 324.337 119.671875 322.5245L119.671875 321.087Q119.671875 319.19638 120.3125 318.29013Q120.96875 317.36826 122.359375 317.36826Q123.734375 317.36826 124.390625 318.25888Q125.046875 319.13388 125.0625 320.97763L125.0625 322.38388ZM123.96875 320.8995Q123.96875 319.5245 123.578125 318.8995Q123.203125 318.25888 122.359375 318.25888Q121.53125 318.25888 121.140625 318.8995Q120.765625 319.5245 120.765625 320.82138L120.765625 322.55576Q120.765625 323.93076 121.15625 324.60263Q121.5625 325.25888 122.375 325.25888Q123.171875 325.25888 123.5625 324.63388Q123.953125 324.00888 123.96875 322.68076L123.96875 320.8995ZM126.84375 325.462Q126.84375 325.18076 127.0 324.99326Q127.171875 324.80576 127.5 324.80576Q127.84375 324.80576 128.01562 324.99326Q128.1875 325.18076 128.1875 325.462Q128.1875 325.72763 128.01562 325.91513Q127.84375 326.087 127.5 326.087Q127.171875 326.087 127.0 325.91513Q126.84375 325.72763 126.84375 325.462ZM130.20312 321.74326L130.64062 317.49326L135.01562 317.49326L135.01562 318.49326L131.5625 318.49326L131.29688 320.82138Q131.9375 320.44638 132.73438 320.44638Q133.89062 320.44638 134.57812 321.22763Q135.26562 321.99326 135.26562 323.30576Q135.26562 324.61826 134.54688 325.38388Q133.84375 326.1495 132.5625 326.1495Q131.4375 326.1495 130.71875 325.5245Q130.0 324.88388 129.90625 323.7745L130.92188 323.7745Q131.03125 324.50888 131.45312 324.88388Q131.875 325.25888 132.5625 325.25888Q133.3125 325.25888 133.75 324.74326Q134.1875 324.22763 134.1875 323.32138Q134.1875 322.462 133.71875 321.94638Q133.25 321.43076 132.46875 321.43076Q131.76562 321.43076 131.35938 321.72763L131.07812 321.962L130.20312 321.74326ZM142.29688 326.0245L136.70312 326.0245L136.70312 325.24326L139.65625 321.962Q140.3125 321.212 140.5625 320.75888Q140.8125 320.29013 140.8125 319.79013Q140.8125 319.11826 140.40625 318.69638Q140.01562 318.25888 139.32812 318.25888Q138.53125 318.25888 138.07812 318.72763Q137.625 319.18076 137.625 320.00888L136.54688 320.00888Q136.54688 318.82138 137.29688 318.10263Q138.0625 317.36826 139.32812 317.36826Q140.53125 317.36826 141.21875 317.99326Q141.90625 318.61826 141.90625 319.66513Q141.90625 320.91513 140.29688 322.66513L138.01562 325.13388L142.29688 325.13388L142.29688 326.0245Z" fill-rule="nonzero"/><path stroke="#db4437" stroke-width="3.0" stroke-linejoin="round" stroke-linecap="round" d="M256.79688 271.9L251.20312 271.9L251.20312 271.11874L254.15625 267.8375Q254.8125 267.0875 255.0625 266.63437Q255.3125 266.16562 255.3125 265.66562Q255.3125 264.99374 254.90625 264.57187Q254.51562 264.13437 253.82812 264.13437Q253.03125 264.13437 252.57812 264.60312Q252.125 265.05624 252.125 265.88437L251.04688 265.88437Q251.04688 264.69687 251.79688 263.97812Q252.5625 263.24374 253.82812 263.24374Q255.03125 263.24374 255.71875 263.86874Q256.40625 264.49374 256.40625 265.54062Q256.40625 266.79062 254.79688 268.54062L252.51562 271.00937L256.79688 271.00937L256.79688 271.9Z" fill-rule="nonzero"/><path fill="#ffffff" d="M256.79688 271.9L251.20312 271.9L251.20312 271.11874L254.15625 267.8375Q254.8125 267.0875 255.0625 266.63437Q255.3125 266.16562 255.3125 265.66562Q255.3125 264.99374 254.90625 264.57187Q254.51562 264.13437 253.82812 264.13437Q253.03125 264.13437 252.57812 264.60312Q252.125 265.05624 252.125 265.88437L251.04688 265.88437Q251.04688 264.69687 251.79688 263.97812Q252.5625 263.24374 253.82812 263.24374Q255.03125 263.24374 255.71875 263.86874Q256.40625 264.49374 256.40625 265.54062Q256.40625 266.79062 254.79688 268.54062L252.51562 271.00937L256.79688 271.00937L256.79688 271.9Z" fill-rule="nonzero"/><path stroke="#db4437" stroke-width="3.0" stroke-linejoin="round" stroke-linecap="round" d="M366.28125 200.29688L367.09375 200.29688Q367.875 200.28125 368.3125 199.89062Q368.75 199.5 368.75 198.82812Q368.75 197.32812 367.25 197.32812Q366.54688 197.32812 366.125 197.73438Q365.71875 198.14062 365.71875 198.79688L364.625 198.79688Q364.625 197.78125 365.35938 197.10938Q366.10938 196.4375 367.25 196.4375Q368.45312 196.4375 369.14062 197.07812Q369.82812 197.71875 369.82812 198.85938Q369.82812 199.42188 369.46875 199.9375Q369.10938 200.45312 368.48438 200.71875Q369.1875 200.9375 369.5625 201.45312Q369.95312 201.96875 369.95312 202.71875Q369.95312 203.85938 369.20312 204.54688Q368.45312 205.21875 367.25 205.21875Q366.0625 205.21875 365.29688 204.5625Q364.54688 203.90625 364.54688 202.84375L365.64062 202.84375Q365.64062 203.51562 366.07812 203.92188Q366.51562 204.32812 367.26562 204.32812Q368.04688 204.32812 368.45312 203.92188Q368.875 203.5 368.875 202.73438Q368.875 202.0 368.42188 201.60938Q367.96875 201.20312 367.09375 201.1875L366.28125 201.1875L366.28125 200.29688ZM371.84375 204.53125Q371.84375 204.25 372.0 204.0625Q372.17188 203.875 372.5 203.875Q372.84375 203.875 373.01562 204.0625Q373.1875 204.25 373.1875 204.53125Q373.1875 204.79688 373.01562 204.98438Q372.84375 205.15625 372.5 205.15625Q372.17188 205.15625 372.0 204.98438Q371.84375 204.79688 371.84375 204.53125ZM380.21875 197.17188L376.6875 205.09375L375.54688 205.09375L379.0625 197.45312L374.45312 197.45312L374.45312 196.5625L380.21875 196.5625L380.21875 197.17188ZM382.20312 200.8125L382.64062 196.5625L387.01562 196.5625L387.01562 197.5625L383.5625 197.5625L383.29688 199.89062Q383.9375 199.51562 384.73438 199.51562Q385.89062 199.51562 386.57812 200.29688Q387.26562 201.0625 387.26562 202.375Q387.26562 203.6875 386.54688 204.45312Q385.84375 205.21875 384.5625 205.21875Q383.4375 205.21875 382.71875 204.59375Q382.0 203.95312 381.90625 202.84375L382.92188 202.84375Q383.03125 203.57812 383.45312 203.95312Q383.875 204.32812 384.5625 204.32812Q385.3125 204.32812 385.75 203.8125Q386.1875 203.29688 386.1875 202.39062Q386.1875 201.53125 385.71875 201.01562Q385.25 200.5 384.46875 200.5Q383.76562 200.5 383.35938 200.79688L383.07812 201.03125L382.20312 200.8125Z" fill-rule="nonzero"/><path fill="#ffffff" d="M366.28125 200.29688L367.09375 200.29688Q367.875 200.28125 368.3125 199.89062Q368.75 199.5 368.75 198.82812Q368.75 197.32812 367.25 197.32812Q366.54688 197.32812 366.125 197.73438Q365.71875 198.14062 365.71875 198.79688L364.625 198.79688Q364.625 197.78125 365.35938 197.10938Q366.10938 196.4375 367.25 196.4375Q368.45312 196.4375 369.14062 197.07812Q369.82812 197.71875 369.82812 198.85938Q369.82812 199.42188 369.46875 199.9375Q369.10938 200.45312 368.48438 200.71875Q369.1875 200.9375 369.5625 201.45312Q369.95312 201.96875 369.95312 202.71875Q369.95312 203.85938 369.20312 204.54688Q368.45312 205.21875 367.25 205.21875Q366.0625 205.21875 365.29688 204.5625Q364.54688 203.90625 364.54688 202.84375L365.64062 202.84375Q365.64062 203.51562 366.07812 203.92188Q366.51562 204.32812 367.26562 204.32812Q368.04688 204.32812 368.45312 203.92188Q368.875 203.5 368.875 202.73438Q368.875 202.0 368.42188 201.60938Q367.96875 201.20312 367.09375 201.1875L366.28125 201.1875L366.28125 200.29688ZM371.84375 204.53125Q371.84375 204.25 372.0 204.0625Q372.17188 203.875 372.5 203.875Q372.84375 203.875 373.01562 204.0625Q373.1875 204.25 373.1875 204.53125Q373.1875 204.79688 373.01562 204.98438Q372.84375 205.15625 372.5 205.15625Q372.17188 205.15625 372.0 204.98438Q371.84375 204.79688 371.84375 204.53125ZM380.21875 197.17188L376.6875 205.09375L375.54688 205.09375L379.0625 197.45312L374.45312 197.45312L374.45312 196.5625L380.21875 196.5625L380.21875 197.17188ZM382.20312 200.8125L382.64062 196.5625L387.01562 196.5625L387.01562 197.5625L383.5625 197.5625L383.29688 199.89062Q383.9375 199.51562 384.73438 199.51562Q385.89062 199.51562 386.57812 200.29688Q387.26562 201.0625 387.26562 202.375Q387.26562 203.6875 386.54688 204.45312Q385.84375 205.21875 384.5625 205.21875Q383.4375 205.21875 382.71875 204.59375Q382.0 203.95312 381.90625 202.84375L382.92188 202.84375Q383.03125 203.57812 383.45312 203.95312Q383.875 204.32812 384.5625 204.32812Q385.3125 204.32812 385.75 203.8125Q386.1875 203.29688 386.1875 202.39062Q386.1875 201.53125 385.71875 201.01562Q385.25 200.5 384.46875 200.5Q383.76562 200.5 383.35938 200.79688L383.07812 201.03125L382.20312 200.8125Z" fill-rule="nonzero"/><path stroke="#db4437" stroke-width="3.0" stroke-linejoin="round" stroke-linecap="round" d="M493.21875 60.123627L489.6875 68.0455L488.54688 68.0455L492.0625 60.404877L487.45312 60.404877L487.45312 59.51425L493.21875 59.51425L493.21875 60.123627ZM494.84375 67.483Q494.84375 67.20175 495.0 67.01425Q495.17188 66.82675 495.5 66.82675Q495.84375 66.82675 496.01562 67.01425Q496.1875 67.20175 496.1875 67.483Q496.1875 67.74863 496.01562 67.93613Q495.84375 68.108 495.5 68.108Q495.17188 68.108 495.0 67.93613Q494.84375 67.74863 494.84375 67.483ZM499.28125 63.248627L500.09375 63.248627Q500.875 63.233 501.3125 62.842377Q501.75 62.45175 501.75 61.779877Q501.75 60.279877 500.25 60.279877Q499.54688 60.279877 499.125 60.686127Q498.71875 61.092377 498.71875 61.748627L497.625 61.748627Q497.625 60.733 498.35938 60.061127Q499.10938 59.38925 500.25 59.38925Q501.45312 59.38925 502.14062 60.029877Q502.82812 60.6705 502.82812 61.811127Q502.82812 62.373627 502.46875 62.88925Q502.10938 63.404877 501.48438 63.6705Q502.1875 63.88925 502.5625 64.40488Q502.95312 64.9205 502.95312 65.6705Q502.95312 66.81113 502.20312 67.49863Q501.45312 68.1705 500.25 68.1705Q499.0625 68.1705 498.29688 67.51425Q497.54688 66.858 497.54688 65.7955L498.64062 65.7955Q498.64062 66.46738 499.07812 66.87363Q499.51562 67.27988 500.26562 67.27988Q501.04688 67.27988 501.45312 66.87363Q501.875 66.45175 501.875 65.68613Q501.875 64.95175 501.42188 64.56113Q500.96875 64.15488 500.09375 64.13925L499.28125 64.13925L499.28125 63.248627ZM509.28125 65.18613L510.46875 65.18613L510.46875 66.06113L509.28125 66.06113L509.28125 68.0455L508.20312 68.0455L508.20312 66.06113L504.3125 66.06113L504.3125 65.4205L508.125 59.51425L509.28125 59.51425L509.28125 65.18613ZM505.54688 65.18613L508.20312 65.18613L508.20312 60.998627L508.0625 61.233L505.54688 65.18613Z" fill-rule="nonzero"/><path fill="#ffffff" d="M493.21875 60.123627L489.6875 68.0455L488.54688 68.0455L492.0625 60.404877L487.45312 60.404877L487.45312 59.51425L493.21875 59.51425L493.21875 60.123627ZM494.84375 67.483Q494.84375 67.20175 495.0 67.01425Q495.17188 66.82675 495.5 66.82675Q495.84375 66.82675 496.01562 67.01425Q496.1875 67.20175 496.1875 67.483Q496.1875 67.74863 496.01562 67.93613Q495.84375 68.108 495.5 68.108Q495.17188 68.108 495.0 67.93613Q494.84375 67.74863 494.84375 67.483ZM499.28125 63.248627L500.09375 63.248627Q500.875 63.233 501.3125 62.842377Q501.75 62.45175 501.75 61.779877Q501.75 60.279877 500.25 60.279877Q499.54688 60.279877 499.125 60.686127Q498.71875 61.092377 498.71875 61.748627L497.625 61.748627Q497.625 60.733 498.35938 60.061127Q499.10938 59.38925 500.25 59.38925Q501.45312 59.38925 502.14062 60.029877Q502.82812 60.6705 502.82812 61.811127Q502.82812 62.373627 502.46875 62.88925Q502.10938 63.404877 501.48438 63.6705Q502.1875 63.88925 502.5625 64.40488Q502.95312 64.9205 502.95312 65.6705Q502.95312 66.81113 502.20312 67.49863Q501.45312 68.1705 500.25 68.1705Q499.0625 68.1705 498.29688 67.51425Q497.54688 66.858 497.54688 65.7955L498.64062 65.7955Q498.64062 66.46738 499.07812 66.87363Q499.51562 67.27988 500.26562 67.27988Q501.04688 67.27988 501.45312 66.87363Q501.875 66.45175 501.875 65.68613Q501.875 64.95175 501.42188 64.56113Q500.96875 64.15488 500.09375 64.13925L499.28125 64.13925L499.28125 63.248627ZM509.28125 65.18613L510.46875 65.18613L510.46875 66.06113L509.28125 66.06113L509.28125 68.0455L508.20312 68.0455L508.20312 66.06113L504.3125 66.06113L504.3125 65.4205L508.125 59.51425L509.28125 59.51425L509.28125 65.18613ZM505.54688 65.18613L508.20312 65.18613L508.20312 60.998627L508.0625 61.233L505.54688 65.18613Z" fill-rule="nonzero"/><path fill="#757575" d="M24.6125 332.3094Q24.6125 334.21564 23.95625 335.15314Q23.315624 336.075 21.925 336.075Q20.565624 336.075 19.909374 335.16876Q19.253124 334.2625 19.221874 332.45L19.221874 331.0125Q19.221874 329.1219 19.8625 328.21564Q20.51875 327.29376 21.909374 327.29376Q23.284374 327.29376 23.940624 328.1844Q24.596874 329.0594 24.6125 330.90314L24.6125 332.3094ZM23.51875 330.825Q23.51875 329.45 23.128124 328.825Q22.753124 328.1844 21.909374 328.1844Q21.08125 328.1844 20.690624 328.825Q20.315624 329.45 20.315624 330.7469L20.315624 332.48126Q20.315624 333.85626 20.70625 334.52814Q21.1125 335.1844 21.925 335.1844Q22.721874 335.1844 23.1125 334.5594Q23.503124 333.9344 23.51875 332.60626L23.51875 330.825ZM27.39375 329.60626L27.425 330.3094Q28.1125 329.4969 29.3 329.4969Q30.628124 329.4969 31.1125 330.5125Q31.425 330.0594 31.925 329.77814Q32.440624 329.4969 33.128124 329.4969Q35.221874 329.4969 35.253124 331.7L35.253124 335.95L34.175 335.95L34.175 331.7625Q34.175 331.09064 33.8625 330.7625Q33.55 330.41876 32.815624 330.41876Q32.20625 330.41876 31.8 330.77814Q31.409374 331.1375 31.346874 331.7469L31.346874 335.95L30.26875 335.95L30.26875 331.79376Q30.26875 330.41876 28.909374 330.41876Q27.846874 330.41876 27.45625 331.325L27.45625 335.95L26.3625 335.95L26.3625 329.60626L27.39375 329.60626ZM41.065624 334.2625Q41.065624 333.825 40.721874 333.59064Q40.39375 333.34064 39.565624 333.16876Q38.753124 332.9969 38.26875 332.7469Q37.784374 332.4969 37.55 332.16876Q37.33125 331.825 37.33125 331.35626Q37.33125 330.575 37.9875 330.04376Q38.64375 329.4969 39.675 329.4969Q40.753124 329.4969 41.409374 330.0594Q42.08125 330.60626 42.08125 331.46564L41.003124 331.46564Q41.003124 331.02814 40.6125 330.71564Q40.2375 330.3875 39.675 330.3875Q39.08125 330.3875 38.7375 330.65314Q38.409374 330.90314 38.409374 331.3094Q38.409374 331.7 38.721874 331.90314Q39.034374 332.10626 39.846874 332.29376Q40.659374 332.46564 41.159374 332.71564Q41.659374 332.96564 41.89375 333.325Q42.14375 333.6844 42.14375 334.1844Q42.14375 335.04376 41.45625 335.5594Q40.784374 336.075 39.70625 336.075Q38.940624 336.075 38.346874 335.8094Q37.76875 335.52814 37.440624 335.04376Q37.1125 334.5594 37.1125 333.9969L38.190624 333.9969Q38.221874 334.54376 38.628124 334.8719Q39.034374 335.1844 39.70625 335.1844Q40.315624 335.1844 40.690624 334.9344Q41.065624 334.6844 41.065624 334.2625Z" fill-rule="nonzero"/><path fill="#757575" d="M24.846874 259.6L19.253124 259.6L19.253124 258.81876L22.20625 255.5375Q22.8625 254.7875 23.1125 254.33438Q23.3625 253.86563 23.3625 253.36563Q23.3625 252.69376 22.95625 252.27188Q22.565624 251.83438 21.878124 251.83438Q21.08125 251.83438 20.628124 252.30313Q20.175 252.75626 20.175 253.58438L19.096874 253.58438Q19.096874 252.39688 19.846874 251.67813Q20.6125 250.94376 21.878124 250.94376Q23.08125 250.94376 23.76875 251.56876Q24.45625 252.19376 24.45625 253.24063Q24.45625 254.49063 22.846874 256.24063L20.565624 258.70938L24.846874 258.70938L24.846874 259.6ZM27.39375 253.25626L27.425 253.95938Q28.1125 253.14688 29.3 253.14688Q30.628124 253.14688 31.1125 254.1625Q31.425 253.70938 31.925 253.42813Q32.440624 253.14688 33.128124 253.14688Q35.221874 253.14688 35.253124 255.35L35.253124 259.6L34.175 259.6L34.175 255.4125Q34.175 254.74063 33.8625 254.4125Q33.55 254.06876 32.815624 254.06876Q32.20625 254.06876 31.8 254.42813Q31.409374 254.7875 31.346874 255.39688L31.346874 259.6L30.26875 259.6L30.26875 255.44376Q30.26875 254.06876 28.909374 254.06876Q27.846874 254.06876 27.45625 254.975L27.45625 259.6L26.3625 259.6L26.3625 253.25626L27.39375 253.25626ZM41.065624 257.9125Q41.065624 257.475 40.721874 257.24063Q40.39375 256.99063 39.565624 256.81876Q38.753124 256.64688 38.26875 256.39688Q37.784374 256.14688 37.55 255.81876Q37.33125 255.475 37.33125 255.00626Q37.33125 254.225 37.9875 253.69376Q38.64375 253.14688 39.675 253.14688Q40.753124 253.14688 41.409374 253.70938Q42.08125 254.25626 42.08125 255.11563L41.003124 255.11563Q41.003124 254.67813 40.6125 254.36563Q40.2375 254.0375 39.675 254.0375Q39.08125 254.0375 38.7375 254.30313Q38.409374 254.55313 38.409374 254.95938Q38.409374 255.35 38.721874 255.55313Q39.034374 255.75626 39.846874 255.94376Q40.659374 256.11563 41.159374 256.36563Q41.659374 256.61563 41.89375 256.975Q42.14375 257.33438 42.14375 257.83438Q42.14375 258.69376 41.45625 259.20938Q40.784374 259.725 39.70625 259.725Q38.940624 259.725 38.346874 259.45938Q37.76875 259.17813 37.440624 258.69376Q37.1125 258.20938 37.1125 257.64688L38.190624 257.64688Q38.221874 258.19376 38.628124 258.52188Q39.034374 258.83438 39.70625 258.83438Q40.315624 258.83438 40.690624 258.58438Q41.065624 258.33438 41.065624 257.9125Z" fill-rule="nonzero"/><path fill="#757575" d="M23.83125 180.39062L25.01875 180.39062L25.01875 181.26562L23.83125 181.26562L23.83125 183.25L22.753124 183.25L22.753124 181.26562L18.8625 181.26562L18.8625 180.625L22.675 174.71875L23.83125 174.71875L23.83125 180.39062ZM20.096874 180.39062L22.753124 180.39062L22.753124 176.20312L22.6125 176.4375L20.096874 180.39062ZM27.39375 176.90625L27.425 177.60938Q28.1125 176.79688 29.3 176.79688Q30.628124 176.79688 31.1125 177.8125Q31.425 177.35938 31.925 177.07812Q32.440624 176.79688 33.128124 176.79688Q35.221874 176.79688 35.253124 179.0L35.253124 183.25L34.175 183.25L34.175 179.0625Q34.175 178.39062 33.8625 178.0625Q33.55 177.71875 32.815624 177.71875Q32.20625 177.71875 31.8 178.07812Q31.409374 178.4375 31.346874 179.04688L31.346874 183.25L30.26875 183.25L30.26875 179.09375Q30.26875 177.71875 28.909374 177.71875Q27.846874 177.71875 27.45625 178.625L27.45625 183.25L26.3625 183.25L26.3625 176.90625L27.39375 176.90625ZM41.065624 181.5625Q41.065624 181.125 40.721874 180.89062Q40.39375 180.64062 39.565624 180.46875Q38.753124 180.29688 38.26875 180.04688Q37.784374 179.79688 37.55 179.46875Q37.33125 179.125 37.33125 178.65625Q37.33125 177.875 37.9875 177.34375Q38.64375 176.79688 39.675 176.79688Q40.753124 176.79688 41.409374 177.35938Q42.08125 177.90625 42.08125 178.76562L41.003124 178.76562Q41.003124 178.32812 40.6125 178.01562Q40.2375 177.6875 39.675 177.6875Q39.08125 177.6875 38.7375 177.95312Q38.409374 178.20312 38.409374 178.60938Q38.409374 179.0 38.721874 179.20312Q39.034374 179.40625 39.846874 179.59375Q40.659374 179.76562 41.159374 180.01562Q41.659374 180.26562 41.89375 180.625Q42.14375 180.98438 42.14375 181.48438Q42.14375 182.34375 41.45625 182.85938Q40.784374 183.375 39.70625 183.375Q38.940624 183.375 38.346874 183.10938Q37.76875 182.82812 37.440624 182.34375Q37.1125 181.85938 37.1125 181.29688L38.190624 181.29688Q38.221874 181.84375 38.628124 182.17188Q39.034374 182.48438 39.70625 182.48438Q40.315624 182.48438 40.690624 182.23438Q41.065624 181.98438 41.065624 181.5625Z" fill-rule="nonzero"/><path fill="#757575" d="M23.51875 98.36875L23.51875 99.275L23.315624 99.275Q22.05 99.30625 21.3 100.04063Q20.55 100.75938 20.425 102.07188Q21.1125 101.30625 22.26875 101.30625Q23.378124 101.30625 24.05 102.0875Q24.721874 102.86875 24.721874 104.11875Q24.721874 105.43125 24.003124 106.22813Q23.284374 107.025 22.065624 107.025Q20.846874 107.025 20.08125 106.0875Q19.33125 105.13438 19.33125 103.65L19.33125 103.24375Q19.33125 100.88438 20.33125 99.63438Q21.33125 98.38438 23.315624 98.36875L23.51875 98.36875ZM22.096874 102.2125Q21.534374 102.2125 21.065624 102.54063Q20.596874 102.86875 20.409374 103.38438L20.409374 103.775Q20.409374 104.8375 20.878124 105.47813Q21.3625 106.11875 22.065624 106.11875Q22.8 106.11875 23.221874 105.5875Q23.64375 105.04063 23.64375 104.16563Q23.64375 103.29063 23.221874 102.75938Q22.8 102.2125 22.096874 102.2125ZM27.39375 100.55625L27.425 101.25938Q28.1125 100.44688 29.3 100.44688Q30.628124 100.44688 31.1125 101.4625Q31.425 101.00938 31.925 100.72813Q32.440624 100.44688 33.128124 100.44688Q35.221874 100.44688 35.253124 102.65L35.253124 106.9L34.175 106.9L34.175 102.7125Q34.175 102.04063 33.8625 101.7125Q33.55 101.36875 32.815624 101.36875Q32.20625 101.36875 31.8 101.72813Q31.409374 102.0875 31.346874 102.69688L31.346874 106.9L30.26875 106.9L30.26875 102.74375Q30.26875 101.36875 28.909374 101.36875Q27.846874 101.36875 27.45625 102.275L27.45625 106.9L26.3625 106.9L26.3625 100.55625L27.39375 100.55625ZM41.065624 105.2125Q41.065624 104.775 40.721874 104.54063Q40.39375 104.29063 39.565624 104.11875Q38.753124 103.94688 38.26875 103.69688Q37.784374 103.44688 37.55 103.11875Q37.33125 102.775 37.33125 102.30625Q37.33125 101.525 37.9875 100.99375Q38.64375 100.44688 39.675 100.44688Q40.753124 100.44688 41.409374 101.00938Q42.08125 101.55625 42.08125 102.41563L41.003124 102.41563Q41.003124 101.97813 40.6125 101.66563Q40.2375 101.3375 39.675 101.3375Q39.08125 101.3375 38.7375 101.60313Q38.409374 101.85313 38.409374 102.25938Q38.409374 102.65 38.721874 102.85313Q39.034374 103.05625 39.846874 103.24375Q40.659374 103.41563 41.159374 103.66563Q41.659374 103.91563 41.89375 104.275Q42.14375 104.63438 42.14375 105.13438Q42.14375 105.99375 41.45625 106.50938Q40.784374 107.025 39.70625 107.025Q38.940624 107.025 38.346874 106.75938Q37.76875 106.47813 37.440624 105.99375Q37.1125 105.50938 37.1125 104.94688L38.190624 104.94688Q38.221874 105.49375 38.628124 105.82188Q39.034374 106.13438 39.70625 106.13438Q40.315624 106.13438 40.690624 105.88438Q41.065624 105.63438 41.065624 105.2125Z" fill-rule="nonzero"/><path fill="#757575" d="M24.440624 24.2375Q24.440624 24.878124 24.096874 25.378124Q23.753124 25.878124 23.190624 26.159374Q23.846874 26.440624 24.2375 27.003124Q24.628124 27.55 24.628124 28.253124Q24.628124 29.346874 23.878124 30.01875Q23.14375 30.675 21.925 30.675Q20.690624 30.675 19.940624 30.01875Q19.20625 29.346874 19.20625 28.253124Q19.20625 27.55 19.58125 27.003124Q19.95625 26.440624 20.628124 26.159374Q20.065624 25.878124 19.7375 25.378124Q19.409374 24.878124 19.409374 24.2375Q19.409374 23.159374 20.096874 22.534374Q20.784374 21.89375 21.925 21.89375Q23.05 21.89375 23.7375 22.534374Q24.440624 23.159374 24.440624 24.2375ZM23.55 28.221874Q23.55 27.503124 23.096874 27.065624Q22.64375 26.6125 21.909374 26.6125Q21.175 26.6125 20.721874 27.065624Q20.284374 27.503124 20.284374 28.2375Q20.284374 28.95625 20.721874 29.378124Q21.159374 29.784374 21.925 29.784374Q22.675 29.784374 23.1125 29.3625Q23.55 28.940624 23.55 28.221874ZM21.925 22.784374Q21.284374 22.784374 20.878124 23.190624Q20.4875 23.58125 20.4875 24.26875Q20.4875 24.909374 20.878124 25.315624Q21.26875 25.721874 21.909374 25.721874Q22.565624 25.721874 22.95625 25.315624Q23.346874 24.909374 23.346874 24.26875Q23.346874 23.6125 22.940624 23.20625Q22.534374 22.784374 21.925 22.784374ZM27.39375 24.20625L27.425 24.909374Q28.1125 24.096874 29.3 24.096874Q30.628124 24.096874 31.1125 25.1125Q31.425 24.659374 31.925 24.378124Q32.440624 24.096874 33.128124 24.096874Q35.221874 24.096874 35.253124 26.3L35.253124 30.55L34.175 30.55L34.175 26.3625Q34.175 25.690624 33.8625 25.3625Q33.55 25.01875 32.815624 25.01875Q32.20625 25.01875 31.8 25.378124Q31.409374 25.7375 31.346874 26.346874L31.346874 30.55L30.26875 30.55L30.26875 26.39375Q30.26875 25.01875 28.909374 25.01875Q27.846874 25.01875 27.45625 25.925L27.45625 30.55L26.3625 30.55L26.3625 24.20625L27.39375 24.20625ZM41.065624 28.8625Q41.065624 28.425 40.721874 28.190624Q40.39375 27.940624 39.565624 27.76875Q38.753124 27.596874 38.26875 27.346874Q37.784374 27.096874 37.55 26.76875Q37.33125 26.425 37.33125 25.95625Q37.33125 25.175 37.9875 24.64375Q38.64375 24.096874 39.675 24.096874Q40.753124 24.096874 41.409374 24.659374Q42.08125 25.20625 42.08125 26.065624L41.003124 26.065624Q41.003124 25.628124 40.6125 25.315624Q40.2375 24.9875 39.675 24.9875Q39.08125 24.9875 38.7375 25.253124Q38.409374 25.503124 38.409374 25.909374Q38.409374 26.3 38.721874 26.503124Q39.034374 26.70625 39.846874 26.89375Q40.659374 27.065624 41.159374 27.315624Q41.659374 27.565624 41.89375 27.925Q42.14375 28.284374 42.14375 28.784374Q42.14375 29.64375 41.45625 30.159374Q40.784374 30.675 39.70625 30.675Q38.940624 30.675 38.346874 30.409374Q37.76875 30.128124 37.440624 29.64375Q37.1125 29.159374 37.1125 28.596874L38.190624 28.596874Q38.221874 29.14375 38.628124 29.471874Q39.034374 29.784374 39.70625 29.784374Q40.315624 29.784374 40.690624 29.534374Q41.065624 29.284374 41.065624 28.8625Z" fill-rule="nonzero"/><path fill="#757575" d="M93.9445 345.6844L90.35075 345.6844L90.35075 349.45L89.22575 349.45L89.22575 340.91876L94.52263 340.91876L94.52263 341.84064L90.35075 341.84064L90.35075 344.7625L93.9445 344.7625L93.9445 345.6844ZM99.97575 349.45Q99.882 349.2625 99.8195 348.77814Q99.0695 349.575 98.02263 349.575Q97.08513 349.575 96.47575 349.04376Q95.882 348.5125 95.882 347.6844Q95.882 346.7 96.632 346.15314Q97.382 345.60626 98.757 345.60626L99.80388 345.60626L99.80388 345.10626Q99.80388 344.54376 99.46013 344.21564Q99.132 343.8719 98.46013 343.8719Q97.882 343.8719 97.49138 344.16876Q97.10075 344.45 97.10075 344.8719L96.007 344.8719Q96.007 344.3875 96.33513 343.95Q96.67888 343.5125 97.257 343.2625Q97.83513 342.9969 98.52263 342.9969Q99.632 342.9969 100.24138 343.54376Q100.86638 344.09064 100.89763 345.04376L100.89763 347.96564Q100.89763 348.84064 101.11638 349.35626L101.11638 349.45L99.97575 349.45ZM98.17888 348.6219Q98.6945 348.6219 99.14763 348.35626Q99.60075 348.09064 99.80388 347.66876L99.80388 346.3719L98.96013 346.3719Q96.96013 346.3719 96.96013 347.54376Q96.96013 348.04376 97.30388 348.34064Q97.64763 348.6219 98.17888 348.6219ZM106.757 347.7625Q106.757 347.325 106.41325 347.09064Q106.08513 346.84064 105.257 346.66876Q104.4445 346.4969 103.96013 346.2469Q103.47575 345.9969 103.24138 345.66876Q103.02263 345.325 103.02263 344.85626Q103.02263 344.075 103.67888 343.54376Q104.33513 342.9969 105.36638 342.9969Q106.4445 342.9969 107.10075 343.5594Q107.77263 344.10626 107.77263 344.96564L106.6945 344.96564Q106.6945 344.52814 106.30388 344.21564Q105.92888 343.8875 105.36638 343.8875Q104.77263 343.8875 104.42888 344.15314Q104.10075 344.40314 104.10075 344.8094Q104.10075 345.2 104.41325 345.40314Q104.72575 345.60626 105.53825 345.79376Q106.35075 345.96564 106.85075 346.21564Q107.35075 346.46564 107.58513 346.825Q107.83513 347.1844 107.83513 347.6844Q107.83513 348.54376 107.14763 349.0594Q106.47575 349.575 105.39763 349.575Q104.632 349.575 104.03825 349.3094Q103.46013 349.02814 103.132 348.54376Q102.80388 348.0594 102.80388 347.4969L103.882 347.4969Q103.91325 348.04376 104.3195 348.3719Q104.72575 348.6844 105.39763 348.6844Q106.007 348.6844 106.382 348.4344Q106.757 348.1844 106.757 347.7625ZM110.53825 341.575L110.53825 343.10626L111.71013 343.10626L111.71013 343.95L110.53825 343.95L110.53825 347.8719Q110.53825 348.2625 110.6945 348.45Q110.85075 348.6375 111.22575 348.6375Q111.41325 348.6375 111.74138 348.575L111.74138 349.45Q111.3195 349.575 110.91325 349.575Q110.1945 349.575 109.8195 349.1375Q109.4445 348.6844 109.4445 347.8719L109.4445 343.95L108.28825 343.95L108.28825 343.10626L109.4445 343.10626L109.4445 341.575L110.53825 341.575ZM115.6945 349.575Q114.39763 349.575 113.58513 348.73126Q112.78825 347.8719 112.78825 346.45L112.78825 346.2625Q112.78825 345.3094 113.14763 344.575Q113.507 343.825 114.14763 343.41876Q114.80388 342.9969 115.55388 342.9969Q116.78825 342.9969 117.47575 343.8094Q118.16325 344.6219 118.16325 346.1375L118.16325 346.59064L113.86638 346.59064Q113.89763 347.52814 114.41325 348.10626Q114.9445 348.6844 115.757 348.6844Q116.3195 348.6844 116.71013 348.45Q117.11638 348.21564 117.42888 347.825L118.08513 348.34064Q117.28825 349.575 115.6945 349.575ZM115.55388 343.8875Q114.89763 343.8875 114.4445 344.3719Q114.007 344.84064 113.91325 345.7L117.08513 345.7L117.08513 345.6219Q117.03825 344.79376 116.632 344.34064Q116.24138 343.8875 115.55388 343.8875ZM122.757 347.7625Q122.757 347.325 122.41325 347.09064Q122.08513 346.84064 121.257 346.66876Q120.4445 346.4969 119.96013 346.2469Q119.47575 345.9969 119.24138 345.66876Q119.02263 345.325 119.02263 344.85626Q119.02263 344.075 119.67888 343.54376Q120.33513 342.9969 121.36638 342.9969Q122.4445 342.9969 123.10075 343.5594Q123.77263 344.10626 123.77263 344.96564L122.6945 344.96564Q122.6945 344.52814 122.30388 344.21564Q121.92888 343.8875 121.36638 343.8875Q120.77263 343.8875 120.42888 344.15314Q120.10075 344.40314 120.10075 344.8094Q120.10075 345.2 120.41325 345.40314Q120.72575 345.60626 121.53825 345.79376Q122.35075 345.96564 122.85075 346.21564Q123.35075 346.46564 123.58513 346.825Q123.83513 347.1844 123.83513 347.6844Q123.83513 348.54376 123.14763 349.0594Q122.47575 349.575 121.39763 349.575Q120.632 349.575 120.03825 349.3094Q119.46013 349.02814 119.132 348.54376Q118.80388 348.0594 118.80388 347.4969L119.882 347.4969Q119.91325 348.04376 120.3195 348.3719Q120.72575 348.6844 121.39763 348.6844Q122.007 348.6844 122.382 348.4344Q122.757 348.1844 122.757 347.7625ZM126.53825 341.575L126.53825 343.10626L127.71013 343.10626L127.71013 343.95L126.53825 343.95L126.53825 347.8719Q126.53825 348.2625 126.6945 348.45Q126.85075 348.6375 127.22575 348.6375Q127.41325 348.6375 127.74138 348.575L127.74138 349.45Q127.3195 349.575 126.91325 349.575Q126.1945 349.575 125.8195 349.1375Q125.4445 348.6844 125.4445 347.8719L125.4445 343.95L124.28825 343.95L124.28825 343.10626L125.4445 343.10626L125.4445 341.575L126.53825 341.575ZM135.36638 345.9969L133.35075 345.9969L133.35075 349.45L132.22575 349.45L132.22575 340.91876L135.05388 340.91876Q136.49138 340.91876 137.257 341.575Q138.03825 342.23126 138.03825 343.48126Q138.03825 344.27814 137.60075 344.8719Q137.17888 345.46564 136.41325 345.7625L138.41325 349.3719L138.41325 349.45L137.21013 349.45L135.36638 345.9969ZM133.35075 345.075L135.08513 345.075Q135.92888 345.075 136.41325 344.65314Q136.91325 344.21564 136.91325 343.48126Q136.91325 342.7 136.4445 342.27814Q135.97575 341.85626 135.08513 341.84064L133.35075 341.84064L133.35075 345.075ZM141.6945 349.575Q140.39763 349.575 139.58513 348.73126Q138.78825 347.8719 138.78825 346.45L138.78825 346.2625Q138.78825 345.3094 139.14763 344.575Q139.507 343.825 140.14763 343.41876Q140.80388 342.9969 141.55388 342.9969Q142.78825 342.9969 143.47575 343.8094Q144.16325 344.6219 144.16325 346.1375L144.16325 346.59064L139.86638 346.59064Q139.89763 347.52814 140.41325 348.10626Q140.9445 348.6844 141.757 348.6844Q142.3195 348.6844 142.71013 348.45Q143.11638 348.21564 143.42888 347.825L144.08513 348.34064Q143.28825 349.575 141.6945 349.575ZM141.55388 343.8875Q140.89763 343.8875 140.4445 344.3719Q140.007 344.84064 139.91325 345.7L143.08513 345.7L143.08513 345.6219Q143.03825 344.79376 142.632 344.34064Q142.24138 343.8875 141.55388 343.8875ZM144.80388 346.23126Q144.80388 344.73126 145.47575 343.8719Q146.16325 342.9969 147.3195 342.9969Q148.4445 342.9969 149.10075 343.7469L149.14763 343.10626L150.14763 343.10626L150.14763 351.8875L149.05388 351.8875L149.05388 348.85626Q148.39763 349.575 147.3195 349.575Q146.16325 349.575 145.47575 348.6844Q144.80388 347.77814 144.80388 346.3094L144.80388 346.23126ZM145.882 346.35626Q145.882 347.4344 146.33513 348.0594Q146.80388 348.6844 147.58513 348.6844Q148.55388 348.6844 149.05388 347.825L149.05388 344.71564Q148.53825 343.8875 147.60075 343.8875Q146.80388 343.8875 146.33513 344.5125Q145.882 345.1375 145.882 346.35626ZM155.97575 348.825Q155.35075 349.575 154.11638 349.575Q153.10075 349.575 152.5695 348.98126Q152.03825 348.3875 152.03825 347.23126L152.03825 343.10626L153.11638 343.10626L153.11638 347.2Q153.11638 348.65314 154.28825 348.65314Q155.53825 348.65314 155.9445 347.71564L155.9445 343.10626L157.03825 343.10626L157.03825 349.45L156.007 349.45L155.97575 348.825ZM161.6945 349.575Q160.39763 349.575 159.58513 348.73126Q158.78825 347.8719 158.78825 346.45L158.78825 346.2625Q158.78825 345.3094 159.14763 344.575Q159.507 343.825 160.14763 343.41876Q160.80388 342.9969 161.55388 342.9969Q162.78825 342.9969 163.47575 343.8094Q164.16325 344.6219 164.16325 346.1375L164.16325 346.59064L159.86638 346.59064Q159.89763 347.52814 160.41325 348.10626Q160.9445 348.6844 161.757 348.6844Q162.3195 348.6844 162.71013 348.45Q163.11638 348.21564 163.42888 347.825L164.08513 348.34064Q163.28825 349.575 161.6945 349.575ZM161.55388 343.8875Q160.89763 343.8875 160.4445 344.3719Q160.007 344.84064 159.91325 345.7L163.08513 345.7L163.08513 345.6219Q163.03825 344.79376 162.632 344.34064Q162.24138 343.8875 161.55388 343.8875ZM168.757 347.7625Q168.757 347.325 168.41325 347.09064Q168.08513 346.84064 167.257 346.66876Q166.4445 346.4969 165.96013 346.2469Q165.47575 345.9969 165.24138 345.66876Q165.02263 345.325 165.02263 344.85626Q165.02263 344.075 165.67888 343.54376Q166.33513 342.9969 167.36638 342.9969Q168.4445 342.9969 169.10075 343.5594Q169.77263 344.10626 169.77263 344.96564L168.6945 344.96564Q168.6945 344.52814 168.30388 344.21564Q167.92888 343.8875 167.36638 343.8875Q166.77263 343.8875 166.42888 344.15314Q166.10075 344.40314 166.10075 344.8094Q166.10075 345.2 166.41325 345.40314Q166.72575 345.60626 167.53825 345.79376Q168.35075 345.96564 168.85075 346.21564Q169.35075 346.46564 169.58513 346.825Q169.83513 347.1844 169.83513 347.6844Q169.83513 348.54376 169.14763 349.0594Q168.47575 349.575 167.39763 349.575Q166.632 349.575 166.03825 349.3094Q165.46013 349.02814 165.132 348.54376Q164.80388 348.0594 164.80388 347.4969L165.882 347.4969Q165.91325 348.04376 166.3195 348.3719Q166.72575 348.6844 167.39763 348.6844Q168.007 348.6844 168.382 348.4344Q168.757 348.1844 168.757 347.7625ZM172.53825 341.575L172.53825 343.10626L173.71013 343.10626L173.71013 343.95L172.53825 343.95L172.53825 347.8719Q172.53825 348.2625 172.6945 348.45Q172.85075 348.6375 173.22575 348.6375Q173.41325 348.6375 173.74138 348.575L173.74138 349.45Q173.3195 349.575 172.91325 349.575Q172.1945 349.575 171.8195 349.1375Q171.4445 348.6844 171.4445 347.8719L171.4445 343.95L170.28825 343.95L170.28825 343.10626L171.4445 343.10626L171.4445 341.575L172.53825 341.575Z" fill-rule="nonzero"/><path fill="#757575" d="M213.18463 340.91876L215.9815 347.8719L218.76276 340.91876L220.2315 340.91876L220.2315 349.45L219.1065 349.45L219.1065 346.1219L219.21588 342.54376L216.40338 349.45L215.544 349.45L212.74713 342.5594L212.8565 346.1219L212.8565 349.45L211.7315 349.45L211.7315 340.91876L213.18463 340.91876ZM224.20026 349.575Q222.90338 349.575 222.09088 348.73126Q221.294 347.8719 221.294 346.45L221.294 346.2625Q221.294 345.3094 221.65338 344.575Q222.01276 343.825 222.65338 343.41876Q223.30963 342.9969 224.05963 342.9969Q225.294 342.9969 225.9815 343.8094Q226.669 344.6219 226.669 346.1375L226.669 346.59064L222.37213 346.59064Q222.40338 347.52814 222.919 348.10626Q223.45026 348.6844 224.26276 348.6844Q224.82526 348.6844 225.21588 348.45Q225.62213 348.21564 225.93463 347.825L226.59088 348.34064Q225.794 349.575 224.20026 349.575ZM224.05963 343.8875Q223.40338 343.8875 222.95026 344.3719Q222.51276 344.84064 222.419 345.7L225.59088 345.7L225.59088 345.6219Q225.544 344.79376 225.13776 344.34064Q224.74713 343.8875 224.05963 343.8875ZM227.30963 346.23126Q227.30963 344.7625 227.99713 343.8875Q228.68463 342.9969 229.80963 342.9969Q230.919 342.9969 231.57526 343.7469L231.57526 340.45L232.65338 340.45L232.65338 349.45L231.65338 349.45L231.6065 348.7625Q230.95026 349.575 229.794 349.575Q228.70026 349.575 227.99713 348.66876Q227.30963 347.7625 227.30963 346.3094L227.30963 346.23126ZM228.38776 346.35626Q228.38776 347.4344 228.82526 348.04376Q229.27838 348.65314 230.05963 348.65314Q231.09088 348.65314 231.57526 347.71564L231.57526 344.8094Q231.09088 343.91876 230.07526 343.91876Q229.27838 343.91876 228.82526 344.52814Q228.38776 345.1375 228.38776 346.35626ZM235.74713 349.45L234.669 349.45L234.669 343.10626L235.74713 343.10626L235.74713 349.45ZM234.57526 341.4344Q234.57526 341.16876 234.7315 340.98126Q234.90338 340.79376 235.21588 340.79376Q235.52838 340.79376 235.68463 340.98126Q235.8565 341.16876 235.8565 341.4344Q235.8565 341.6844 235.68463 341.8719Q235.52838 342.04376 235.21588 342.04376Q234.90338 342.04376 234.7315 341.8719Q234.57526 341.6844 234.57526 341.4344ZM241.4815 349.45Q241.38776 349.2625 241.32526 348.77814Q240.57526 349.575 239.52838 349.575Q238.59088 349.575 237.9815 349.04376Q237.38776 348.5125 237.38776 347.6844Q237.38776 346.7 238.13776 346.15314Q238.88776 345.60626 240.26276 345.60626L241.30963 345.60626L241.30963 345.10626Q241.30963 344.54376 240.96588 344.21564Q240.63776 343.8719 239.96588 343.8719Q239.38776 343.8719 238.99713 344.16876Q238.6065 344.45 238.6065 344.8719L237.51276 344.8719Q237.51276 344.3875 237.84088 343.95Q238.18463 343.5125 238.76276 343.2625Q239.34088 342.9969 240.02838 342.9969Q241.13776 342.9969 241.74713 343.54376Q242.37213 344.09064 242.40338 345.04376L242.40338 347.96564Q242.40338 348.84064 242.62213 349.35626L242.62213 349.45L241.4815 349.45ZM239.68463 348.6219Q240.20026 348.6219 240.65338 348.35626Q241.1065 348.09064 241.30963 347.66876L241.30963 346.3719L240.46588 346.3719Q238.46588 346.3719 238.46588 347.54376Q238.46588 348.04376 238.80963 348.34064Q239.15338 348.6219 239.68463 348.6219ZM245.59088 343.10626L245.62213 343.90314Q246.3565 342.9969 247.52838 342.9969Q249.544 342.9969 249.55963 345.2625L249.55963 349.45L248.46588 349.45L248.46588 345.2469Q248.46588 344.575 248.15338 344.2469Q247.8565 343.91876 247.20026 343.91876Q246.669 343.91876 246.26276 344.2Q245.87213 344.48126 245.65338 344.9344L245.65338 349.45L244.57526 349.45L244.57526 343.10626L245.59088 343.10626ZM257.87213 345.9969L255.8565 345.9969L255.8565 349.45L254.7315 349.45L254.7315 340.91876L257.55963 340.91876Q258.99713 340.91876 259.76276 341.575Q260.544 342.23126 260.544 343.48126Q260.544 344.27814 260.1065 344.8719Q259.68463 345.46564 258.919 345.7625L260.919 349.3719L260.919 349.45L259.71588 349.45L257.87213 345.9969ZM255.8565 345.075L257.59088 345.075Q258.43463 345.075 258.919 344.65314Q259.419 344.21564 259.419 343.48126Q259.419 342.7 258.95026 342.27814Q258.4815 341.85626 257.59088 341.84064L255.8565 341.84064L255.8565 345.075ZM264.20026 349.575Q262.90338 349.575 262.09088 348.73126Q261.294 347.8719 261.294 346.45L261.294 346.2625Q261.294 345.3094 261.65338 344.575Q262.01276 343.825 262.65338 343.41876Q263.30963 342.9969 264.05963 342.9969Q265.294 342.9969 265.9815 343.8094Q266.669 344.6219 266.669 346.1375L266.669 346.59064L262.37213 346.59064Q262.40338 347.52814 262.919 348.10626Q263.45026 348.6844 264.26276 348.6844Q264.82526 348.6844 265.21588 348.45Q265.62213 348.21564 265.93463 347.825L266.59088 348.34064Q265.794 349.575 264.20026 349.575ZM264.05963 343.8875Q263.40338 343.8875 262.95026 344.3719Q262.51276 344.84064 262.419 345.7L265.59088 345.7L265.59088 345.6219Q265.544 344.79376 265.13776 344.34064Q264.74713 343.8875 264.05963 343.8875ZM267.30963 346.23126Q267.30963 344.73126 267.9815 343.8719Q268.669 342.9969 269.82526 342.9969Q270.95026 342.9969 271.6065 343.7469L271.65338 343.10626L272.65338 343.10626L272.65338 351.8875L271.55963 351.8875L271.55963 348.85626Q270.90338 349.575 269.82526 349.575Q268.669 349.575 267.9815 348.6844Q267.30963 347.77814 267.30963 346.3094L267.30963 346.23126ZM268.38776 346.35626Q268.38776 347.4344 268.84088 348.0594Q269.30963 348.6844 270.09088 348.6844Q271.05963 348.6844 271.55963 347.825L271.55963 344.71564Q271.044 343.8875 270.1065 343.8875Q269.30963 343.8875 268.84088 344.5125Q268.38776 345.1375 268.38776 346.35626ZM278.4815 348.825Q277.8565 349.575 276.62213 349.575Q275.6065 349.575 275.07526 348.98126Q274.544 348.3875 274.544 347.23126L274.544 343.10626L275.62213 343.10626L275.62213 347.2Q275.62213 348.65314 276.794 348.65314Q278.044 348.65314 278.45026 347.71564L278.45026 343.10626L279.544 343.10626L279.544 349.45L278.51276 349.45L278.4815 348.825ZM284.20026 349.575Q282.90338 349.575 282.09088 348.73126Q281.294 347.8719 281.294 346.45L281.294 346.2625Q281.294 345.3094 281.65338 344.575Q282.01276 343.825 282.65338 343.41876Q283.30963 342.9969 284.05963 342.9969Q285.294 342.9969 285.9815 343.8094Q286.669 344.6219 286.669 346.1375L286.669 346.59064L282.37213 346.59064Q282.40338 347.52814 282.919 348.10626Q283.45026 348.6844 284.26276 348.6844Q284.82526 348.6844 285.21588 348.45Q285.62213 348.21564 285.93463 347.825L286.59088 348.34064Q285.794 349.575 284.20026 349.575ZM284.05963 343.8875Q283.40338 343.8875 282.95026 344.3719Q282.51276 344.84064 282.419 345.7L285.59088 345.7L285.59088 345.6219Q285.544 344.79376 285.13776 344.34064Q284.74713 343.8875 284.05963 343.8875ZM291.26276 347.7625Q291.26276 347.325 290.919 347.09064Q290.59088 346.84064 289.76276 346.66876Q288.95026 346.4969 288.46588 346.2469Q287.9815 345.9969 287.74713 345.66876Q287.52838 345.325 287.52838 344.85626Q287.52838 344.075 288.18463 343.54376Q288.84088 342.9969 289.87213 342.9969Q290.95026 342.9969 291.6065 343.5594Q292.27838 344.10626 292.27838 344.96564L291.20026 344.96564Q291.20026 344.52814 290.80963 344.21564Q290.43463 343.8875 289.87213 343.8875Q289.27838 343.8875 288.93463 344.15314Q288.6065 344.40314 288.6065 344.8094Q288.6065 345.2 288.919 345.40314Q289.2315 345.60626 290.044 345.79376Q290.8565 345.96564 291.3565 346.21564Q291.8565 346.46564 292.09088 346.825Q292.34088 347.1844 292.34088 347.6844Q292.34088 348.54376 291.65338 349.0594Q290.9815 349.575 289.90338 349.575Q289.13776 349.575 288.544 349.3094Q287.96588 349.02814 287.63776 348.54376Q287.30963 348.0594 287.30963 347.4969L288.38776 347.4969Q288.419 348.04376 288.82526 348.3719Q289.2315 348.6844 289.90338 348.6844Q290.51276 348.6844 290.88776 348.4344Q291.26276 348.1844 291.26276 347.7625ZM295.044 341.575L295.044 343.10626L296.21588 343.10626L296.21588 343.95L295.044 343.95L295.044 347.8719Q295.044 348.2625 295.20026 348.45Q295.3565 348.6375 295.7315 348.6375Q295.919 348.6375 296.24713 348.575L296.24713 349.45Q295.82526 349.575 295.419 349.575Q294.70026 349.575 294.32526 349.1375Q293.95026 348.6844 293.95026 347.8719L293.95026 343.95L292.794 343.95L292.794 343.10626L293.95026 343.10626L293.95026 341.575L295.044 341.575Z" fill-rule="nonzero"/><path fill="#757575" d="M340.61224 345.7Q340.28412 346.10626 339.79974 346.35626Q339.331 346.59064 338.7685 346.59064Q338.03412 346.59064 337.48724 346.23126Q336.94037 345.8719 336.6435 345.21564Q336.34662 344.54376 336.34662 343.7469Q336.34662 342.90314 336.65912 342.21564Q336.98724 341.52814 337.581 341.16876Q338.19037 340.79376 338.98724 340.79376Q340.25287 340.79376 340.97162 341.7469Q341.706 342.7 341.706 344.325L341.706 344.6375Q341.706 347.1375 340.72162 348.27814Q339.73724 349.41876 337.75287 349.45L337.53412 349.45L337.53412 348.54376L337.7685 348.54376Q339.11224 348.5125 339.831 347.84064Q340.54974 347.16876 340.61224 345.7ZM338.94037 345.7Q339.48724 345.7 339.94037 345.3719Q340.40912 345.02814 340.62787 344.54376L340.62787 344.10626Q340.62787 343.04376 340.15912 342.3719Q339.69037 341.7 338.98724 341.7Q338.2685 341.7 337.831 342.2469Q337.40912 342.79376 337.40912 343.7Q337.40912 344.575 337.81537 345.1375Q338.23724 345.7 338.94037 345.7ZM348.81537 345.8094Q348.81537 347.71564 348.15912 348.65314Q347.5185 349.575 346.12787 349.575Q344.7685 349.575 344.11224 348.66876Q343.456 347.7625 343.42474 345.95L343.42474 344.5125Q343.42474 342.6219 344.06537 341.71564Q344.72162 340.79376 346.11224 340.79376Q347.48724 340.79376 348.1435 341.6844Q348.79974 342.5594 348.81537 344.40314L348.81537 345.8094ZM347.72162 344.325Q347.72162 342.95 347.331 342.325Q346.956 341.6844 346.11224 341.6844Q345.28412 341.6844 344.8935 342.325Q344.5185 342.95 344.5185 344.2469L344.5185 345.98126Q344.5185 347.35626 344.90912 348.02814Q345.31537 348.6844 346.12787 348.6844Q346.92474 348.6844 347.31537 348.0594Q347.706 347.4344 347.72162 346.10626L347.72162 344.325ZM352.04974 341.575L352.04974 343.10626L353.22162 343.10626L353.22162 343.95L352.04974 343.95L352.04974 347.8719Q352.04974 348.2625 352.206 348.45Q352.36224 348.6375 352.73724 348.6375Q352.92474 348.6375 353.25287 348.575L353.25287 349.45Q352.831 349.575 352.42474 349.575Q351.706 349.575 351.331 349.1375Q350.956 348.6844 350.956 347.8719L350.956 343.95L349.79974 343.95L349.79974 343.10626L350.956 343.10626L350.956 341.575L352.04974 341.575ZM355.65912 343.8719Q356.37787 342.9969 357.53412 342.9969Q359.54974 342.9969 359.56537 345.2625L359.56537 349.45L358.47162 349.45L358.47162 345.2469Q358.47162 344.575 358.15912 344.2469Q357.86224 343.91876 357.206 343.91876Q356.67474 343.91876 356.2685 344.2Q355.87787 344.48126 355.65912 344.9344L355.65912 349.45L354.581 349.45L354.581 340.45L355.65912 340.45L355.65912 343.8719ZM365.86224 346.10626L365.86224 349.45L364.73724 349.45L364.73724 340.91876L367.8935 340.91876Q369.28412 340.91876 370.081 341.6375Q370.87787 342.34064 370.87787 343.52814Q370.87787 344.7625 370.09662 345.4344Q369.331 346.10626 367.87787 346.10626L365.86224 346.10626ZM365.86224 345.1844L367.8935 345.1844Q368.79974 345.1844 369.2685 344.7625Q369.75287 344.34064 369.75287 343.54376Q369.75287 342.77814 369.2685 342.325Q368.79974 341.85626 367.956 341.84064L365.86224 341.84064L365.86224 345.1844ZM375.206 349.575Q373.90912 349.575 373.09662 348.73126Q372.29974 347.8719 372.29974 346.45L372.29974 346.2625Q372.29974 345.3094 372.65912 344.575Q373.0185 343.825 373.65912 343.41876Q374.31537 342.9969 375.06537 342.9969Q376.29974 342.9969 376.98724 343.8094Q377.67474 344.6219 377.67474 346.1375L377.67474 346.59064L373.37787 346.59064Q373.40912 347.52814 373.92474 348.10626Q374.456 348.6844 375.2685 348.6844Q375.831 348.6844 376.22162 348.45Q376.62787 348.21564 376.94037 347.825L377.59662 348.34064Q376.79974 349.575 375.206 349.575ZM375.06537 343.8875Q374.40912 343.8875 373.956 344.3719Q373.5185 344.84064 373.42474 345.7L376.59662 345.7L376.59662 345.6219Q376.54974 344.79376 376.1435 344.34064Q375.75287 343.8875 375.06537 343.8875ZM381.6435 344.075Q381.3935 344.04376 381.11224 344.04376Q380.03412 344.04376 379.65912 344.95L379.65912 349.45L378.581 349.45L378.581 343.10626L379.62787 343.10626L379.6435 343.84064Q380.17474 342.9969 381.15912 342.9969Q381.47162 342.9969 381.6435 343.075L381.6435 344.075ZM385.11224 348.6844Q385.69037 348.6844 386.12787 348.34064Q386.56537 347.98126 386.61224 347.45L387.6435 347.45Q387.61224 347.9969 387.25287 348.4969Q386.90912 348.98126 386.331 349.27814Q385.7685 349.575 385.11224 349.575Q383.81537 349.575 383.04974 348.71564Q382.29974 347.84064 382.29974 346.34064L382.29974 346.15314Q382.29974 345.23126 382.62787 344.5125Q382.97162 343.79376 383.59662 343.40314Q384.23724 342.9969 385.11224 342.9969Q386.17474 342.9969 386.87787 343.6375Q387.59662 344.2625 387.6435 345.29376L386.61224 345.29376Q386.56537 344.66876 386.1435 344.27814Q385.72162 343.8875 385.11224 343.8875Q384.28412 343.8875 383.831 344.48126Q383.37787 345.075 383.37787 346.2L383.37787 346.40314Q383.37787 347.4969 383.831 348.09064Q384.28412 348.6844 385.11224 348.6844ZM391.206 349.575Q389.90912 349.575 389.09662 348.73126Q388.29974 347.8719 388.29974 346.45L388.29974 346.2625Q388.29974 345.3094 388.65912 344.575Q389.0185 343.825 389.65912 343.41876Q390.31537 342.9969 391.06537 342.9969Q392.29974 342.9969 392.98724 343.8094Q393.67474 344.6219 393.67474 346.1375L393.67474 346.59064L389.37787 346.59064Q389.40912 347.52814 389.92474 348.10626Q390.456 348.6844 391.2685 348.6844Q391.831 348.6844 392.22162 348.45Q392.62787 348.21564 392.94037 347.825L393.59662 348.34064Q392.79974 349.575 391.206 349.575ZM391.06537 343.8875Q390.40912 343.8875 389.956 344.3719Q389.5185 344.84064 389.42474 345.7L392.59662 345.7L392.59662 345.6219Q392.54974 344.79376 392.1435 344.34064Q391.75287 343.8875 391.06537 343.8875ZM395.59662 343.10626L395.62787 343.90314Q396.36224 342.9969 397.53412 342.9969Q399.54974 342.9969 399.56537 345.2625L399.56537 349.45L398.47162 349.45L398.47162 345.2469Q398.47162 344.575 398.15912 344.2469Q397.86224 343.91876 397.206 343.91876Q396.67474 343.91876 396.2685 344.2Q395.87787 344.48126 395.65912 344.9344L395.65912 349.45L394.581 349.45L394.581 343.10626L395.59662 343.10626ZM403.04974 341.575L403.04974 343.10626L404.22162 343.10626L404.22162 343.95L403.04974 343.95L403.04974 347.8719Q403.04974 348.2625 403.206 348.45Q403.36224 348.6375 403.73724 348.6375Q403.92474 348.6375 404.25287 348.575L404.25287 349.45Q403.831 349.575 403.42474 349.575Q402.706 349.575 402.331 349.1375Q401.956 348.6844 401.956 347.8719L401.956 343.95L400.79974 343.95L400.79974 343.10626L401.956 343.10626L401.956 341.575L403.04974 341.575ZM406.75287 349.45L405.67474 349.45L405.67474 343.10626L406.75287 343.10626L406.75287 349.45ZM405.581 341.4344Q405.581 341.16876 405.73724 340.98126Q405.90912 340.79376 406.22162 340.79376Q406.53412 340.79376 406.69037 340.98126Q406.86224 341.16876 406.86224 341.4344Q406.86224 341.6844 406.69037 341.8719Q406.53412 342.04376 406.22162 342.04376Q405.90912 342.04376 405.73724 341.8719Q405.581 341.6844 405.581 341.4344ZM409.75287 349.45L408.67474 349.45L408.67474 340.45L409.75287 340.45L409.75287 349.45ZM414.206 349.575Q412.90912 349.575 412.09662 348.73126Q411.29974 347.8719 411.29974 346.45L411.29974 346.2625Q411.29974 345.3094 411.65912 344.575Q412.0185 343.825 412.65912 343.41876Q413.31537 342.9969 414.06537 342.9969Q415.29974 342.9969 415.98724 343.8094Q416.67474 344.6219 416.67474 346.1375L416.67474 346.59064L412.37787 346.59064Q412.40912 347.52814 412.92474 348.10626Q413.456 348.6844 414.2685 348.6844Q414.831 348.6844 415.22162 348.45Q415.62787 348.21564 415.94037 347.825L416.59662 348.34064Q415.79974 349.575 414.206 349.575ZM414.06537 343.8875Q413.40912 343.8875 412.956 344.3719Q412.5185 344.84064 412.42474 345.7L415.59662 345.7L415.59662 345.6219Q415.54974 344.79376 415.1435 344.34064Q414.75287 343.8875 414.06537 343.8875Z" fill-rule="nonzero"/><path fill="#757575" d="M458.2586 345.65314Q456.8211 345.23126 456.14923 344.6219Q455.49298 344.0125 455.49298 343.1219Q455.49298 342.1219 456.28986 341.46564Q457.10236 340.79376 458.39923 340.79376Q459.27423 340.79376 459.96173 341.1375Q460.64923 341.48126 461.02423 342.075Q461.41486 342.66876 461.41486 343.3875L460.27423 343.3875Q460.27423 342.60626 459.77423 342.16876Q459.28986 341.73126 458.39923 341.73126Q457.5711 341.73126 457.10236 342.10626Q456.6336 342.46564 456.6336 343.10626Q456.6336 343.6375 457.0711 343.9969Q457.52423 344.35626 458.58673 344.65314Q459.64923 344.95 460.24298 345.3094Q460.85236 345.66876 461.1336 346.15314Q461.43048 346.6375 461.43048 347.27814Q461.43048 348.325 460.61798 348.95Q459.80548 349.575 458.46173 349.575Q457.5711 349.575 456.80548 349.23126Q456.05548 348.8875 455.6336 348.3094Q455.22736 347.71564 455.22736 346.98126L456.35236 346.98126Q456.35236 347.7469 456.93048 348.2Q457.5086 348.65314 458.46173 348.65314Q459.35236 348.65314 459.8211 348.29376Q460.28986 347.91876 460.28986 347.29376Q460.28986 346.66876 459.85236 346.325Q459.41486 345.98126 458.2586 345.65314ZM463.7586 349.45L462.68048 349.45L462.68048 340.45L463.7586 340.45L463.7586 349.45ZM465.28986 346.21564Q465.28986 345.29376 465.64923 344.54376Q466.02423 343.79376 466.68048 343.40314Q467.33673 342.9969 468.16486 342.9969Q469.46173 342.9969 470.2586 343.8875Q471.0711 344.77814 471.0711 346.27814L471.0711 346.35626Q471.0711 347.27814 470.71173 348.0125Q470.35236 348.7469 469.6961 349.16876Q469.03986 349.575 468.18048 349.575Q466.89923 349.575 466.08673 348.6844Q465.28986 347.77814 465.28986 346.29376L465.28986 346.21564ZM466.3836 346.35626Q466.3836 347.40314 466.86798 348.04376Q467.36798 348.6844 468.18048 348.6844Q469.0086 348.6844 469.49298 348.04376Q469.97736 347.3875 469.97736 346.21564Q469.97736 345.1844 469.47736 344.54376Q468.99298 343.8875 468.16486 343.8875Q467.36798 343.8875 466.86798 344.52814Q466.3836 345.15314 466.3836 346.35626ZM478.1961 347.95L479.41486 343.10626L480.49298 343.10626L478.64923 349.45L477.77423 349.45L476.22736 344.6375L474.72736 349.45L473.85236 349.45L472.0086 343.10626L473.08673 343.10626L474.33673 347.85626L475.8211 343.10626L476.68048 343.10626L478.1961 347.95ZM484.21173 349.575Q482.91486 349.575 482.10236 348.73126Q481.30548 347.8719 481.30548 346.45L481.30548 346.2625Q481.30548 345.3094 481.66486 344.575Q482.02423 343.825 482.66486 343.41876Q483.3211 342.9969 484.0711 342.9969Q485.30548 342.9969 485.99298 343.8094Q486.68048 344.6219 486.68048 346.1375L486.68048 346.59064L482.3836 346.59064Q482.41486 347.52814 482.93048 348.10626Q483.46173 348.6844 484.27423 348.6844Q484.83673 348.6844 485.22736 348.45Q485.6336 348.21564 485.9461 347.825L486.60236 348.34064Q485.80548 349.575 484.21173 349.575ZM484.0711 343.8875Q483.41486 343.8875 482.96173 344.3719Q482.52423 344.84064 482.43048 345.7L485.60236 345.7L485.60236 345.6219Q485.55548 344.79376 485.14923 344.34064Q484.7586 343.8875 484.0711 343.8875ZM491.27423 347.7625Q491.27423 347.325 490.93048 347.09064Q490.60236 346.84064 489.77423 346.66876Q488.96173 346.4969 488.47736 346.2469Q487.99298 345.9969 487.7586 345.66876Q487.53986 345.325 487.53986 344.85626Q487.53986 344.075 488.1961 343.54376Q488.85236 342.9969 489.8836 342.9969Q490.96173 342.9969 491.61798 343.5594Q492.28986 344.10626 492.28986 344.96564L491.21173 344.96564Q491.21173 344.52814 490.8211 344.21564Q490.4461 343.8875 489.8836 343.8875Q489.28986 343.8875 488.9461 344.15314Q488.61798 344.40314 488.61798 344.8094Q488.61798 345.2 488.93048 345.40314Q489.24298 345.60626 490.05548 345.79376Q490.86798 345.96564 491.36798 346.21564Q491.86798 346.46564 492.10236 346.825Q492.35236 347.1844 492.35236 347.6844Q492.35236 348.54376 491.66486 349.0594Q490.99298 349.575 489.91486 349.575Q489.14923 349.575 488.55548 349.3094Q487.97736 349.02814 487.64923 348.54376Q487.3211 348.0594 487.3211 347.4969L488.39923 347.4969Q488.43048 348.04376 488.83673 348.3719Q489.24298 348.6844 489.91486 348.6844Q490.52423 348.6844 490.89923 348.4344Q491.27423 348.1844 491.27423 347.7625ZM495.05548 341.575L495.05548 343.10626L496.22736 343.10626L496.22736 343.95L495.05548 343.95L495.05548 347.8719Q495.05548 348.2625 495.21173 348.45Q495.36798 348.6375 495.74298 348.6375Q495.93048 348.6375 496.2586 348.575L496.2586 349.45Q495.83673 349.575 495.43048 349.575Q494.71173 349.575 494.33673 349.1375Q493.96173 348.6844 493.96173 347.8719L493.96173 343.95L492.80548 343.95L492.80548 343.10626L493.96173 343.10626L493.96173 341.575L495.05548 341.575ZM503.8836 345.9969L501.86798 345.9969L501.86798 349.45L500.74298 349.45L500.74298 340.91876L503.5711 340.91876Q505.0086 340.91876 505.77423 341.575Q506.55548 342.23126 506.55548 343.48126Q506.55548 344.27814 506.11798 344.8719Q505.6961 345.46564 504.93048 345.7625L506.93048 349.3719L506.93048 349.45L505.72736 349.45L503.8836 345.9969ZM501.86798 345.075L503.60236 345.075Q504.4461 345.075 504.93048 344.65314Q505.43048 344.21564 505.43048 343.48126Q505.43048 342.7 504.96173 342.27814Q504.49298 341.85626 503.60236 341.84064L501.86798 341.84064L501.86798 345.075ZM510.21173 349.575Q508.91486 349.575 508.10236 348.73126Q507.30548 347.8719 507.30548 346.45L507.30548 346.2625Q507.30548 345.3094 507.66486 344.575Q508.02423 343.825 508.66486 343.41876Q509.3211 342.9969 510.0711 342.9969Q511.30548 342.9969 511.99298 343.8094Q512.6805 344.6219 512.6805 346.1375L512.6805 346.59064L508.3836 346.59064Q508.41486 347.52814 508.93048 348.10626Q509.46173 348.6844 510.27423 348.6844Q510.83673 348.6844 511.22736 348.45Q511.6336 348.21564 511.9461 347.825L512.60236 348.34064Q511.80548 349.575 510.21173 349.575ZM510.0711 343.8875Q509.41486 343.8875 508.96173 344.3719Q508.52423 344.84064 508.43048 345.7L511.60236 345.7L511.60236 345.6219Q511.55548 344.79376 511.14923 344.34064Q510.7586 343.8875 510.0711 343.8875ZM513.3211 346.23126Q513.3211 344.73126 513.993 343.8719Q514.6805 342.9969 515.83673 342.9969Q516.96173 342.9969 517.618 343.7469L517.66486 343.10626L518.66486 343.10626L518.66486 351.8875L517.5711 351.8875L517.5711 348.85626Q516.91486 349.575 515.83673 349.575Q514.6805 349.575 513.993 348.6844Q513.3211 347.77814 513.3211 346.3094L513.3211 346.23126ZM514.39923 346.35626Q514.39923 347.4344 514.85236 348.0594Q515.3211 348.6844 516.10236 348.6844Q517.0711 348.6844 517.5711 347.825L517.5711 344.71564Q517.0555 343.8875 516.118 343.8875Q515.3211 343.8875 514.85236 344.5125Q514.39923 345.1375 514.39923 346.35626ZM524.493 348.825Q523.868 349.575 522.6336 349.575Q521.618 349.575 521.08673 348.98126Q520.5555 348.3875 520.5555 347.23126L520.5555 343.10626L521.6336 343.10626L521.6336 347.2Q521.6336 348.65314 522.8055 348.65314Q524.0555 348.65314 524.46173 347.71564L524.46173 343.10626L525.5555 343.10626L525.5555 349.45L524.52423 349.45L524.493 348.825ZM530.21173 349.575Q528.91486 349.575 528.10236 348.73126Q527.3055 347.8719 527.3055 346.45L527.3055 346.2625Q527.3055 345.3094 527.66486 344.575Q528.02423 343.825 528.66486 343.41876Q529.3211 342.9969 530.0711 342.9969Q531.3055 342.9969 531.993 343.8094Q532.6805 344.6219 532.6805 346.1375L532.6805 346.59064L528.3836 346.59064Q528.41486 347.52814 528.9305 348.10626Q529.46173 348.6844 530.27423 348.6844Q530.83673 348.6844 531.22736 348.45Q531.6336 348.21564 531.9461 347.825L532.60236 348.34064Q531.8055 349.575 530.21173 349.575ZM530.0711 343.8875Q529.41486 343.8875 528.96173 344.3719Q528.52423 344.84064 528.4305 345.7L531.60236 345.7L531.60236 345.6219Q531.5555 344.79376 531.14923 344.34064Q530.7586 343.8875 530.0711 343.8875ZM537.27423 347.7625Q537.27423 347.325 536.9305 347.09064Q536.60236 346.84064 535.77423 346.66876Q534.96173 346.4969 534.47736 346.2469Q533.993 345.9969 533.7586 345.66876Q533.53986 345.325 533.53986 344.85626Q533.53986 344.075 534.1961 343.54376Q534.85236 342.9969 535.8836 342.9969Q536.96173 342.9969 537.618 343.5594Q538.28986 344.10626 538.28986 344.96564L537.21173 344.96564Q537.21173 344.52814 536.8211 344.21564Q536.4461 343.8875 535.8836 343.8875Q535.28986 343.8875 534.9461 344.15314Q534.618 344.40314 534.618 344.8094Q534.618 345.2 534.9305 345.40314Q535.243 345.60626 536.0555 345.79376Q536.868 345.96564 537.368 346.21564Q537.868 346.46564 538.10236 346.825Q538.35236 347.1844 538.35236 347.6844Q538.35236 348.54376 537.66486 349.0594Q536.993 349.575 535.91486 349.575Q535.14923 349.575 534.5555 349.3094Q533.97736 349.02814 533.64923 348.54376Q533.3211 348.0594 533.3211 347.4969L534.39923 347.4969Q534.4305 348.04376 534.83673 348.3719Q535.243 348.6844 535.91486 348.6844Q536.52423 348.6844 536.89923 348.4344Q537.27423 348.1844 537.27423 347.7625ZM541.0555 341.575L541.0555 343.10626L542.22736 343.10626L542.22736 343.95L541.0555 343.95L541.0555 347.8719Q541.0555 348.2625 541.21173 348.45Q541.368 348.6375 541.743 348.6375Q541.9305 348.6375 542.2586 348.575L542.2586 349.45Q541.83673 349.575 541.4305 349.575Q540.71173 349.575 540.33673 349.1375Q539.96173 348.6844 539.96173 347.8719L539.96173 343.95L538.8055 343.95L538.8055 343.10626L539.96173 343.10626L539.96173 341.575L541.0555 341.575Z" fill-rule="nonzero"/></svg>