<svg version="1.1" viewBox="0.0 0.0 600.0 371.0" fill="none" stroke="none" stroke-linecap="square" stroke-miterlimit="10" width="600" height="371" xmlns:xlink="http://www.w3.org/1999/xlink" xmlns="http://www.w3.org/2000/svg"><path fill="#ffffff" d="M0 0L600.0 0L600.0 371.0L0 371.0L0 0Z" fill-rule="nonzero"/><path stroke="#333333" stroke-width="1.0" stroke-linecap="butt" d="M55.5 331.5L581.5 331.5" fill-rule="nonzero"/><path stroke="#cccccc" stroke-width="1.0" stroke-linecap="butt" d="M55.5 275.5L581.5 275.5" fill-rule="nonzero"/><path stroke="#cccccc" stroke-width="1.0" stroke-linecap="butt" d="M55.5 220.5L581.5 220.5" fill-rule="nonzero"/><path stroke="#cccccc" stroke-width="1.0" stroke-linecap="butt" d="M55.5 164.5L581.5 164.5" fill-rule="nonzero"/><path stroke="#cccccc" stroke-width="1.0" stroke-linecap="butt" d="M55.5 109.5L581.5 109.5" fill-rule="nonzero"/><path stroke="#cccccc" stroke-width="1.0" stroke-linecap="butt" d="M55.5 53.5L581.5 53.5" fill-rule="nonzero"/><clipPath id="id_0"><path d="M55.55 53.416668L581.45 53.416668L581.45 331.45L55.55 331.45L55.55 53.416668Z" clip-rule="nonzero"/></clipPath><path stroke="#000000" stroke-width="0.0" stroke-linecap="butt" stroke-opacity="0.0" clip-path="url(#id_0)" d="M112.0 331.0L97.0 331.0L97.0 330.0C97.0 329.44772 97.447716 329.0 98.0 329.0L111.0 329.0C111.552284 329.0 112.0 329.44772 112.0 330.0Z" fill-rule="nonzero"/><path fill="#4285f4" clip-path="url(#id_0)" d="M112.0 331.0L97.0 331.0L97.0 330.0C97.0 329.44772 97.447716 329.0 98.0 329.0L111.0 329.0C111.552284 329.0 112.0 329.44772 112.0 330.0Z" fill-rule="nonzero"/><path stroke="#000000" stroke-width="0.0" stroke-linecap="butt" stroke-opacity="0.0" clip-path="url(#id_0)" d="M233.0 331.0L218.0 331.0L218.0 243.0C218.0 241.89543 218.89543 241.0 220.0 241.0L231.0 241.0C232.10457 241.0 233.0 241.89543 233.0 243.0Z" fill-rule="nonzero"/><path fill="#4285f4" clip-path="url(#id_0)" d="M233.0 331.0L218.0 331.0L218.0 243.0C218.0 241.89543 218.89543 241.0 220.0 241.0L231.0 241.0C232.10457 241.0 233.0 241.89543 233.0 243.0Z" fill-rule="nonzero"/><path stroke="#000000" stroke-width="0.0" stroke-linecap="butt" stroke-opacity="0.0" clip-path="url(#id_0)" d="M354.0 331.0L339.0 331.0L339.0 193.0C339.0 191.89543 339.89542 191.0 341.0 191.0L352.0 191.0C353.10458 191.0 354.0 191.89543 354.0 193.0Z" fill-rule="nonzero"/><path fill="#4285f4" clip-path="url(#id_0)" d="M354.0 331.0L339.0 331.0L339.0 193.0C339.0 191.89543 339.89542 191.0 341.0 191.0L352.0 191.0C353.10458 191.0 354.0 191.89543 354.0 193.0Z" fill-rule="nonzero"/><path stroke="#000000" stroke-width="0.0" stroke-linecap="butt" stroke-opacity="0.0" clip-path="url(#id_0)" d="M475.0 331.0L460.0 331.0L460.0 109.0C460.0 107.89543 460.89542 107.0 462.0 107.0L473.0 107.0C474.10458 107.0 475.0 107.89543 475.0 109.0Z" fill-rule="nonzero"/><path fill="#4285f4" clip-path="url(#id_0)" d="M475.0 331.0L460.0 331.0L460.0 109.0C460.0 107.89543 460.89542 107.0 462.0 107.0L473.0 107.0C474.10458 107.0 475.0 107.89543 475.0 109.0Z" fill-rule="nonzero"/><path stroke="#000000" stroke-width="0.0" stroke-linecap="butt" stroke-opacity="0.0" clip-path="url(#id_0)" d="M128.0 331.0L113.0 331.0L113.0 328.0C113.0 326.89542 113.89543 326.0 115.0 326.0L126.0 326.0C127.10457 326.0 128.0 326.89542 128.0 328.0Z" fill-rule="nonzero"/><path fill="#db4437" clip-path="url(#id_0)" d="M128.0 331.0L113.0 331.0L113.0 328.0C113.0 326.89542 113.89543 326.0 115.0 326.0L126.0 326.0C127.10457 326.0 128.0 326.89542 128.0 328.0Z" fill-rule="nonzero"/><path stroke="#000000" stroke-width="0.0" stroke-linecap="butt" stroke-opacity="0.0" clip-path="url(#id_0)" d="M249.0 331.0L234.0 331.0L234.0 311.0C234.0 309.89542 234.89543 309.0 236.0 309.0L247.0 309.0C248.10457 309.0 249.0 309.89542 249.0 311.0Z" fill-rule="nonzero"/><path fill="#db4437" clip-path="url(#id_0)" d="M249.0 331.0L234.0 331.0L234.0 311.0C234.0 309.89542 234.89543 309.0 236.0 309.0L247.0 309.0C248.10457 309.0 249.0 309.89542 249.0 311.0Z" fill-rule="nonzero"/><path stroke="#000000" stroke-width="0.0" stroke-linecap="butt" stroke-opacity="0.0" clip-path="url(#id_0)" d="M370.0 331.0L355.0 331.0L355.0 292.0C355.0 290.89542 355.89542 290.0 357.0 290.0L368.0 290.0C369.10458 290.0 370.0 290.89542 370.0 292.0Z" fill-rule="nonzero"/><path fill="#db4437" clip-path="url(#id_0)" d="M370.0 331.0L355.0 331.0L355.0 292.0C355.0 290.89542 355.89542 290.0 357.0 290.0L368.0 290.0C369.10458 290.0 370.0 290.89542 370.0 292.0Z" fill-rule="nonzero"/><path stroke="#000000" stroke-width="0.0" stroke-linecap="butt" stroke-opacity="0.0" clip-path="url(#id_0)" d="M491.0 331.0L476.0 331.0L476.0 252.0C476.0 250.89543 476.89542 250.0 478.0 250.0L489.0 250.0C490.10458 250.0 491.0 250.89543 491.0 252.0Z" fill-rule="nonzero"/><path fill="#db4437" clip-path="url(#id_0)" d="M491.0 331.0L476.0 331.0L476.0 252.0C476.0 250.89543 476.89542 250.0 478.0 250.0L489.0 250.0C490.10458 250.0 491.0 250.89543 491.0 252.0Z" fill-rule="nonzero"/><path stroke="#000000" stroke-width="0.0" stroke-linecap="butt" stroke-opacity="0.0" clip-path="url(#id_0)" d="M144.0 331.0L129.0 331.0L129.0 330.5C129.0 330.22385 129.22386 330.0 129.5 330.0L143.5 330.0C143.77614 330.0 144.0 330.22385 144.0 330.5Z" fill-rule="nonzero"/><path fill="#f4b400" clip-path="url(#id_0)" d="M144.0 331.0L129.0 331.0L129.0 330.5C129.0 330.22385 129.22386 330.0 129.5 330.0L143.5 330.0C143.77614 330.0 144.0 330.22385 144.0 330.5Z" fill-rule="nonzero"/><path stroke="#000000" stroke-width="0.0" stroke-linecap="butt" stroke-opacity="0.0" clip-path="url(#id_0)" d="M265.0 331.0L250.0 331.0L250.0 322.0C250.0 320.89542 250.89543 320.0 252.0 320.0L263.0 320.0C264.10458 320.0 265.0 320.89542 265.0 322.0Z" fill-rule="nonzero"/><path fill="#f4b400" clip-path="url(#id_0)" d="M265.0 331.0L250.0 331.0L250.0 322.0C250.0 320.89542 250.89543 320.0 252.0 320.0L263.0 320.0C264.10458 320.0 265.0 320.89542 265.0 322.0Z" fill-rule="nonzero"/><path stroke="#000000" stroke-width="0.0" stroke-linecap="butt" stroke-opacity="0.0" clip-path="url(#id_0)" d="M386.0 331.0L371.0 331.0L371.0 318.0C371.0 316.89542 371.89542 316.0 373.0 316.0L384.0 316.0C385.10458 316.0 386.0 316.89542 386.0 318.0Z" fill-rule="nonzero"/><path fill="#f4b400" clip-path="url(#id_0)" d="M386.0 331.0L371.0 331.0L371.0 318.0C371.0 316.89542 371.89542 316.0 373.0 316.0L384.0 316.0C385.10458 316.0 386.0 316.89542 386.0 318.0Z" fill-rule="nonzero"/><path stroke="#000000" stroke-width="0.0" stroke-linecap="butt" stroke-opacity="0.0" clip-path="url(#id_0)" d="M507.0 331.0L492.0 331.0L492.0 295.0C492.0 293.89542 492.89542 293.0 494.0 293.0L505.0 293.0C506.10458 293.0 507.0 293.89542 507.0 295.0Z" fill-rule="nonzero"/><path fill="#f4b400" clip-path="url(#id_0)" d="M507.0 331.0L492.0 331.0L492.0 295.0C492.0 293.89542 492.89542 293.0 494.0 293.0L505.0 293.0C506.10458 293.0 507.0 293.89542 507.0 295.0Z" fill-rule="nonzero"/><path stroke="#000000" stroke-width="0.0" stroke-linecap="butt" stroke-opacity="0.0" clip-path="url(#id_0)" d="M160.0 331.0L145.0 331.0L145.0 330.5C145.0 330.22385 145.22386 330.0 145.5 330.0L159.5 330.0C159.77614 330.0 160.0 330.22385 160.0 330.5Z" fill-rule="nonzero"/><path fill="#0f9d58" clip-path="url(#id_0)" d="M160.0 331.0L145.0 331.0L145.0 330.5C145.0 330.22385 145.22386 330.0 145.5 330.0L159.5 330.0C159.77614 330.0 160.0 330.22385 160.0 330.5Z" fill-rule="nonzero"/><path stroke="#000000" stroke-width="0.0" stroke-linecap="butt" stroke-opacity="0.0" clip-path="url(#id_0)" d="M281.0 331.0L266.0 331.0L266.0 317.0C266.0 315.89542 266.89542 315.0 268.0 315.0L279.0 315.0C280.10458 315.0 281.0 315.89542 281.0 317.0Z" fill-rule="nonzero"/><path fill="#0f9d58" clip-path="url(#id_0)" d="M281.0 331.0L266.0 331.0L266.0 317.0C266.0 315.89542 266.89542 315.0 268.0 315.0L279.0 315.0C280.10458 315.0 281.0 315.89542 281.0 317.0Z" fill-rule="nonzero"/><path stroke="#000000" stroke-width="0.0" stroke-linecap="butt" stroke-opacity="0.0" clip-path="url(#id_0)" d="M402.0 331.0L387.0 331.0L387.0 309.0C387.0 307.89542 387.89542 307.0 389.0 307.0L400.0 307.0C401.10458 307.0 402.0 307.89542 402.0 309.0Z" fill-rule="nonzero"/><path fill="#0f9d58" clip-path="url(#id_0)" d="M402.0 331.0L387.0 331.0L387.0 309.0C387.0 307.89542 387.89542 307.0 389.0 307.0L400.0 307.0C401.10458 307.0 402.0 307.89542 402.0 309.0Z" fill-rule="nonzero"/><path stroke="#000000" stroke-width="0.0" stroke-linecap="butt" stroke-opacity="0.0" clip-path="url(#id_0)" d="M523.0 331.0L508.0 331.0L508.0 244.0C508.0 242.89543 508.89542 242.0 510.0 242.0L521.0 242.0C522.10455 242.0 523.0 242.89543 523.0 244.0Z" fill-rule="nonzero"/><path fill="#0f9d58" clip-path="url(#id_0)" d="M523.0 331.0L508.0 331.0L508.0 244.0C508.0 242.89543 508.89542 242.0 510.0 242.0L521.0 242.0C522.10455 242.0 523.0 242.89543 523.0 244.0Z" fill-rule="nonzero"/><path stroke="#000000" stroke-width="0.0" stroke-linecap="butt" stroke-opacity="0.0" clip-path="url(#id_0)" d="M176.0 331.0L161.0 331.0L161.0 331.0C161.0 331.0 161.0 331.0 161.0 331.0L176.0 331.0C176.0 331.0 176.0 331.0 176.0 331.0Z" fill-rule="nonzero"/><path fill="#ff6d00" clip-path="url(#id_0)" d="M176.0 331.0L161.0 331.0L161.0 331.0C161.0 331.0 161.0 331.0 161.0 331.0L176.0 331.0C176.0 331.0 176.0 331.0 176.0 331.0Z" fill-rule="nonzero"/><path stroke="#000000" stroke-width="0.0" stroke-linecap="butt" stroke-opacity="0.0" clip-path="url(#id_0)" d="M297.0 331.0L282.0 331.0L282.0 324.0C282.0 322.89542 282.89542 322.0 284.0 322.0L295.0 322.0C296.10458 322.0 297.0 322.89542 297.0 324.0Z" fill-rule="nonzero"/><path fill="#ff6d00" clip-path="url(#id_0)" d="M297.0 331.0L282.0 331.0L282.0 324.0C282.0 322.89542 282.89542 322.0 284.0 322.0L295.0 322.0C296.10458 322.0 297.0 322.89542 297.0 324.0Z" fill-rule="nonzero"/><path stroke="#000000" stroke-width="0.0" stroke-linecap="butt" stroke-opacity="0.0" clip-path="url(#id_0)" d="M418.0 331.0L403.0 331.0L403.0 315.0C403.0 313.89542 403.89542 313.0 405.0 313.0L416.0 313.0C417.10458 313.0 418.0 313.89542 418.0 315.0Z" fill-rule="nonzero"/><path fill="#ff6d00" clip-path="url(#id_0)" d="M418.0 331.0L403.0 331.0L403.0 315.0C403.0 313.89542 403.89542 313.0 405.0 313.0L416.0 313.0C417.10458 313.0 418.0 313.89542 418.0 315.0Z" fill-rule="nonzero"/><path stroke="#000000" stroke-width="0.0" stroke-linecap="butt" stroke-opacity="0.0" clip-path="url(#id_0)" d="M539.0 331.0L524.0 331.0L524.0 306.0C524.0 304.89542 524.89545 304.0 526.0 304.0L537.0 304.0C538.10455 304.0 539.0 304.89542 539.0 306.0Z" fill-rule="nonzero"/><path fill="#ff6d00" clip-path="url(#id_0)" d="M539.0 331.0L524.0 331.0L524.0 306.0C524.0 304.89542 524.89545 304.0 526.0 304.0L537.0 304.0C538.10455 304.0 539.0 304.89542 539.0 306.0Z" fill-rule="nonzero"/><path fill="#757575" d="M31.6125 332.3094Q31.6125 334.21564 30.95625 335.15314Q30.315624 336.075 28.925 336.075Q27.565624 336.075 26.909374 335.16876Q26.253124 334.2625 26.221874 332.45L26.221874 331.0125Q26.221874 329.1219 26.8625 328.21564Q27.51875 327.29376 28.909374 327.29376Q30.284374 327.29376 30.940624 328.1844Q31.596874 329.0594 31.6125 330.90314L31.6125 332.3094ZM30.51875 330.825Q30.51875 329.45 30.128124 328.825Q29.753124 328.1844 28.909374 328.1844Q28.08125 328.1844 27.690624 328.825Q27.315624 329.45 27.315624 330.7469L27.315624 332.48126Q27.315624 333.85626 27.70625 334.52814Q28.1125 335.1844 28.925 335.1844Q29.721874 335.1844 30.1125 334.5594Q30.503124 333.9344 30.51875 332.60626L30.51875 330.825ZM34.39375 329.60626L34.425 330.3094Q35.1125 329.4969 36.3 329.4969Q37.628124 329.4969 38.1125 330.5125Q38.425 330.0594 38.925 329.77814Q39.440624 329.4969 40.128124 329.4969Q42.221874 329.4969 42.253124 331.7L42.253124 335.95L41.175 335.95L41.175 331.7625Q41.175 331.09064 40.8625 330.7625Q40.55 330.41876 39.815624 330.41876Q39.20625 330.41876 38.8 330.77814Q38.409374 331.1375 38.346874 331.7469L38.346874 335.95L37.26875 335.95L37.26875 331.79376Q37.26875 330.41876 35.909374 330.41876Q34.846874 330.41876 34.45625 331.325L34.45625 335.95L33.3625 335.95L33.3625 329.60626L34.39375 329.60626ZM48.065624 334.2625Q48.065624 333.825 47.721874 333.59064Q47.39375 333.34064 46.565624 333.16876Q45.753124 332.9969 45.26875 332.7469Q44.784374 332.4969 44.55 332.16876Q44.33125 331.825 44.33125 331.35626Q44.33125 330.575 44.9875 330.04376Q45.64375 329.4969 46.675 329.4969Q47.753124 329.4969 48.409374 330.0594Q49.08125 330.60626 49.08125 331.46564L48.003124 331.46564Q48.003124 331.02814 47.6125 330.71564Q47.2375 330.3875 46.675 330.3875Q46.08125 330.3875 45.7375 330.65314Q45.409374 330.90314 45.409374 331.3094Q45.409374 331.7 45.721874 331.90314Q46.034374 332.10626 46.846874 332.29376Q47.659374 332.46564 48.159374 332.71564Q48.659374 332.96564 48.89375 333.325Q49.14375 333.6844 49.14375 334.1844Q49.14375 335.04376 48.45625 335.5594Q47.784374 336.075 46.70625 336.075Q45.940624 336.075 45.346874 335.8094Q44.76875 335.52814 44.440624 335.04376Q44.1125 334.5594 44.1125 333.9969L45.190624 333.9969Q45.221874 334.54376 45.628124 334.8719Q46.034374 335.1844 46.70625 335.1844Q47.315624 335.1844 47.690624 334.9344Q48.065624 334.6844 48.065624 334.2625Z" fill-rule="nonzero"/><path fill="#757575" d="M26.753124 276.06207L27.190624 271.81207L31.565624 271.81207L31.565624 272.81207L28.1125 272.81207L27.846874 275.1402Q28.4875 274.7652 29.284374 274.7652Q30.440624 274.7652 31.128124 275.54645Q31.815624 276.31207 31.815624 277.62457Q31.815624 278.93707 31.096874 279.7027Q30.39375 280.46832 29.1125 280.46832Q27.9875 280.46832 27.26875 279.84332Q26.55 279.2027 26.45625 278.09332L27.471874 278.09332Q27.58125 278.8277 28.003124 279.2027Q28.425 279.5777 29.1125 279.5777Q29.8625 279.5777 30.3 279.06207Q30.7375 278.54645 30.7375 277.6402Q30.7375 276.78082 30.26875 276.2652Q29.8 275.74957 29.01875 275.74957Q28.315624 275.74957 27.909374 276.04645L27.628124 276.28082L26.753124 276.06207ZM34.39375 273.99957L34.425 274.7027Q35.1125 273.8902 36.3 273.8902Q37.628124 273.8902 38.1125 274.90582Q38.425 274.4527 38.925 274.17145Q39.440624 273.8902 40.128124 273.8902Q42.221874 273.8902 42.253124 276.09332L42.253124 280.34332L41.175 280.34332L41.175 276.15582Q41.175 275.48395 40.8625 275.15582Q40.55 274.81207 39.815624 274.81207Q39.20625 274.81207 38.8 275.17145Q38.409374 275.53082 38.346874 276.1402L38.346874 280.34332L37.26875 280.34332L37.26875 276.18707Q37.26875 274.81207 35.909374 274.81207Q34.846874 274.81207 34.45625 275.71832L34.45625 280.34332L33.3625 280.34332L33.3625 273.99957L34.39375 273.99957ZM48.065624 278.65582Q48.065624 278.21832 47.721874 277.98395Q47.39375 277.73395 46.565624 277.56207Q45.753124 277.3902 45.26875 277.1402Q44.784374 276.8902 44.55 276.56207Q44.33125 276.21832 44.33125 275.74957Q44.33125 274.96832 44.9875 274.43707Q45.64375 273.8902 46.675 273.8902Q47.753124 273.8902 48.409374 274.4527Q49.08125 274.99957 49.08125 275.85895L48.003124 275.85895Q48.003124 275.42145 47.6125 275.10895Q47.2375 274.78082 46.675 274.78082Q46.08125 274.78082 45.7375 275.04645Q45.409374 275.29645 45.409374 275.7027Q45.409374 276.09332 45.721874 276.29645Q46.034374 276.49957 46.846874 276.68707Q47.659374 276.85895 48.159374 277.10895Q48.659374 277.35895 48.89375 277.71832Q49.14375 278.0777 49.14375 278.5777Q49.14375 279.43707 48.45625 279.9527Q47.784374 280.46832 46.70625 280.46832Q45.940624 280.46832 45.346874 280.2027Q44.76875 279.92145 44.440624 279.43707Q44.1125 278.9527 44.1125 278.3902L45.190624 278.3902Q45.221874 278.93707 45.628124 279.2652Q46.034374 279.5777 46.70625 279.5777Q47.315624 279.5777 47.690624 279.3277Q48.065624 279.0777 48.065624 278.65582Z" fill-rule="nonzero"/><path fill="#757575" d="M22.815624 224.73666L21.7375 224.73666L21.7375 217.51791L19.55 218.31479L19.55 217.33041L22.659374 216.15854L22.815624 216.15854L22.815624 224.73666ZM31.6125 221.09604Q31.6125 223.00229 30.95625 223.93979Q30.315624 224.86166 28.925 224.86166Q27.565624 224.86166 26.909374 223.95541Q26.253124 223.04916 26.221874 221.23666L26.221874 219.79916Q26.221874 217.90854 26.8625 217.00229Q27.51875 216.08041 28.909374 216.08041Q30.284374 216.08041 30.940624 216.97104Q31.596874 217.84604 31.6125 219.68979L31.6125 221.09604ZM30.51875 219.61166Q30.51875 218.23666 30.128124 217.61166Q29.753124 216.97104 28.909374 216.97104Q28.08125 216.97104 27.690624 217.61166Q27.315624 218.23666 27.315624 219.53354L27.315624 221.26791Q27.315624 222.64291 27.70625 223.31479Q28.1125 223.97104 28.925 223.97104Q29.721874 223.97104 30.1125 223.34604Q30.503124 222.72104 30.51875 221.39291L30.51875 219.61166ZM34.39375 218.39291L34.425 219.09604Q35.1125 218.28354 36.3 218.28354Q37.628124 218.28354 38.1125 219.29916Q38.425 218.84604 38.925 218.56479Q39.440624 218.28354 40.128124 218.28354Q42.221874 218.28354 42.253124 220.48666L42.253124 224.73666L41.175 224.73666L41.175 220.54916Q41.175 219.87729 40.8625 219.54916Q40.55 219.20541 39.815624 219.20541Q39.20625 219.20541 38.8 219.56479Q38.409374 219.92416 38.346874 220.53354L38.346874 224.73666L37.26875 224.73666L37.26875 220.58041Q37.26875 219.20541 35.909374 219.20541Q34.846874 219.20541 34.45625 220.11166L34.45625 224.73666L33.3625 224.73666L33.3625 218.39291L34.39375 218.39291ZM48.065624 223.04916Q48.065624 222.61166 47.721874 222.37729Q47.39375 222.12729 46.565624 221.95541Q45.753124 221.78354 45.26875 221.53354Q44.784374 221.28354 44.55 220.95541Q44.33125 220.61166 44.33125 220.14291Q44.33125 219.36166 44.9875 218.83041Q45.64375 218.28354 46.675 218.28354Q47.753124 218.28354 48.409374 218.84604Q49.08125 219.39291 49.08125 220.25229L48.003124 220.25229Q48.003124 219.81479 47.6125 219.50229Q47.2375 219.17416 46.675 219.17416Q46.08125 219.17416 45.7375 219.43979Q45.409374 219.68979 45.409374 220.09604Q45.409374 220.48666 45.721874 220.68979Q46.034374 220.89291 46.846874 221.08041Q47.659374 221.25229 48.159374 221.50229Q48.659374 221.75229 48.89375 222.11166Q49.14375 222.47104 49.14375 222.97104Q49.14375 223.83041 48.45625 224.34604Q47.784374 224.86166 46.70625 224.86166Q45.940624 224.86166 45.346874 224.59604Q44.76875 224.31479 44.440624 223.83041Q44.1125 223.34604 44.1125 222.78354L45.190624 222.78354Q45.221874 223.33041 45.628124 223.65854Q46.034374 223.97104 46.70625 223.97104Q47.315624 223.97104 47.690624 223.72104Q48.065624 223.47104 48.065624 223.04916Z" fill-rule="nonzero"/><path fill="#757575" d="M22.815624 169.13L21.7375 169.13L21.7375 161.91125L19.55 162.70813L19.55 161.72375L22.659374 160.55188L22.815624 160.55188L22.815624 169.13ZM26.753124 164.84875L27.190624 160.59875L31.565624 160.59875L31.565624 161.59875L28.1125 161.59875L27.846874 163.92688Q28.4875 163.55188 29.284374 163.55188Q30.440624 163.55188 31.128124 164.33313Q31.815624 165.09875 31.815624 166.41125Q31.815624 167.72375 31.096874 168.48938Q30.39375 169.255 29.1125 169.255Q27.9875 169.255 27.26875 168.63Q26.55 167.98938 26.45625 166.88L27.471874 166.88Q27.58125 167.61438 28.003124 167.98938Q28.425 168.36438 29.1125 168.36438Q29.8625 168.36438 30.3 167.84875Q30.7375 167.33313 30.7375 166.42688Q30.7375 165.5675 30.26875 165.05188Q29.8 164.53625 29.01875 164.53625Q28.315624 164.53625 27.909374 164.83313L27.628124 165.0675L26.753124 164.84875ZM34.39375 162.78625L34.425 163.48938Q35.1125 162.67688 36.3 162.67688Q37.628124 162.67688 38.1125 163.6925Q38.425 163.23938 38.925 162.95813Q39.440624 162.67688 40.128124 162.67688Q42.221874 162.67688 42.253124 164.88L42.253124 169.13L41.175 169.13L41.175 164.9425Q41.175 164.27063 40.8625 163.9425Q40.55 163.59875 39.815624 163.59875Q39.20625 163.59875 38.8 163.95813Q38.409374 164.3175 38.346874 164.92688L38.346874 169.13L37.26875 169.13L37.26875 164.97375Q37.26875 163.59875 35.909374 163.59875Q34.846874 163.59875 34.45625 164.505L34.45625 169.13L33.3625 169.13L33.3625 162.78625L34.39375 162.78625ZM48.065624 167.4425Q48.065624 167.005 47.721874 166.77063Q47.39375 166.52063 46.565624 166.34875Q45.753124 166.17688 45.26875 165.92688Q44.784374 165.67688 44.55 165.34875Q44.33125 165.005 44.33125 164.53625Q44.33125 163.755 44.9875 163.22375Q45.64375 162.67688 46.675 162.67688Q47.753124 162.67688 48.409374 163.23938Q49.08125 163.78625 49.08125 164.64563L48.003124 164.64563Q48.003124 164.20813 47.6125 163.89563Q47.2375 163.5675 46.675 163.5675Q46.08125 163.5675 45.7375 163.83313Q45.409374 164.08313 45.409374 164.48938Q45.409374 164.88 45.721874 165.08313Q46.034374 165.28625 46.846874 165.47375Q47.659374 165.64563 48.159374 165.89563Q48.659374 166.14563 48.89375 166.505Q49.14375 166.86438 49.14375 167.36438Q49.14375 168.22375 48.45625 168.73938Q47.784374 169.255 46.70625 169.255Q45.940624 169.255 45.346874 168.98938Q44.76875 168.70813 44.440624 168.22375Q44.1125 167.73938 44.1125 167.17688L45.190624 167.17688Q45.221874 167.72375 45.628124 168.05188Q46.034374 168.36438 46.70625 168.36438Q47.315624 168.36438 47.690624 168.11438Q48.065624 167.86438 48.065624 167.4425Z" fill-rule="nonzero"/><path fill="#757575" d="M24.846874 113.52333L19.253124 113.52333L19.253124 112.74208L22.20625 109.46083Q22.8625 108.71083 23.1125 108.257706Q23.3625 107.788956 23.3625 107.288956Q23.3625 106.61708 22.95625 106.195206Q22.565624 105.757706 21.878124 105.757706Q21.08125 105.757706 20.628124 106.226456Q20.175 106.67958 20.175 107.507706L19.096874 107.507706Q19.096874 106.320206 19.846874 105.601456Q20.6125 104.86708 21.878124 104.86708Q23.08125 104.86708 23.76875 105.49208Q24.45625 106.11708 24.45625 107.163956Q24.45625 108.413956 22.846874 110.163956L20.565624 112.632706L24.846874 112.632706L24.846874 113.52333ZM31.6125 109.882706Q31.6125 111.788956 30.95625 112.726456Q30.315624 113.64833 28.925 113.64833Q27.565624 113.64833 26.909374 112.74208Q26.253124 111.83583 26.221874 110.02333L26.221874 108.58583Q26.221874 106.695206 26.8625 105.788956Q27.51875 104.86708 28.909374 104.86708Q30.284374 104.86708 30.940624 105.757706Q31.596874 106.632706 31.6125 108.476456L31.6125 109.882706ZM30.51875 108.39833Q30.51875 107.02333 30.128124 106.39833Q29.753124 105.757706 28.909374 105.757706Q28.08125 105.757706 27.690624 106.39833Q27.315624 107.02333 27.315624 108.320206L27.315624 110.05458Q27.315624 111.42958 27.70625 112.101456Q28.1125 112.757706 28.925 112.757706Q29.721874 112.757706 30.1125 112.132706Q30.503124 111.507706 30.51875 110.17958L30.51875 108.39833ZM34.39375 107.17958L34.425 107.882706Q35.1125 107.070206 36.3 107.070206Q37.628124 107.070206 38.1125 108.08583Q38.425 107.632706 38.925 107.351456Q39.440624 107.070206 40.128124 107.070206Q42.221874 107.070206 42.253124 109.27333L42.253124 113.52333L41.175 113.52333L41.175 109.33583Q41.175 108.663956 40.8625 108.33583Q40.55 107.99208 39.815624 107.99208Q39.20625 107.99208 38.8 108.351456Q38.409374 108.71083 38.346874 109.320206L38.346874 113.52333L37.26875 113.52333L37.26875 109.36708Q37.26875 107.99208 35.909374 107.99208Q34.846874 107.99208 34.45625 108.89833L34.45625 113.52333L33.3625 113.52333L33.3625 107.17958L34.39375 107.17958ZM48.065624 111.83583Q48.065624 111.39833 47.721874 111.163956Q47.39375 110.913956 46.565624 110.74208Q45.753124 110.570206 45.26875 110.320206Q44.784374 110.070206 44.55 109.74208Q44.33125 109.39833 44.33125 108.92958Q44.33125 108.14833 44.9875 107.61708Q45.64375 107.070206 46.675 107.070206Q47.753124 107.070206 48.409374 107.632706Q49.08125 108.17958 49.08125 109.038956L48.003124 109.038956Q48.003124 108.601456 47.6125 108.288956Q47.2375 107.96083 46.675 107.96083Q46.08125 107.96083 45.7375 108.226456Q45.409374 108.476456 45.409374 108.882706Q45.409374 109.27333 45.721874 109.476456Q46.034374 109.67958 46.846874 109.86708Q47.659374 110.038956 48.159374 110.288956Q48.659374 110.538956 48.89375 110.89833Q49.14375 111.257706 49.14375 111.757706Q49.14375 112.61708 48.45625 113.132706Q47.784374 113.64833 46.70625 113.64833Q45.940624 113.64833 45.346874 113.382706Q44.76875 113.101456 44.440624 112.61708Q44.1125 112.132706 44.1125 111.570206L45.190624 111.570206Q45.221874 112.11708 45.628124 112.445206Q46.034374 112.757706 46.70625 112.757706Q47.315624 112.757706 47.690624 112.507706Q48.065624 112.257706 48.065624 111.83583Z" fill-rule="nonzero"/><path fill="#757575" d="M24.846874 57.916668L19.253124 57.916668L19.253124 57.135418L22.20625 53.854168Q22.8625 53.104168 23.1125 52.651043Q23.3625 52.182293 23.3625 51.682293Q23.3625 51.010418 22.95625 50.588543Q22.565624 50.151043 21.878124 50.151043Q21.08125 50.151043 20.628124 50.619793Q20.175 51.072918 20.175 51.901043L19.096874 51.901043Q19.096874 50.713543 19.846874 49.994793Q20.6125 49.260418 21.878124 49.260418Q23.08125 49.260418 23.76875 49.885418Q24.45625 50.510418 24.45625 51.557293Q24.45625 52.807293 22.846874 54.557293L20.565624 57.026043L24.846874 57.026043L24.846874 57.916668ZM26.753124 53.635418L27.190624 49.385418L31.565624 49.385418L31.565624 50.385418L28.1125 50.385418L27.846874 52.713543Q28.4875 52.338543 29.284374 52.338543Q30.440624 52.338543 31.128124 53.119793Q31.815624 53.885418 31.815624 55.197918Q31.815624 56.510418 31.096874 57.276043Q30.39375 58.041668 29.1125 58.041668Q27.9875 58.041668 27.26875 57.416668Q26.55 56.776043 26.45625 55.666668L27.471874 55.666668Q27.58125 56.401043 28.003124 56.776043Q28.425 57.151043 29.1125 57.151043Q29.8625 57.151043 30.3 56.635418Q30.7375 56.119793 30.7375 55.213543Q30.7375 54.354168 30.26875 53.838543Q29.8 53.322918 29.01875 53.322918Q28.315624 53.322918 27.909374 53.619793L27.628124 53.854168L26.753124 53.635418ZM34.39375 51.572918L34.425 52.276043Q35.1125 51.463543 36.3 51.463543Q37.628124 51.463543 38.1125 52.479168Q38.425 52.026043 38.925 51.744793Q39.440624 51.463543 40.128124 51.463543Q42.221874 51.463543 42.253124 53.666668L42.253124 57.916668L41.175 57.916668L41.175 53.729168Q41.175 53.057293 40.8625 52.729168Q40.55 52.385418 39.815624 52.385418Q39.20625 52.385418 38.8 52.744793Q38.409374 53.104168 38.346874 53.713543L38.346874 57.916668L37.26875 57.916668L37.26875 53.760418Q37.26875 52.385418 35.909374 52.385418Q34.846874 52.385418 34.45625 53.291668L34.45625 57.916668L33.3625 57.916668L33.3625 51.572918L34.39375 51.572918ZM48.065624 56.229168Q48.065624 55.791668 47.721874 55.557293Q47.39375 55.307293 46.565624 55.135418Q45.753124 54.963543 45.26875 54.713543Q44.784374 54.463543 44.55 54.135418Q44.33125 53.791668 44.33125 53.322918Q44.33125 52.541668 44.9875 52.010418Q45.64375 51.463543 46.675 51.463543Q47.753124 51.463543 48.409374 52.026043Q49.08125 52.572918 49.08125 53.432293L48.003124 53.432293Q48.003124 52.994793 47.6125 52.682293Q47.2375 52.354168 46.675 52.354168Q46.08125 52.354168 45.7375 52.619793Q45.409374 52.869793 45.409374 53.276043Q45.409374 53.666668 45.721874 53.869793Q46.034374 54.072918 46.846874 54.260418Q47.659374 54.432293 48.159374 54.682293Q48.659374 54.932293 48.89375 55.291668Q49.14375 55.651043 49.14375 56.151043Q49.14375 57.010418 48.45625 57.526043Q47.784374 58.041668 46.70625 58.041668Q45.940624 58.041668 45.346874 57.776043Q44.76875 57.494793 44.440624 57.010418Q44.1125 56.526043 44.1125 55.963543L45.190624 55.963543Q45.221874 56.510418 45.628124 56.838543Q46.034374 57.151043 46.70625 57.151043Q47.315624 57.151043 47.690624 56.901043Q48.065624 56.651043 48.065624 56.229168Z" fill-rule="nonzero"/><path fill="#757575" d="M99.8583 345.6844L96.26455 345.6844L96.26455 349.45L95.13955 349.45L95.13955 340.91876L100.436424 340.91876L100.436424 341.84064L96.26455 341.84064L96.26455 344.7625L99.8583 344.7625L99.8583 345.6844ZM105.88955 349.45Q105.7958 349.2625 105.7333 348.77814Q104.9833 349.575 103.936424 349.575Q102.998924 349.575 102.38955 349.04376Q101.7958 348.5125 101.7958 347.6844Q101.7958 346.7 102.5458 346.15314Q103.2958 345.60626 104.6708 345.60626L105.717674 345.60626L105.717674 345.10626Q105.717674 344.54376 105.373924 344.21564Q105.0458 343.8719 104.373924 343.8719Q103.7958 343.8719 103.405174 344.16876Q103.01455 344.45 103.01455 344.8719L101.9208 344.8719Q101.9208 344.3875 102.248924 343.95Q102.592674 343.5125 103.1708 343.2625Q103.748924 342.9969 104.436424 342.9969Q105.5458 342.9969 106.155174 343.54376Q106.780174 344.09064 106.811424 345.04376L106.811424 347.96564Q106.811424 348.84064 107.030174 349.35626L107.030174 349.45L105.88955 349.45ZM104.092674 348.6219Q104.6083 348.6219 105.061424 348.35626Q105.51455 348.09064 105.717674 347.66876L105.717674 346.3719L104.873924 346.3719Q102.873924 346.3719 102.873924 347.54376Q102.873924 348.04376 103.217674 348.34064Q103.561424 348.6219 104.092674 348.6219ZM112.6708 347.7625Q112.6708 347.325 112.32705 347.09064Q111.998924 346.84064 111.1708 346.66876Q110.3583 346.4969 109.873924 346.2469Q109.38955 345.9969 109.155174 345.66876Q108.936424 345.325 108.936424 344.85626Q108.936424 344.075 109.592674 343.54376Q110.248924 342.9969 111.280174 342.9969Q112.3583 342.9969 113.01455 343.5594Q113.686424 344.10626 113.686424 344.96564L112.6083 344.96564Q112.6083 344.52814 112.217674 344.21564Q111.842674 343.8875 111.280174 343.8875Q110.686424 343.8875 110.342674 344.15314Q110.01455 344.40314 110.01455 344.8094Q110.01455 345.2 110.32705 345.40314Q110.63955 345.60626 111.45205 345.79376Q112.26455 345.96564 112.76455 346.21564Q113.26455 346.46564 113.498924 346.825Q113.748924 347.1844 113.748924 347.6844Q113.748924 348.54376 113.061424 349.0594Q112.38955 349.575 111.311424 349.575Q110.5458 349.575 109.95205 349.3094Q109.373924 349.02814 109.0458 348.54376Q108.717674 348.0594 108.717674 347.4969L109.7958 347.4969Q109.82705 348.04376 110.2333 348.3719Q110.63955 348.6844 111.311424 348.6844Q111.9208 348.6844 112.2958 348.4344Q112.6708 348.1844 112.6708 347.7625ZM116.45205 341.575L116.45205 343.10626L117.623924 343.10626L117.623924 343.95L116.45205 343.95L116.45205 347.8719Q116.45205 348.2625 116.6083 348.45Q116.76455 348.6375 117.13955 348.6375Q117.32705 348.6375 117.655174 348.575L117.655174 349.45Q117.2333 349.575 116.82705 349.575Q116.1083 349.575 115.7333 349.1375Q115.3583 348.6844 115.3583 347.8719L115.3583 343.95L114.20205 343.95L114.20205 343.10626L115.3583 343.10626L115.3583 341.575L116.45205 341.575ZM121.6083 349.575Q120.311424 349.575 119.498924 348.73126Q118.70205 347.8719 118.70205 346.45L118.70205 346.2625Q118.70205 345.3094 119.061424 344.575Q119.4208 343.825 120.061424 343.41876Q120.717674 342.9969 121.467674 342.9969Q122.70205 342.9969 123.38955 343.8094Q124.07705 344.6219 124.07705 346.1375L124.07705 346.59064L119.780174 346.59064Q119.811424 347.52814 120.32705 348.10626Q120.8583 348.6844 121.6708 348.6844Q122.2333 348.6844 122.623924 348.45Q123.030174 348.21564 123.342674 347.825L123.998924 348.34064Q123.20205 349.575 121.6083 349.575ZM121.467674 343.8875Q120.811424 343.8875 120.3583 344.3719Q119.9208 344.84064 119.82705 345.7L122.998924 345.7L122.998924 345.6219Q122.95205 344.79376 122.5458 344.34064Q122.155174 343.8875 121.467674 343.8875ZM128.6708 347.7625Q128.6708 347.325 128.32706 347.09064Q127.998924 346.84064 127.1708 346.66876Q126.3583 346.4969 125.873924 346.2469Q125.38955 345.9969 125.155174 345.66876Q124.936424 345.325 124.936424 344.85626Q124.936424 344.075 125.592674 343.54376Q126.248924 342.9969 127.280174 342.9969Q128.3583 342.9969 129.01456 343.5594Q129.68643 344.10626 129.68643 344.96564L128.6083 344.96564Q128.6083 344.52814 128.21768 344.21564Q127.842674 343.8875 127.280174 343.8875Q126.686424 343.8875 126.342674 344.15314Q126.01455 344.40314 126.01455 344.8094Q126.01455 345.2 126.32705 345.40314Q126.63955 345.60626 127.45205 345.79376Q128.26456 345.96564 128.76456 346.21564Q129.26456 346.46564 129.49893 346.825Q129.74893 347.1844 129.74893 347.6844Q129.74893 348.54376 129.06143 349.0594Q128.38956 349.575 127.311424 349.575Q126.5458 349.575 125.95205 349.3094Q125.373924 349.02814 125.0458 348.54376Q124.717674 348.0594 124.717674 347.4969L125.7958 347.4969Q125.82705 348.04376 126.2333 348.3719Q126.63955 348.6844 127.311424 348.6844Q127.9208 348.6844 128.2958 348.4344Q128.6708 348.1844 128.6708 347.7625ZM132.45206 341.575L132.45206 343.10626L133.62393 343.10626L133.62393 343.95L132.45206 343.95L132.45206 347.8719Q132.45206 348.2625 132.6083 348.45Q132.76456 348.6375 133.13956 348.6375Q133.32706 348.6375 133.65518 348.575L133.65518 349.45Q133.2333 349.575 132.82706 349.575Q132.1083 349.575 131.7333 349.1375Q131.3583 348.6844 131.3583 347.8719L131.3583 343.95L130.20206 343.95L130.20206 343.10626L131.3583 343.10626L131.3583 341.575L132.45206 341.575ZM141.28018 345.9969L139.26456 345.9969L139.26456 349.45L138.13956 349.45L138.13956 340.91876L140.96768 340.91876Q142.40518 340.91876 143.1708 341.575Q143.95206 342.23126 143.95206 343.48126Q143.95206 344.27814 143.51456 344.8719Q143.09268 345.46564 142.32706 345.7625L144.32706 349.3719L144.32706 349.45L143.12393 349.45L141.28018 345.9969ZM139.26456 345.075L140.99893 345.075Q141.84268 345.075 142.32706 344.65314Q142.82706 344.21564 142.82706 343.48126Q142.82706 342.7 142.3583 342.27814Q141.88956 341.85626 140.99893 341.84064L139.26456 341.84064L139.26456 345.075ZM147.6083 349.575Q146.31143 349.575 145.49893 348.73126Q144.70206 347.8719 144.70206 346.45L144.70206 346.2625Q144.70206 345.3094 145.06143 344.575Q145.4208 343.825 146.06143 343.41876Q146.71768 342.9969 147.46768 342.9969Q148.70206 342.9969 149.38956 343.8094Q150.07706 344.6219 150.07706 346.1375L150.07706 346.59064L145.78018 346.59064Q145.81143 347.52814 146.32706 348.10626Q146.8583 348.6844 147.6708 348.6844Q148.2333 348.6844 148.62393 348.45Q149.03018 348.21564 149.34268 347.825L149.99893 348.34064Q149.20206 349.575 147.6083 349.575ZM147.46768 343.8875Q146.81143 343.8875 146.3583 344.3719Q145.9208 344.84064 145.82706 345.7L148.99893 345.7L148.99893 345.6219Q148.95206 344.79376 148.5458 344.34064Q148.15518 343.8875 147.46768 343.8875ZM150.71768 346.23126Q150.71768 344.73126 151.38956 343.8719Q152.07706 342.9969 153.2333 342.9969Q154.3583 342.9969 155.01456 343.7469L155.06143 343.10626L156.06143 343.10626L156.06143 351.8875L154.96768 351.8875L154.96768 348.85626Q154.31143 349.575 153.2333 349.575Q152.07706 349.575 151.38956 348.6844Q150.71768 347.77814 150.71768 346.3094L150.71768 346.23126ZM151.7958 346.35626Q151.7958 347.4344 152.24893 348.0594Q152.71768 348.6844 153.49893 348.6844Q154.46768 348.6844 154.96768 347.825L154.96768 344.71564Q154.45206 343.8875 153.51456 343.8875Q152.71768 343.8875 152.24893 344.5125Q151.7958 345.1375 151.7958 346.35626ZM161.88956 348.825Q161.26456 349.575 160.03018 349.575Q159.01456 349.575 158.4833 348.98126Q157.95206 348.3875 157.95206 347.23126L157.95206 343.10626L159.03018 343.10626L159.03018 347.2Q159.03018 348.65314 160.20206 348.65314Q161.45206 348.65314 161.8583 347.71564L161.8583 343.10626L162.95206 343.10626L162.95206 349.45L161.9208 349.45L161.88956 348.825ZM167.6083 349.575Q166.31143 349.575 165.49893 348.73126Q164.70206 347.8719 164.70206 346.45L164.70206 346.2625Q164.70206 345.3094 165.06143 344.575Q165.4208 343.825 166.06143 343.41876Q166.71768 342.9969 167.46768 342.9969Q168.70206 342.9969 169.38956 343.8094Q170.07706 344.6219 170.07706 346.1375L170.07706 346.59064L165.78018 346.59064Q165.81143 347.52814 166.32706 348.10626Q166.8583 348.6844 167.6708 348.6844Q168.2333 348.6844 168.62393 348.45Q169.03018 348.21564 169.34268 347.825L169.99893 348.34064Q169.20206 349.575 167.6083 349.575ZM167.46768 343.8875Q166.81143 343.8875 166.3583 344.3719Q165.9208 344.84064 165.82706 345.7L168.99893 345.7L168.99893 345.6219Q168.95206 344.79376 168.5458 344.34064Q168.15518 343.8875 167.46768 343.8875ZM174.6708 347.7625Q174.6708 347.325 174.32706 347.09064Q173.99893 346.84064 173.1708 346.66876Q172.3583 346.4969 171.87393 346.2469Q171.38956 345.9969 171.15518 345.66876Q170.93643 345.325 170.93643 344.85626Q170.93643 344.075 171.59268 343.54376Q172.24893 342.9969 173.28018 342.9969Q174.3583 342.9969 175.01456 343.5594Q175.68643 344.10626 175.68643 344.96564L174.6083 344.96564Q174.6083 344.52814 174.21768 344.21564Q173.84268 343.8875 173.28018 343.8875Q172.68643 343.8875 172.34268 344.15314Q172.01456 344.40314 172.01456 344.8094Q172.01456 345.2 172.32706 345.40314Q172.63956 345.60626 173.45206 345.79376Q174.26456 345.96564 174.76456 346.21564Q175.26456 346.46564 175.49893 346.825Q175.74893 347.1844 175.74893 347.6844Q175.74893 348.54376 175.06143 349.0594Q174.38956 349.575 173.31143 349.575Q172.5458 349.575 171.95206 349.3094Q171.37393 349.02814 171.0458 348.54376Q170.71768 348.0594 170.71768 347.4969L171.7958 347.4969Q171.82706 348.04376 172.2333 348.3719Q172.63956 348.6844 173.31143 348.6844Q173.9208 348.6844 174.2958 348.4344Q174.6708 348.1844 174.6708 347.7625ZM178.45206 341.575L178.45206 343.10626L179.62393 343.10626L179.62393 343.95L178.45206 343.95L178.45206 347.8719Q178.45206 348.2625 178.6083 348.45Q178.76456 348.6375 179.13956 348.6375Q179.32706 348.6375 179.65518 348.575L179.65518 349.45Q179.2333 349.575 178.82706 349.575Q178.1083 349.575 177.7333 349.1375Q177.3583 348.6844 177.3583 347.8719L177.3583 343.95L176.20206 343.95L176.20206 343.10626L177.3583 343.10626L177.3583 341.575L178.45206 341.575Z" fill-rule="nonzero"/><path fill="#757575" d="M217.48923 340.91876L220.2861 347.8719L223.06735 340.91876L224.5361 340.91876L224.5361 349.45L223.4111 349.45L223.4111 346.1219L223.52048 342.54376L220.70798 349.45L219.8486 349.45L217.05173 342.5594L217.1611 346.1219L217.1611 349.45L216.0361 349.45L216.0361 340.91876L217.48923 340.91876ZM228.50485 349.575Q227.20798 349.575 226.39548 348.73126Q225.5986 347.8719 225.5986 346.45L225.5986 346.2625Q225.5986 345.3094 225.95798 344.575Q226.31735 343.825 226.95798 343.41876Q227.61423 342.9969 228.36423 342.9969Q229.5986 342.9969 230.2861 343.8094Q230.9736 344.6219 230.9736 346.1375L230.9736 346.59064L226.67673 346.59064Q226.70798 347.52814 227.2236 348.10626Q227.75485 348.6844 228.56735 348.6844Q229.12985 348.6844 229.52048 348.45Q229.92673 348.21564 230.23923 347.825L230.89548 348.34064Q230.0986 349.575 228.50485 349.575ZM228.36423 343.8875Q227.70798 343.8875 227.25485 344.3719Q226.81735 344.84064 226.7236 345.7L229.89548 345.7L229.89548 345.6219Q229.8486 344.79376 229.44235 344.34064Q229.05173 343.8875 228.36423 343.8875ZM231.61423 346.23126Q231.61423 344.7625 232.30173 343.8875Q232.98923 342.9969 234.11423 342.9969Q235.2236 342.9969 235.87985 343.7469L235.87985 340.45L236.95798 340.45L236.95798 349.45L235.95798 349.45L235.9111 348.7625Q235.25485 349.575 234.0986 349.575Q233.00485 349.575 232.30173 348.66876Q231.61423 347.7625 231.61423 346.3094L231.61423 346.23126ZM232.69235 346.35626Q232.69235 347.4344 233.12985 348.04376Q233.58298 348.65314 234.36423 348.65314Q235.39548 348.65314 235.87985 347.71564L235.87985 344.8094Q235.39548 343.91876 234.37985 343.91876Q233.58298 343.91876 233.12985 344.52814Q232.69235 345.1375 232.69235 346.35626ZM240.05173 349.45L238.9736 349.45L238.9736 343.10626L240.05173 343.10626L240.05173 349.45ZM238.87985 341.4344Q238.87985 341.16876 239.0361 340.98126Q239.20798 340.79376 239.52048 340.79376Q239.83298 340.79376 239.98923 340.98126Q240.1611 341.16876 240.1611 341.4344Q240.1611 341.6844 239.98923 341.8719Q239.83298 342.04376 239.52048 342.04376Q239.20798 342.04376 239.0361 341.8719Q238.87985 341.6844 238.87985 341.4344ZM245.7861 349.45Q245.69235 349.2625 245.62985 348.77814Q244.87985 349.575 243.83298 349.575Q242.89548 349.575 242.2861 349.04376Q241.69235 348.5125 241.69235 347.6844Q241.69235 346.7 242.44235 346.15314Q243.19235 345.60626 244.56735 345.60626L245.61423 345.60626L245.61423 345.10626Q245.61423 344.54376 245.27048 344.21564Q244.94235 343.8719 244.27048 343.8719Q243.69235 343.8719 243.30173 344.16876Q242.9111 344.45 242.9111 344.8719L241.81735 344.8719Q241.81735 344.3875 242.14548 343.95Q242.48923 343.5125 243.06735 343.2625Q243.64548 342.9969 244.33298 342.9969Q245.44235 342.9969 246.05173 343.54376Q246.67673 344.09064 246.70798 345.04376L246.70798 347.96564Q246.70798 348.84064 246.92673 349.35626L246.92673 349.45L245.7861 349.45ZM243.98923 348.6219Q244.50485 348.6219 244.95798 348.35626Q245.4111 348.09064 245.61423 347.66876L245.61423 346.3719L244.77048 346.3719Q242.77048 346.3719 242.77048 347.54376Q242.77048 348.04376 243.11423 348.34064Q243.45798 348.6219 243.98923 348.6219ZM249.89548 343.10626L249.92673 343.90314Q250.6611 342.9969 251.83298 342.9969Q253.8486 342.9969 253.86423 345.2625L253.86423 349.45L252.77048 349.45L252.77048 345.2469Q252.77048 344.575 252.45798 344.2469Q252.1611 343.91876 251.50485 343.91876Q250.9736 343.91876 250.56735 344.2Q250.17673 344.48126 249.95798 344.9344L249.95798 349.45L248.87985 349.45L248.87985 343.10626L249.89548 343.10626ZM262.17673 345.9969L260.1611 345.9969L260.1611 349.45L259.0361 349.45L259.0361 340.91876L261.86423 340.91876Q263.30173 340.91876 264.06735 341.575Q264.8486 342.23126 264.8486 343.48126Q264.8486 344.27814 264.4111 344.8719Q263.98923 345.46564 263.2236 345.7625L265.2236 349.3719L265.2236 349.45L264.02048 349.45L262.17673 345.9969ZM260.1611 345.075L261.89548 345.075Q262.73923 345.075 263.2236 344.65314Q263.7236 344.21564 263.7236 343.48126Q263.7236 342.7 263.25485 342.27814Q262.7861 341.85626 261.89548 341.84064L260.1611 341.84064L260.1611 345.075ZM268.50485 349.575Q267.20798 349.575 266.39548 348.73126Q265.5986 347.8719 265.5986 346.45L265.5986 346.2625Q265.5986 345.3094 265.95798 344.575Q266.31735 343.825 266.95798 343.41876Q267.61423 342.9969 268.36423 342.9969Q269.5986 342.9969 270.2861 343.8094Q270.9736 344.6219 270.9736 346.1375L270.9736 346.59064L266.67673 346.59064Q266.70798 347.52814 267.2236 348.10626Q267.75485 348.6844 268.56735 348.6844Q269.12985 348.6844 269.52048 348.45Q269.92673 348.21564 270.23923 347.825L270.89548 348.34064Q270.0986 349.575 268.50485 349.575ZM268.36423 343.8875Q267.70798 343.8875 267.25485 344.3719Q266.81735 344.84064 266.7236 345.7L269.89548 345.7L269.89548 345.6219Q269.8486 344.79376 269.44235 344.34064Q269.05173 343.8875 268.36423 343.8875ZM271.61423 346.23126Q271.61423 344.73126 272.2861 343.8719Q272.9736 342.9969 274.12985 342.9969Q275.25485 342.9969 275.9111 343.7469L275.95798 343.10626L276.95798 343.10626L276.95798 351.8875L275.86423 351.8875L275.86423 348.85626Q275.20798 349.575 274.12985 349.575Q272.9736 349.575 272.2861 348.6844Q271.61423 347.77814 271.61423 346.3094L271.61423 346.23126ZM272.69235 346.35626Q272.69235 347.4344 273.14548 348.0594Q273.61423 348.6844 274.39548 348.6844Q275.36423 348.6844 275.86423 347.825L275.86423 344.71564Q275.3486 343.8875 274.4111 343.8875Q273.61423 343.8875 273.14548 344.5125Q272.69235 345.1375 272.69235 346.35626ZM282.7861 348.825Q282.1611 349.575 280.92673 349.575Q279.9111 349.575 279.37985 348.98126Q278.8486 348.3875 278.8486 347.23126L278.8486 343.10626L279.92673 343.10626L279.92673 347.2Q279.92673 348.65314 281.0986 348.65314Q282.3486 348.65314 282.75485 347.71564L282.75485 343.10626L283.8486 343.10626L283.8486 349.45L282.81735 349.45L282.7861 348.825ZM288.50485 349.575Q287.20798 349.575 286.39548 348.73126Q285.5986 347.8719 285.5986 346.45L285.5986 346.2625Q285.5986 345.3094 285.95798 344.575Q286.31735 343.825 286.95798 343.41876Q287.61423 342.9969 288.36423 342.9969Q289.5986 342.9969 290.2861 343.8094Q290.9736 344.6219 290.9736 346.1375L290.9736 346.59064L286.67673 346.59064Q286.70798 347.52814 287.2236 348.10626Q287.75485 348.6844 288.56735 348.6844Q289.12985 348.6844 289.52048 348.45Q289.92673 348.21564 290.23923 347.825L290.89548 348.34064Q290.0986 349.575 288.50485 349.575ZM288.36423 343.8875Q287.70798 343.8875 287.25485 344.3719Q286.81735 344.84064 286.7236 345.7L289.89548 345.7L289.89548 345.6219Q289.8486 344.79376 289.44235 344.34064Q289.05173 343.8875 288.36423 343.8875ZM295.56735 347.7625Q295.56735 347.325 295.2236 347.09064Q294.89548 346.84064 294.06735 346.66876Q293.25485 346.4969 292.77048 346.2469Q292.2861 345.9969 292.05173 345.66876Q291.83298 345.325 291.83298 344.85626Q291.83298 344.075 292.48923 343.54376Q293.14548 342.9969 294.17673 342.9969Q295.25485 342.9969 295.9111 343.5594Q296.58298 344.10626 296.58298 344.96564L295.50485 344.96564Q295.50485 344.52814 295.11423 344.21564Q294.73923 343.8875 294.17673 343.8875Q293.58298 343.8875 293.23923 344.15314Q292.9111 344.40314 292.9111 344.8094Q292.9111 345.2 293.2236 345.40314Q293.5361 345.60626 294.3486 345.79376Q295.1611 345.96564 295.6611 346.21564Q296.1611 346.46564 296.39548 346.825Q296.64548 347.1844 296.64548 347.6844Q296.64548 348.54376 295.95798 349.0594Q295.2861 349.575 294.20798 349.575Q293.44235 349.575 292.8486 349.3094Q292.27048 349.02814 291.94235 348.54376Q291.61423 348.0594 291.61423 347.4969L292.69235 347.4969Q292.7236 348.04376 293.12985 348.3719Q293.5361 348.6844 294.20798 348.6844Q294.81735 348.6844 295.19235 348.4344Q295.56735 348.1844 295.56735 347.7625ZM299.3486 341.575L299.3486 343.10626L300.52048 343.10626L300.52048 343.95L299.3486 343.95L299.3486 347.8719Q299.3486 348.2625 299.50485 348.45Q299.6611 348.6375 300.0361 348.6375Q300.2236 348.6375 300.55173 348.575L300.55173 349.45Q300.12985 349.575 299.7236 349.575Q299.00485 349.575 298.62985 349.1375Q298.25485 348.6844 298.25485 347.8719L298.25485 343.95L297.0986 343.95L297.0986 343.10626L298.25485 343.10626L298.25485 341.575L299.3486 341.575Z" fill-rule="nonzero"/><path fill="#757575" d="M343.30765 345.7Q342.97952 346.10626 342.49515 346.35626Q342.0264 346.59064 341.4639 346.59064Q340.72952 346.59064 340.18265 346.23126Q339.63577 345.8719 339.3389 345.21564Q339.04202 344.54376 339.04202 343.7469Q339.04202 342.90314 339.35452 342.21564Q339.68265 341.52814 340.2764 341.16876Q340.88577 340.79376 341.68265 340.79376Q342.94827 340.79376 343.66702 341.7469Q344.4014 342.7 344.4014 344.325L344.4014 344.6375Q344.4014 347.1375 343.41702 348.27814Q342.43265 349.41876 340.44827 349.45L340.22952 349.45L340.22952 348.54376L340.4639 348.54376Q341.80765 348.5125 342.5264 347.84064Q343.24515 347.16876 343.30765 345.7ZM341.63577 345.7Q342.18265 345.7 342.63577 345.3719Q343.10452 345.02814 343.32327 344.54376L343.32327 344.10626Q343.32327 343.04376 342.85452 342.3719Q342.38577 341.7 341.68265 341.7Q340.9639 341.7 340.5264 342.2469Q340.10452 342.79376 340.10452 343.7Q340.10452 344.575 340.51077 345.1375Q340.93265 345.7 341.63577 345.7ZM351.51077 345.8094Q351.51077 347.71564 350.85452 348.65314Q350.2139 349.575 348.82327 349.575Q347.4639 349.575 346.80765 348.66876Q346.1514 347.7625 346.12015 345.95L346.12015 344.5125Q346.12015 342.6219 346.76077 341.71564Q347.41702 340.79376 348.80765 340.79376Q350.18265 340.79376 350.8389 341.6844Q351.49515 342.5594 351.51077 344.40314L351.51077 345.8094ZM350.41702 344.325Q350.41702 342.95 350.0264 342.325Q349.6514 341.6844 348.80765 341.6844Q347.97952 341.6844 347.5889 342.325Q347.2139 342.95 347.2139 344.2469L347.2139 345.98126Q347.2139 347.35626 347.60452 348.02814Q348.01077 348.6844 348.82327 348.6844Q349.62015 348.6844 350.01077 348.0594Q350.4014 347.4344 350.41702 346.10626L350.41702 344.325ZM354.74515 341.575L354.74515 343.10626L355.91702 343.10626L355.91702 343.95L354.74515 343.95L354.74515 347.8719Q354.74515 348.2625 354.9014 348.45Q355.05765 348.6375 355.43265 348.6375Q355.62015 348.6375 355.94827 348.575L355.94827 349.45Q355.5264 349.575 355.12015 349.575Q354.4014 349.575 354.0264 349.1375Q353.6514 348.6844 353.6514 347.8719L353.6514 343.95L352.49515 343.95L352.49515 343.10626L353.6514 343.10626L353.6514 341.575L354.74515 341.575ZM358.35452 343.8719Q359.07327 342.9969 360.22952 342.9969Q362.24515 342.9969 362.26077 345.2625L362.26077 349.45L361.16702 349.45L361.16702 345.2469Q361.16702 344.575 360.85452 344.2469Q360.55765 343.91876 359.9014 343.91876Q359.37015 343.91876 358.9639 344.2Q358.57327 344.48126 358.35452 344.9344L358.35452 349.45L357.2764 349.45L357.2764 340.45L358.35452 340.45L358.35452 343.8719ZM368.55765 346.10626L368.55765 349.45L367.43265 349.45L367.43265 340.91876L370.5889 340.91876Q371.97952 340.91876 372.7764 341.6375Q373.57327 342.34064 373.57327 343.52814Q373.57327 344.7625 372.79202 345.4344Q372.0264 346.10626 370.57327 346.10626L368.55765 346.10626ZM368.55765 345.1844L370.5889 345.1844Q371.49515 345.1844 371.9639 344.7625Q372.44827 344.34064 372.44827 343.54376Q372.44827 342.77814 371.9639 342.325Q371.49515 341.85626 370.6514 341.84064L368.55765 341.84064L368.55765 345.1844ZM377.9014 349.575Q376.60452 349.575 375.79202 348.73126Q374.99515 347.8719 374.99515 346.45L374.99515 346.2625Q374.99515 345.3094 375.35452 344.575Q375.7139 343.825 376.35452 343.41876Q377.01077 342.9969 377.76077 342.9969Q378.99515 342.9969 379.68265 343.8094Q380.37015 344.6219 380.37015 346.1375L380.37015 346.59064L376.07327 346.59064Q376.10452 347.52814 376.62015 348.10626Q377.1514 348.6844 377.9639 348.6844Q378.5264 348.6844 378.91702 348.45Q379.32327 348.21564 379.63577 347.825L380.29202 348.34064Q379.49515 349.575 377.9014 349.575ZM377.76077 343.8875Q377.10452 343.8875 376.6514 344.3719Q376.2139 344.84064 376.12015 345.7L379.29202 345.7L379.29202 345.6219Q379.24515 344.79376 378.8389 344.34064Q378.44827 343.8875 377.76077 343.8875ZM384.3389 344.075Q384.0889 344.04376 383.80765 344.04376Q382.72952 344.04376 382.35452 344.95L382.35452 349.45L381.2764 349.45L381.2764 343.10626L382.32327 343.10626L382.3389 343.84064Q382.87015 342.9969 383.85452 342.9969Q384.16702 342.9969 384.3389 343.075L384.3389 344.075ZM387.80765 348.6844Q388.38577 348.6844 388.82327 348.34064Q389.26077 347.98126 389.30765 347.45L390.3389 347.45Q390.30765 347.9969 389.94827 348.4969Q389.60452 348.98126 389.0264 349.27814Q388.4639 349.575 387.80765 349.575Q386.51077 349.575 385.74515 348.71564Q384.99515 347.84064 384.99515 346.34064L384.99515 346.15314Q384.99515 345.23126 385.32327 344.5125Q385.66702 343.79376 386.29202 343.40314Q386.93265 342.9969 387.80765 342.9969Q388.87015 342.9969 389.57327 343.6375Q390.29202 344.2625 390.3389 345.29376L389.30765 345.29376Q389.26077 344.66876 388.8389 344.27814Q388.41702 343.8875 387.80765 343.8875Q386.97952 343.8875 386.5264 344.48126Q386.07327 345.075 386.07327 346.2L386.07327 346.40314Q386.07327 347.4969 386.5264 348.09064Q386.97952 348.6844 387.80765 348.6844ZM393.9014 349.575Q392.60452 349.575 391.79202 348.73126Q390.99515 347.8719 390.99515 346.45L390.99515 346.2625Q390.99515 345.3094 391.35452 344.575Q391.7139 343.825 392.35452 343.41876Q393.01077 342.9969 393.76077 342.9969Q394.99515 342.9969 395.68265 343.8094Q396.37015 344.6219 396.37015 346.1375L396.37015 346.59064L392.07327 346.59064Q392.10452 347.52814 392.62015 348.10626Q393.1514 348.6844 393.9639 348.6844Q394.5264 348.6844 394.91702 348.45Q395.32327 348.21564 395.63577 347.825L396.29202 348.34064Q395.49515 349.575 393.9014 349.575ZM393.76077 343.8875Q393.10452 343.8875 392.6514 344.3719Q392.2139 344.84064 392.12015 345.7L395.29202 345.7L395.29202 345.6219Q395.24515 344.79376 394.8389 344.34064Q394.44827 343.8875 393.76077 343.8875ZM398.29202 343.10626L398.32327 343.90314Q399.05765 342.9969 400.22952 342.9969Q402.24515 342.9969 402.26077 345.2625L402.26077 349.45L401.16702 349.45L401.16702 345.2469Q401.16702 344.575 400.85452 344.2469Q400.55765 343.91876 399.9014 343.91876Q399.37015 343.91876 398.9639 344.2Q398.57327 344.48126 398.35452 344.9344L398.35452 349.45L397.2764 349.45L397.2764 343.10626L398.29202 343.10626ZM405.74515 341.575L405.74515 343.10626L406.91702 343.10626L406.91702 343.95L405.74515 343.95L405.74515 347.8719Q405.74515 348.2625 405.9014 348.45Q406.05765 348.6375 406.43265 348.6375Q406.62015 348.6375 406.94827 348.575L406.94827 349.45Q406.5264 349.575 406.12015 349.575Q405.4014 349.575 405.0264 349.1375Q404.6514 348.6844 404.6514 347.8719L404.6514 343.95L403.49515 343.95L403.49515 343.10626L404.6514 343.10626L404.6514 341.575L405.74515 341.575ZM409.44827 349.45L408.37015 349.45L408.37015 343.10626L409.44827 343.10626L409.44827 349.45ZM408.2764 341.4344Q408.2764 341.16876 408.43265 340.98126Q408.60452 340.79376 408.91702 340.79376Q409.22952 340.79376 409.38577 340.98126Q409.55765 341.16876 409.55765 341.4344Q409.55765 341.6844 409.38577 341.8719Q409.22952 342.04376 408.91702 342.04376Q408.60452 342.04376 408.43265 341.8719Q408.2764 341.6844 408.2764 341.4344ZM412.44827 349.45L411.37015 349.45L411.37015 340.45L412.44827 340.45L412.44827 349.45ZM416.9014 349.575Q415.60452 349.575 414.79202 348.73126Q413.99515 347.8719 413.99515 346.45L413.99515 346.2625Q413.99515 345.3094 414.35452 344.575Q414.7139 343.825 415.35452 343.41876Q416.01077 342.9969 416.76077 342.9969Q417.99515 342.9969 418.68265 343.8094Q419.37015 344.6219 419.37015 346.1375L419.37015 346.59064L415.07327 346.59064Q415.10452 347.52814 415.62015 348.10626Q416.1514 348.6844 416.9639 348.6844Q417.5264 348.6844 417.91702 348.45Q418.32327 348.21564 418.63577 347.825L419.29202 348.34064Q418.49515 349.575 416.9014 349.575ZM416.76077 343.8875Q416.10452 343.8875 415.6514 344.3719Q415.2139 344.84064 415.12015 345.7L418.29202 345.7L418.29202 345.6219Q418.24515 344.79376 417.8389 344.34064Q417.44827 343.8875 416.76077 343.8875Z" fill-rule="nonzero"/><path fill="#757575" d="M459.34482 345.65314Q457.90732 345.23126 457.23544 344.6219Q456.5792 344.0125 456.5792 343.1219Q456.5792 342.1219 457.37607 341.46564Q458.18857 340.79376 459.48544 340.79376Q460.36044 340.79376 461.04794 341.1375Q461.73544 341.48126 462.11044 342.075Q462.50107 342.66876 462.50107 343.3875L461.36044 343.3875Q461.36044 342.60626 460.86044 342.16876Q460.37607 341.73126 459.48544 341.73126Q458.65732 341.73126 458.18857 342.10626Q457.71982 342.46564 457.71982 343.10626Q457.71982 343.6375 458.15732 343.9969Q458.61044 344.35626 459.67294 344.65314Q460.73544 344.95 461.3292 345.3094Q461.93857 345.66876 462.21982 346.15314Q462.5167 346.6375 462.5167 347.27814Q462.5167 348.325 461.7042 348.95Q460.8917 349.575 459.54794 349.575Q458.65732 349.575 457.8917 349.23126Q457.1417 348.8875 456.71982 348.3094Q456.31357 347.71564 456.31357 346.98126L457.43857 346.98126Q457.43857 347.7469 458.0167 348.2Q458.59482 348.65314 459.54794 348.65314Q460.43857 348.65314 460.90732 348.29376Q461.37607 347.91876 461.37607 347.29376Q461.37607 346.66876 460.93857 346.325Q460.50107 345.98126 459.34482 345.65314ZM464.84482 349.45L463.7667 349.45L463.7667 340.45L464.84482 340.45L464.84482 349.45ZM466.37607 346.21564Q466.37607 345.29376 466.73544 344.54376Q467.11044 343.79376 467.7667 343.40314Q468.42294 342.9969 469.25107 342.9969Q470.54794 342.9969 471.34482 343.8875Q472.15732 344.77814 472.15732 346.27814L472.15732 346.35626Q472.15732 347.27814 471.79794 348.0125Q471.43857 348.7469 470.78232 349.16876Q470.12607 349.575 469.2667 349.575Q467.98544 349.575 467.17294 348.6844Q466.37607 347.77814 466.37607 346.29376L466.37607 346.21564ZM467.46982 346.35626Q467.46982 347.40314 467.9542 348.04376Q468.4542 348.6844 469.2667 348.6844Q470.09482 348.6844 470.5792 348.04376Q471.06357 347.3875 471.06357 346.21564Q471.06357 345.1844 470.56357 344.54376Q470.0792 343.8875 469.25107 343.8875Q468.4542 343.8875 467.9542 344.52814Q467.46982 345.15314 467.46982 346.35626ZM479.28232 347.95L480.50107 343.10626L481.5792 343.10626L479.73544 349.45L478.86044 349.45L477.31357 344.6375L475.81357 349.45L474.93857 349.45L473.09482 343.10626L474.17294 343.10626L475.42294 347.85626L476.90732 343.10626L477.7667 343.10626L479.28232 347.95ZM485.29794 349.575Q484.00107 349.575 483.18857 348.73126Q482.3917 347.8719 482.3917 346.45L482.3917 346.2625Q482.3917 345.3094 482.75107 344.575Q483.11044 343.825 483.75107 343.41876Q484.40732 342.9969 485.15732 342.9969Q486.3917 342.9969 487.0792 343.8094Q487.7667 344.6219 487.7667 346.1375L487.7667 346.59064L483.46982 346.59064Q483.50107 347.52814 484.0167 348.10626Q484.54794 348.6844 485.36044 348.6844Q485.92294 348.6844 486.31357 348.45Q486.71982 348.21564 487.03232 347.825L487.68857 348.34064Q486.8917 349.575 485.29794 349.575ZM485.15732 343.8875Q484.50107 343.8875 484.04794 344.3719Q483.61044 344.84064 483.5167 345.7L486.68857 345.7L486.68857 345.6219Q486.6417 344.79376 486.23544 344.34064Q485.84482 343.8875 485.15732 343.8875ZM492.36044 347.7625Q492.36044 347.325 492.0167 347.09064Q491.68857 346.84064 490.86044 346.66876Q490.04794 346.4969 489.56357 346.2469Q489.0792 345.9969 488.84482 345.66876Q488.62607 345.325 488.62607 344.85626Q488.62607 344.075 489.28232 343.54376Q489.93857 342.9969 490.96982 342.9969Q492.04794 342.9969 492.7042 343.5594Q493.37607 344.10626 493.37607 344.96564L492.29794 344.96564Q492.29794 344.52814 491.90732 344.21564Q491.53232 343.8875 490.96982 343.8875Q490.37607 343.8875 490.03232 344.15314Q489.7042 344.40314 489.7042 344.8094Q489.7042 345.2 490.0167 345.40314Q490.3292 345.60626 491.1417 345.79376Q491.9542 345.96564 492.4542 346.21564Q492.9542 346.46564 493.18857 346.825Q493.43857 347.1844 493.43857 347.6844Q493.43857 348.54376 492.75107 349.0594Q492.0792 349.575 491.00107 349.575Q490.23544 349.575 489.6417 349.3094Q489.06357 349.02814 488.73544 348.54376Q488.40732 348.0594 488.40732 347.4969L489.48544 347.4969Q489.5167 348.04376 489.92294 348.3719Q490.3292 348.6844 491.00107 348.6844Q491.61044 348.6844 491.98544 348.4344Q492.36044 348.1844 492.36044 347.7625ZM496.1417 341.575L496.1417 343.10626L497.31357 343.10626L497.31357 343.95L496.1417 343.95L496.1417 347.8719Q496.1417 348.2625 496.29794 348.45Q496.4542 348.6375 496.8292 348.6375Q497.0167 348.6375 497.34482 348.575L497.34482 349.45Q496.92294 349.575 496.5167 349.575Q495.79794 349.575 495.42294 349.1375Q495.04794 348.6844 495.04794 347.8719L495.04794 343.95L493.8917 343.95L493.8917 343.10626L495.04794 343.10626L495.04794 341.575L496.1417 341.575ZM504.96982 345.9969L502.9542 345.9969L502.9542 349.45L501.8292 349.45L501.8292 340.91876L504.65732 340.91876Q506.09482 340.91876 506.86044 341.575Q507.6417 342.23126 507.6417 343.48126Q507.6417 344.27814 507.2042 344.8719Q506.78232 345.46564 506.0167 345.7625L508.0167 349.3719L508.0167 349.45L506.81357 349.45L504.96982 345.9969ZM502.9542 345.075L504.68857 345.075Q505.53232 345.075 506.0167 344.65314Q506.5167 344.21564 506.5167 343.48126Q506.5167 342.7 506.04794 342.27814Q505.5792 341.85626 504.68857 341.84064L502.9542 341.84064L502.9542 345.075ZM511.29794 349.575Q510.00107 349.575 509.18857 348.73126Q508.3917 347.8719 508.3917 346.45L508.3917 346.2625Q508.3917 345.3094 508.75107 344.575Q509.11044 343.825 509.75107 343.41876Q510.40732 342.9969 511.15732 342.9969Q512.3917 342.9969 513.0792 343.8094Q513.7667 344.6219 513.7667 346.1375L513.7667 346.59064L509.46982 346.59064Q509.50107 347.52814 510.0167 348.10626Q510.54794 348.6844 511.36044 348.6844Q511.92294 348.6844 512.3136 348.45Q512.71985 348.21564 513.03235 347.825L513.6886 348.34064Q512.8917 349.575 511.29794 349.575ZM511.15732 343.8875Q510.50107 343.8875 510.04794 344.3719Q509.61044 344.84064 509.5167 345.7L512.6886 345.7L512.6886 345.6219Q512.6417 344.79376 512.2355 344.34064Q511.84482 343.8875 511.15732 343.8875ZM514.40735 346.23126Q514.40735 344.73126 515.0792 343.8719Q515.7667 342.9969 516.923 342.9969Q518.048 342.9969 518.7042 343.7469L518.7511 343.10626L519.7511 343.10626L519.7511 351.8875L518.65735 351.8875L518.65735 348.85626Q518.0011 349.575 516.923 349.575Q515.7667 349.575 515.0792 348.6844Q514.40735 347.77814 514.40735 346.3094L514.40735 346.23126ZM515.4855 346.35626Q515.4855 347.4344 515.9386 348.0594Q516.40735 348.6844 517.1886 348.6844Q518.15735 348.6844 518.65735 347.825L518.65735 344.71564Q518.1417 343.8875 517.2042 343.8875Q516.40735 343.8875 515.9386 344.5125Q515.4855 345.1375 515.4855 346.35626ZM525.5792 348.825Q524.9542 349.575 523.71985 349.575Q522.7042 349.575 522.173 348.98126Q521.6417 348.3875 521.6417 347.23126L521.6417 343.10626L522.71985 343.10626L522.71985 347.2Q522.71985 348.65314 523.8917 348.65314Q525.1417 348.65314 525.548 347.71564L525.548 343.10626L526.6417 343.10626L526.6417 349.45L525.6105 349.45L525.5792 348.825ZM531.298 349.575Q530.0011 349.575 529.1886 348.73126Q528.3917 347.8719 528.3917 346.45L528.3917 346.2625Q528.3917 345.3094 528.7511 344.575Q529.1105 343.825 529.7511 343.41876Q530.40735 342.9969 531.15735 342.9969Q532.3917 342.9969 533.0792 343.8094Q533.7667 344.6219 533.7667 346.1375L533.7667 346.59064L529.46985 346.59064Q529.5011 347.52814 530.0167 348.10626Q530.548 348.6844 531.3605 348.6844Q531.923 348.6844 532.3136 348.45Q532.71985 348.21564 533.03235 347.825L533.6886 348.34064Q532.8917 349.575 531.298 349.575ZM531.15735 343.8875Q530.5011 343.8875 530.048 344.3719Q529.6105 344.84064 529.5167 345.7L532.6886 345.7L532.6886 345.6219Q532.6417 344.79376 532.2355 344.34064Q531.84485 343.8875 531.15735 343.8875ZM538.3605 347.7625Q538.3605 347.325 538.0167 347.09064Q537.6886 346.84064 536.8605 346.66876Q536.048 346.4969 535.5636 346.2469Q535.0792 345.9969 534.84485 345.66876Q534.6261 345.325 534.6261 344.85626Q534.6261 344.075 535.28235 343.54376Q535.9386 342.9969 536.96985 342.9969Q538.048 342.9969 538.7042 343.5594Q539.3761 344.10626 539.3761 344.96564L538.298 344.96564Q538.298 344.52814 537.90735 344.21564Q537.53235 343.8875 536.96985 343.8875Q536.3761 343.8875 536.03235 344.15314Q535.7042 344.40314 535.7042 344.8094Q535.7042 345.2 536.0167 345.40314Q536.3292 345.60626 537.1417 345.79376Q537.9542 345.96564 538.4542 346.21564Q538.9542 346.46564 539.1886 346.825Q539.4386 347.1844 539.4386 347.6844Q539.4386 348.54376 538.7511 349.0594Q538.0792 349.575 537.0011 349.575Q536.2355 349.575 535.6417 349.3094Q535.0636 349.02814 534.7355 348.54376Q534.40735 348.0594 534.40735 347.4969L535.4855 347.4969Q535.5167 348.04376 535.923 348.3719Q536.3292 348.6844 537.0011 348.6844Q537.6105 348.6844 537.9855 348.4344Q538.3605 348.1844 538.3605 347.7625ZM542.1417 341.575L542.1417 343.10626L543.3136 343.10626L543.3136 343.95L542.1417 343.95L542.1417 347.8719Q542.1417 348.2625 542.298 348.45Q542.4542 348.6375 542.8292 348.6375Q543.0167 348.6375 543.34485 348.575L543.34485 349.45Q542.923 349.575 542.5167 349.575Q541.798 349.575 541.423 349.1375Q541.048 348.6844 541.048 347.8719L541.048 343.95L539.8917 343.95L539.8917 343.10626L541.048 343.10626L541.048 341.575L542.1417 341.575Z" fill-rule="nonzero"/><path fill="#4285f4" d="M103.5 21.05C103.5 20.497715 103.947716 20.05 104.5 20.05L114.5 20.05C115.052284 20.05 115.5 20.497715 115.5 21.05L115.5 31.05C115.5 31.602285 115.052284 32.05 114.5 32.05L104.5 32.05C103.947716 32.05 103.5 31.602285 103.5 31.05Z" fill-rule="nonzero"/><path fill="#757575" d="M131.04688 30.55L129.92188 30.55L129.92188 26.6125L125.609375 26.6125L125.609375 30.55L124.484375 30.55L124.484375 22.01875L125.609375 22.01875L125.609375 25.690624L129.92188 25.690624L129.92188 22.01875L131.04688 22.01875L131.04688 30.55ZM139.39062 22.940624L136.64062 22.940624L136.64062 30.55L135.53125 30.55L135.53125 22.940624L132.78125 22.940624L132.78125 22.01875L139.39062 22.01875L139.39062 22.940624ZM146.39062 22.940624L143.64062 22.940624L143.64062 30.55L142.53125 30.55L142.53125 22.940624L139.78125 22.940624L139.78125 22.01875L146.39062 22.01875L146.39062 22.940624ZM148.60938 27.20625L148.60938 30.55L147.48438 30.55L147.48438 22.01875L150.64062 22.01875Q152.03125 22.01875 152.82812 22.7375Q153.625 23.440624 153.625 24.628124Q153.625 25.8625 152.84375 26.534374Q152.07812 27.20625 150.625 27.20625L148.60938 27.20625ZM148.60938 26.284374L150.64062 26.284374Q151.54688 26.284374 152.01562 25.8625Q152.5 25.440624 152.5 24.64375Q152.5 23.878124 152.01562 23.425Q151.54688 22.95625 150.70312 22.940624L148.60938 22.940624L148.60938 26.284374Z" fill-rule="nonzero"/><path fill="#db4437" d="M170.5 21.05C170.5 20.497715 170.94771 20.05 171.5 20.05L181.5 20.05C182.05229 20.05 182.5 20.497715 182.5 21.05L182.5 31.05C182.5 31.602285 182.05229 32.05 181.5 32.05L171.5 32.05C170.94771 32.05 170.5 31.602285 170.5 31.05Z" fill-rule="nonzero"/><path fill="#757575" d="M191.0625 27.33125Q191.0625 25.846874 191.75 24.971874Q192.4375 24.096874 193.5625 24.096874Q194.71875 24.096874 195.375 24.909374L195.42188 24.20625L196.42188 24.20625L196.42188 30.39375Q196.42188 31.628124 195.6875 32.33125Q194.95312 33.05 193.73438 33.05Q193.04688 33.05 192.39062 32.753124Q191.73438 32.45625 191.39062 31.95625L191.95312 31.3Q192.64062 32.159374 193.65625 32.159374Q194.4375 32.159374 194.875 31.70625Q195.32812 31.26875 195.32812 30.45625L195.32812 29.909374Q194.67188 30.675 193.54688 30.675Q192.4375 30.675 191.75 29.784374Q191.0625 28.878124 191.0625 27.33125ZM192.15625 27.45625Q192.15625 28.51875 192.59375 29.14375Q193.03125 29.753124 193.82812 29.753124Q194.84375 29.753124 195.32812 28.815624L195.32812 25.925Q194.82812 25.01875 193.82812 25.01875Q193.04688 25.01875 192.59375 25.628124Q192.15625 26.2375 192.15625 27.45625ZM201.625 27.096874L199.60938 27.096874L199.60938 30.55L198.48438 30.55L198.48438 22.01875L201.3125 22.01875Q202.75 22.01875 203.51562 22.675Q204.29688 23.33125 204.29688 24.58125Q204.29688 25.378124 203.85938 25.971874Q203.4375 26.565624 202.67188 26.8625L204.67188 30.471874L204.67188 30.55L203.46875 30.55L201.625 27.096874ZM199.60938 26.175L201.34375 26.175Q202.1875 26.175 202.67188 25.753124Q203.17188 25.315624 203.17188 24.58125Q203.17188 23.8 202.70312 23.378124Q202.23438 22.95625 201.34375 22.940624L199.60938 22.940624L199.60938 26.175ZM206.60938 27.20625L206.60938 30.55L205.48438 30.55L205.48438 22.01875L208.64062 22.01875Q210.03125 22.01875 210.82812 22.7375Q211.625 23.440624 211.625 24.628124Q211.625 25.8625 210.84375 26.534374Q210.07812 27.20625 208.625 27.20625L206.60938 27.20625ZM206.60938 26.284374L208.64062 26.284374Q209.54688 26.284374 210.01562 25.8625Q210.5 25.440624 210.5 24.64375Q210.5 23.878124 210.01562 23.425Q209.54688 22.95625 208.70312 22.940624L206.60938 22.940624L206.60938 26.284374ZM219.76562 27.846874Q219.60938 29.190624 218.76562 29.940624Q217.92188 30.675 216.53125 30.675Q215.01562 30.675 214.10938 29.596874Q213.20312 28.503124 213.20312 26.675L213.20312 25.8625Q213.20312 24.675 213.625 23.76875Q214.04688 22.8625 214.82812 22.378124Q215.60938 21.89375 216.625 21.89375Q217.98438 21.89375 218.79688 22.659374Q219.625 23.425 219.76562 24.753124L218.64062 24.753124Q218.48438 23.7375 218.0 23.284374Q217.51562 22.83125 216.625 22.83125Q215.54688 22.83125 214.9375 23.628124Q214.32812 24.425 214.32812 25.89375L214.32812 26.721874Q214.32812 28.1125 214.90625 28.940624Q215.48438 29.753124 216.53125 29.753124Q217.46875 29.753124 217.96875 29.33125Q218.46875 28.89375 218.64062 27.846874L219.76562 27.846874Z" fill-rule="nonzero"/><path fill="#f4b400" d="M236.5 21.05C236.5 20.497715 236.94771 20.05 237.5 20.05L247.5 20.05C248.05229 20.05 248.5 20.497715 248.5 21.05L248.5 31.05C248.5 31.602285 248.05229 32.05 247.5 32.05L237.5 32.05C236.94771 32.05 236.5 31.602285 236.5 31.05Z" fill-rule="nonzero"/><path fill="#757575" d="M257.0625 27.33125Q257.0625 25.846874 257.75 24.971874Q258.4375 24.096874 259.5625 24.096874Q260.71875 24.096874 261.375 24.909374L261.42188 24.20625L262.42188 24.20625L262.42188 30.39375Q262.42188 31.628124 261.6875 32.33125Q260.95312 33.05 259.73438 33.05Q259.04688 33.05 258.39062 32.753124Q257.73438 32.45625 257.39062 31.95625L257.95312 31.3Q258.64062 32.159374 259.65625 32.159374Q260.4375 32.159374 260.875 31.70625Q261.32812 31.26875 261.32812 30.45625L261.32812 29.909374Q260.67188 30.675 259.54688 30.675Q258.4375 30.675 257.75 29.784374Q257.0625 28.878124 257.0625 27.33125ZM258.15625 27.45625Q258.15625 28.51875 258.59375 29.14375Q259.03125 29.753124 259.82812 29.753124Q260.84375 29.753124 261.32812 28.815624L261.32812 25.925Q260.82812 25.01875 259.82812 25.01875Q259.04688 25.01875 258.59375 25.628124Q258.15625 26.2375 258.15625 27.45625ZM267.625 27.096874L265.60938 27.096874L265.60938 30.55L264.48438 30.55L264.48438 22.01875L267.3125 22.01875Q268.75 22.01875 269.51562 22.675Q270.29688 23.33125 270.29688 24.58125Q270.29688 25.378124 269.85938 25.971874Q269.4375 26.565624 268.67188 26.8625L270.67188 30.471874L270.67188 30.55L269.46875 30.55L267.625 27.096874ZM265.60938 26.175L267.34375 26.175Q268.1875 26.175 268.67188 25.753124Q269.17188 25.315624 269.17188 24.58125Q269.17188 23.8 268.70312 23.378124Q268.23438 22.95625 267.34375 22.940624L265.60938 22.940624L265.60938 26.175ZM272.60938 27.20625L272.60938 30.55L271.48438 30.55L271.48438 22.01875L274.64062 22.01875Q276.03125 22.01875 276.82812 22.7375Q277.625 23.440624 277.625 24.628124Q277.625 25.8625 276.84375 26.534374Q276.07812 27.20625 274.625 27.20625L272.60938 27.20625ZM272.60938 26.284374L274.64062 26.284374Q275.54688 26.284374 276.01562 25.8625Q276.5 25.440624 276.5 24.64375Q276.5 23.878124 276.01562 23.425Q275.54688 22.95625 274.70312 22.940624L272.60938 22.940624L272.60938 26.284374ZM285.76562 27.846874Q285.60938 29.190624 284.76562 29.940624Q283.92188 30.675 282.53125 30.675Q281.01562 30.675 280.10938 29.596874Q279.20312 28.503124 279.20312 26.675L279.20312 25.8625Q279.20312 24.675 279.625 23.76875Q280.04688 22.8625 280.82812 22.378124Q281.60938 21.89375 282.625 21.89375Q283.98438 21.89375 284.79688 22.659374Q285.625 23.425 285.76562 24.753124L284.64062 24.753124Q284.48438 23.7375 284.0 23.284374Q283.51562 22.83125 282.625 22.83125Q281.54688 22.83125 280.9375 23.628124Q280.32812 24.425 280.32812 25.89375L280.32812 26.721874Q280.32812 28.1125 280.90625 28.940624Q281.48438 29.753124 282.53125 29.753124Q283.46875 29.753124 283.96875 29.33125Q284.46875 28.89375 284.64062 27.846874L285.76562 27.846874ZM293.0 26.753124Q291.5625 26.33125 290.89062 25.721874Q290.23438 25.1125 290.23438 24.221874Q290.23438 23.221874 291.03125 22.565624Q291.84375 21.89375 293.14062 21.89375Q294.01562 21.89375 294.70312 22.2375Q295.39062 22.58125 295.76562 23.175Q296.15625 23.76875 296.15625 24.4875L295.01562 24.4875Q295.01562 23.70625 294.51562 23.26875Q294.03125 22.83125 293.14062 22.83125Q292.3125 22.83125 291.84375 23.20625Q291.375 23.565624 291.375 24.20625Q291.375 24.7375 291.8125 25.096874Q292.26562 25.45625 293.32812 25.753124Q294.39062 26.05 294.98438 26.409374Q295.59375 26.76875 295.875 27.253124Q296.17188 27.7375 296.17188 28.378124Q296.17188 29.425 295.35938 30.05Q294.54688 30.675 293.20312 30.675Q292.3125 30.675 291.54688 30.33125Q290.79688 29.9875 290.375 29.409374Q289.96875 28.815624 289.96875 28.08125L291.09375 28.08125Q291.09375 28.846874 291.67188 29.3Q292.25 29.753124 293.20312 29.753124Q294.09375 29.753124 294.5625 29.39375Q295.03125 29.01875 295.03125 28.39375Q295.03125 27.76875 294.59375 27.425Q294.15625 27.08125 293.0 26.753124ZM298.79688 22.675L298.79688 24.20625L299.96875 24.20625L299.96875 25.05L298.79688 25.05L298.79688 28.971874Q298.79688 29.3625 298.95312 29.55Q299.10938 29.7375 299.48438 29.7375Q299.67188 29.7375 300.0 29.675L300.0 30.55Q299.57812 30.675 299.17188 30.675Q298.45312 30.675 298.07812 30.2375Q297.70312 29.784374 297.70312 28.971874L297.70312 25.05L296.54688 25.05L296.54688 24.20625L297.70312 24.20625L297.70312 22.675L298.79688 22.675ZM304.39062 25.175Q304.14062 25.14375 303.85938 25.14375Q302.78125 25.14375 302.40625 26.05L302.40625 30.55L301.32812 30.55L301.32812 24.20625L302.375 24.20625L302.39062 24.940624Q302.92188 24.096874 303.90625 24.096874Q304.21875 24.096874 304.39062 24.175L304.39062 25.175ZM307.95312 30.675Q306.65625 30.675 305.84375 29.83125Q305.04688 28.971874 305.04688 27.55L305.04688 27.3625Q305.04688 26.409374 305.40625 25.675Q305.76562 24.925 306.40625 24.51875Q307.0625 24.096874 307.8125 24.096874Q309.04688 24.096874 309.73438 24.909374Q310.42188 25.721874 310.42188 27.2375L310.42188 27.690624L306.125 27.690624Q306.15625 28.628124 306.67188 29.20625Q307.20312 29.784374 308.01562 29.784374Q308.57812 29.784374 308.96875 29.55Q309.375 29.315624 309.6875 28.925L310.34375 29.440624Q309.54688 30.675 307.95312 30.675ZM307.8125 24.9875Q307.15625 24.9875 306.70312 25.471874Q306.26562 25.940624 306.17188 26.8L309.34375 26.8L309.34375 26.721874Q309.29688 25.89375 308.89062 25.440624Q308.5 24.9875 307.8125 24.9875ZM315.23438 30.55Q315.14062 30.3625 315.07812 29.878124Q314.32812 30.675 313.28125 30.675Q312.34375 30.675 311.73438 30.14375Q311.14062 29.6125 311.14062 28.784374Q311.14062 27.8 311.89062 27.253124Q312.64062 26.70625 314.01562 26.70625L315.0625 26.70625L315.0625 26.20625Q315.0625 25.64375 314.71875 25.315624Q314.39062 24.971874 313.71875 24.971874Q313.14062 24.971874 312.75 25.26875Q312.35938 25.55 312.35938 25.971874L311.26562 25.971874Q311.26562 25.4875 311.59375 25.05Q311.9375 24.6125 312.51562 24.3625Q313.09375 24.096874 313.78125 24.096874Q314.89062 24.096874 315.5 24.64375Q316.125 25.190624 316.15625 26.14375L316.15625 29.065624Q316.15625 29.940624 316.375 30.45625L316.375 30.55L315.23438 30.55ZM313.4375 29.721874Q313.95312 29.721874 314.40625 29.45625Q314.85938 29.190624 315.0625 28.76875L315.0625 27.471874L314.21875 27.471874Q312.21875 27.471874 312.21875 28.64375Q312.21875 29.14375 312.5625 29.440624Q312.90625 29.721874 313.4375 29.721874ZM319.34375 24.20625L319.375 24.909374Q320.0625 24.096874 321.25 24.096874Q322.57812 24.096874 323.0625 25.1125Q323.375 24.659374 323.875 24.378124Q324.39062 24.096874 325.07812 24.096874Q327.17188 24.096874 327.20312 26.3L327.20312 30.55L326.125 30.55L326.125 26.3625Q326.125 25.690624 325.8125 25.3625Q325.5 25.01875 324.76562 25.01875Q324.15625 25.01875 323.75 25.378124Q323.35938 25.7375 323.29688 26.346874L323.29688 30.55L322.21875 30.55L322.21875 26.39375Q322.21875 25.01875 320.85938 25.01875Q319.79688 25.01875 319.40625 25.925L319.40625 30.55L318.3125 30.55L318.3125 24.20625L319.34375 24.20625Z" fill-rule="nonzero"/><path fill="#0f9d58" d="M344.5 21.05C344.5 20.497715 344.94772 20.05 345.5 20.05L355.5 20.05C356.05228 20.05 356.5 20.497715 356.5 21.05L356.5 31.05C356.5 31.602285 356.05228 32.05 355.5 32.05L345.5 32.05C344.94772 32.05 344.5 31.602285 344.5 31.05Z" fill-rule="nonzero"/><path fill="#757575" d="M368.625 27.096874L366.60938 27.096874L366.60938 30.55L365.48438 30.55L365.48438 22.01875L368.3125 22.01875Q369.75 22.01875 370.51562 22.675Q371.29688 23.33125 371.29688 24.58125Q371.29688 25.378124 370.85938 25.971874Q370.4375 26.565624 369.67188 26.8625L371.67188 30.471874L371.67188 30.55L370.46875 30.55L368.625 27.096874ZM366.60938 26.175L368.34375 26.175Q369.1875 26.175 369.67188 25.753124Q370.17188 25.315624 370.17188 24.58125Q370.17188 23.8 369.70312 23.378124Q369.23438 22.95625 368.34375 22.940624L366.60938 22.940624L366.60938 26.175ZM374.95312 30.675Q373.65625 30.675 372.84375 29.83125Q372.04688 28.971874 372.04688 27.55L372.04688 27.3625Q372.04688 26.409374 372.40625 25.675Q372.76562 24.925 373.40625 24.51875Q374.0625 24.096874 374.8125 24.096874Q376.04688 24.096874 376.73438 24.909374Q377.42188 25.721874 377.42188 27.2375L377.42188 27.690624L373.125 27.690624Q373.15625 28.628124 373.67188 29.20625Q374.20312 29.784374 375.01562 29.784374Q375.57812 29.784374 375.96875 29.55Q376.375 29.315624 376.6875 28.925L377.34375 29.440624Q376.54688 30.675 374.95312 30.675ZM374.8125 24.9875Q374.15625 24.9875 373.70312 25.471874Q373.26562 25.940624 373.17188 26.8L376.34375 26.8L376.34375 26.721874Q376.29688 25.89375 375.89062 25.440624Q375.5 24.9875 374.8125 24.9875ZM378.0625 27.33125Q378.0625 25.8625 378.75 24.9875Q379.4375 24.096874 380.5625 24.096874Q381.67188 24.096874 382.32812 24.846874L382.32812 21.55L383.40625 21.55L383.40625 30.55L382.40625 30.55L382.35938 29.8625Q381.70312 30.675 380.54688 30.675Q379.45312 30.675 378.75 29.76875Q378.0625 28.8625 378.0625 27.409374L378.0625 27.33125ZM379.14062 27.45625Q379.14062 28.534374 379.57812 29.14375Q380.03125 29.753124 380.8125 29.753124Q381.84375 29.753124 382.32812 28.815624L382.32812 25.909374Q381.84375 25.01875 380.82812 25.01875Q380.03125 25.01875 379.57812 25.628124Q379.14062 26.2375 379.14062 27.45625ZM391.76562 27.846874Q391.60938 29.190624 390.76562 29.940624Q389.92188 30.675 388.53125 30.675Q387.01562 30.675 386.10938 29.596874Q385.20312 28.503124 385.20312 26.675L385.20312 25.8625Q385.20312 24.675 385.625 23.76875Q386.04688 22.8625 386.82812 22.378124Q387.60938 21.89375 388.625 21.89375Q389.98438 21.89375 390.79688 22.659374Q391.625 23.425 391.76562 24.753124L390.64062 24.753124Q390.48438 23.7375 390.0 23.284374Q389.51562 22.83125 388.625 22.83125Q387.54688 22.83125 386.9375 23.628124Q386.32812 24.425 386.32812 25.89375L386.32812 26.721874Q386.32812 28.1125 386.90625 28.940624Q387.48438 29.753124 388.53125 29.753124Q389.46875 29.753124 389.96875 29.33125Q390.46875 28.89375 390.64062 27.846874L391.76562 27.846874ZM393.03125 27.315624Q393.03125 26.39375 393.39062 25.64375Q393.76562 24.89375 394.42188 24.503124Q395.07812 24.096874 395.90625 24.096874Q397.20312 24.096874 398.0 24.9875Q398.8125 25.878124 398.8125 27.378124L398.8125 27.45625Q398.8125 28.378124 398.45312 29.1125Q398.09375 29.846874 397.4375 30.26875Q396.78125 30.675 395.92188 30.675Q394.64062 30.675 393.82812 29.784374Q393.03125 28.878124 393.03125 27.39375L393.03125 27.315624ZM394.125 27.45625Q394.125 28.503124 394.60938 29.14375Q395.10938 29.784374 395.92188 29.784374Q396.75 29.784374 397.23438 29.14375Q397.71875 28.4875 397.71875 27.315624Q397.71875 26.284374 397.21875 25.64375Q396.73438 24.9875 395.90625 24.9875Q395.10938 24.9875 394.60938 25.628124Q394.125 26.253124 394.125 27.45625ZM401.34375 24.20625L401.375 25.003124Q402.10938 24.096874 403.28125 24.096874Q405.29688 24.096874 405.3125 26.3625L405.3125 30.55L404.21875 30.55L404.21875 26.346874Q404.21875 25.675 403.90625 25.346874Q403.60938 25.01875 402.95312 25.01875Q402.42188 25.01875 402.01562 25.3Q401.625 25.58125 401.40625 26.034374L401.40625 30.55L400.32812 30.55L400.32812 24.20625L401.34375 24.20625Z" fill-rule="nonzero"/><path fill="#ff6d00" d="M422.5 21.05C422.5 20.497715 422.94772 20.05 423.5 20.05L433.5 20.05C434.05228 20.05 434.5 20.497715 434.5 21.05L434.5 31.05C434.5 31.602285 434.05228 32.05 433.5 32.05L423.5 32.05C422.94772 32.05 422.5 31.602285 422.5 31.05Z" fill-rule="nonzero"/><path fill="#757575" d="M444.60938 27.20625L444.60938 30.55L443.48438 30.55L443.48438 22.01875L446.64062 22.01875Q448.03125 22.01875 448.82812 22.7375Q449.625 23.440624 449.625 24.628124Q449.625 25.8625 448.84375 26.534374Q448.07812 27.20625 446.625 27.20625L444.60938 27.20625ZM444.60938 26.284374L446.64062 26.284374Q447.54688 26.284374 448.01562 25.8625Q448.5 25.440624 448.5 24.64375Q448.5 23.878124 448.01562 23.425Q447.54688 22.95625 446.70312 22.940624L444.60938 22.940624L444.60938 26.284374ZM452.5 30.55L451.42188 30.55L451.42188 21.55L452.5 21.55L452.5 30.55ZM458.23438 30.55Q458.14062 30.3625 458.07812 29.878124Q457.32812 30.675 456.28125 30.675Q455.34375 30.675 454.73438 30.14375Q454.14062 29.6125 454.14062 28.784374Q454.14062 27.8 454.89062 27.253124Q455.64062 26.70625 457.01562 26.70625L458.0625 26.70625L458.0625 26.20625Q458.0625 25.64375 457.71875 25.315624Q457.39062 24.971874 456.71875 24.971874Q456.14062 24.971874 455.75 25.26875Q455.35938 25.55 455.35938 25.971874L454.26562 25.971874Q454.26562 25.4875 454.59375 25.05Q454.9375 24.6125 455.51562 24.3625Q456.09375 24.096874 456.78125 24.096874Q457.89062 24.096874 458.5 24.64375Q459.125 25.190624 459.15625 26.14375L459.15625 29.065624Q459.15625 29.940624 459.375 30.45625L459.375 30.55L458.23438 30.55ZM456.4375 29.721874Q456.95312 29.721874 457.40625 29.45625Q457.85938 29.190624 458.0625 28.76875L458.0625 27.471874L457.21875 27.471874Q455.21875 27.471874 455.21875 28.64375Q455.21875 29.14375 455.5625 29.440624Q455.90625 29.721874 456.4375 29.721874ZM462.5 30.55L461.42188 30.55L461.42188 24.20625L462.5 24.20625L462.5 30.55ZM461.32812 22.534374Q461.32812 22.26875 461.48438 22.08125Q461.65625 21.89375 461.96875 21.89375Q462.28125 21.89375 462.4375 22.08125Q462.60938 22.26875 462.60938 22.534374Q462.60938 22.784374 462.4375 22.971874Q462.28125 23.14375 461.96875 23.14375Q461.65625 23.14375 461.48438 22.971874Q461.32812 22.784374 461.32812 22.534374ZM465.34375 24.20625L465.375 25.003124Q466.10938 24.096874 467.28125 24.096874Q469.29688 24.096874 469.3125 26.3625L469.3125 30.55L468.21875 30.55L468.21875 26.346874Q468.21875 25.675 467.90625 25.346874Q467.60938 25.01875 466.95312 25.01875Q466.42188 25.01875 466.01562 25.3Q465.625 25.58125 465.40625 26.034374L465.40625 30.55L464.32812 30.55L464.32812 24.20625L465.34375 24.20625ZM480.39062 22.940624L477.64062 22.940624L477.64062 30.55L476.53125 30.55L476.53125 22.940624L473.78125 22.940624L473.78125 22.01875L480.39062 22.01875L480.39062 22.940624ZM487.76562 27.846874Q487.60938 29.190624 486.76562 29.940624Q485.92188 30.675 484.53125 30.675Q483.01562 30.675 482.10938 29.596874Q481.20312 28.503124 481.20312 26.675L481.20312 25.8625Q481.20312 24.675 481.625 23.76875Q482.04688 22.8625 482.82812 22.378124Q483.60938 21.89375 484.625 21.89375Q485.98438 21.89375 486.79688 22.659374Q487.625 23.425 487.76562 24.753124L486.64062 24.753124Q486.48438 23.7375 486.0 23.284374Q485.51562 22.83125 484.625 22.83125Q483.54688 22.83125 482.9375 23.628124Q482.32812 24.425 482.32812 25.89375L482.32812 26.721874Q482.32812 28.1125 482.90625 28.940624Q483.48438 29.753124 484.53125 29.753124Q485.46875 29.753124 485.96875 29.33125Q486.46875 28.89375 486.64062 27.846874L487.76562 27.846874ZM490.60938 27.20625L490.60938 30.55L489.48438 30.55L489.48438 22.01875L492.64062 22.01875Q494.03125 22.01875 494.82812 22.7375Q495.625 23.440624 495.625 24.628124Q495.625 25.8625 494.84375 26.534374Q494.07812 27.20625 492.625 27.20625L490.60938 27.20625ZM490.60938 26.284374L492.64062 26.284374Q493.54688 26.284374 494.01562 25.8625Q494.5 25.440624 494.5 24.64375Q494.5 23.878124 494.01562 23.425Q493.54688 22.95625 492.70312 22.940624L490.60938 22.940624L490.60938 26.284374Z" fill-rule="nonzero"/></svg>