<svg version="1.1" viewBox="0.0 0.0 600.0 371.0" fill="none" stroke="none" stroke-linecap="square" stroke-miterlimit="10" width="600" height="371" xmlns:xlink="http://www.w3.org/1999/xlink" xmlns="http://www.w3.org/2000/svg"><path fill="#ffffff" d="M0 0L600.0 0L600.0 371.0L0 371.0L0 0Z" fill-rule="nonzero"/><path stroke="#333333" stroke-width="1.0" stroke-linecap="butt" d="M55.5 331.5L581.5 331.5" fill-rule="nonzero"/><path stroke="#cccccc" stroke-width="1.0" stroke-linecap="butt" d="M55.5 270.5L581.5 270.5" fill-rule="nonzero"/><path stroke="#cccccc" stroke-width="1.0" stroke-linecap="butt" d="M55.5 209.5L581.5 209.5" fill-rule="nonzero"/><path stroke="#cccccc" stroke-width="1.0" stroke-linecap="butt" d="M55.5 148.5L581.5 148.5" fill-rule="nonzero"/><path stroke="#cccccc" stroke-width="1.0" stroke-linecap="butt" d="M55.5 87.5L581.5 87.5" fill-rule="nonzero"/><path stroke="#cccccc" stroke-width="1.0" stroke-linecap="butt" d="M55.5 26.5L581.5 26.5" fill-rule="nonzero"/><clipPath id="id_0"><path d="M55.55 26.05L581.45 26.05L581.45 331.45L55.55 331.45L55.55 26.05Z" clip-rule="nonzero"/></clipPath><path stroke="#000000" stroke-width="0.0" stroke-linecap="butt" stroke-opacity="0.0" clip-path="url(#id_0)" d="M177.0 331.0L98.0 331.0L98.0 330.0C98.0 329.44772 98.447716 329.0 99.0 329.0L176.0 329.0C176.55229 329.0 177.0 329.44772 177.0 330.0Z" fill-rule="nonzero"/><path fill="#4285f4" clip-path="url(#id_0)" d="M177.0 331.0L98.0 331.0L98.0 330.0C98.0 329.44772 98.447716 329.0 99.0 329.0L176.0 329.0C176.55229 329.0 177.0 329.44772 177.0 330.0Z" fill-rule="nonzero"/><path stroke="#000000" stroke-width="0.0" stroke-linecap="butt" stroke-opacity="0.0" clip-path="url(#id_0)" d="M298.0 331.0L219.0 331.0L219.0 234.0C219.0 232.89543 219.89543 232.0 221.0 232.0L296.0 232.0C297.10458 232.0 298.0 232.89543 298.0 234.0Z" fill-rule="nonzero"/><path fill="#4285f4" clip-path="url(#id_0)" d="M298.0 331.0L219.0 331.0L219.0 234.0C219.0 232.89543 219.89543 232.0 221.0 232.0L296.0 232.0C297.10458 232.0 298.0 232.89543 298.0 234.0Z" fill-rule="nonzero"/><path stroke="#000000" stroke-width="0.0" stroke-linecap="butt" stroke-opacity="0.0" clip-path="url(#id_0)" d="M419.0 331.0L340.0 331.0L340.0 180.0C340.0 178.89543 340.89542 178.0 342.0 178.0L417.0 178.0C418.10458 178.0 419.0 178.89543 419.0 180.0Z" fill-rule="nonzero"/><path fill="#4285f4" clip-path="url(#id_0)" d="M419.0 331.0L340.0 331.0L340.0 180.0C340.0 178.89543 340.89542 178.0 342.0 178.0L417.0 178.0C418.10458 178.0 419.0 178.89543 419.0 180.0Z" fill-rule="nonzero"/><path stroke="#000000" stroke-width="0.0" stroke-linecap="butt" stroke-opacity="0.0" clip-path="url(#id_0)" d="M540.0 331.0L461.0 331.0L461.0 87.0C461.0 85.89543 461.89542 85.0 463.0 85.0L538.0 85.0C539.10455 85.0 540.0 85.89543 540.0 87.0Z" fill-rule="nonzero"/><path fill="#4285f4" clip-path="url(#id_0)" d="M540.0 331.0L461.0 331.0L461.0 87.0C461.0 85.89543 461.89542 85.0 463.0 85.0L538.0 85.0C539.10455 85.0 540.0 85.89543 540.0 87.0Z" fill-rule="nonzero"/><path stroke="#ffffff" stroke-width="3.0" stroke-linejoin="round" stroke-linecap="round" d="M131.0625 310.24402Q131.0625 312.15027 130.40625 313.08777Q129.76562 314.00964 128.375 314.00964Q127.015625 314.00964 126.359375 313.1034Q125.703125 312.19714 125.671875 310.38464L125.671875 308.94714Q125.671875 307.05652 126.3125 306.15027Q126.96875 305.2284 128.35938 305.2284Q129.73438 305.2284 130.39062 306.11902Q131.04688 306.99402 131.0625 308.83777L131.0625 310.24402ZM129.96875 308.75964Q129.96875 307.38464 129.57812 306.75964Q129.20312 306.11902 128.35938 306.11902Q127.53125 306.11902 127.140625 306.75964Q126.765625 307.38464 126.765625 308.68152L126.765625 310.4159Q126.765625 311.7909 127.15625 312.46277Q127.5625 313.11902 128.375 313.11902Q129.17188 313.11902 129.5625 312.49402Q129.95312 311.86902 129.96875 310.5409L129.96875 308.75964ZM132.84375 313.32214Q132.84375 313.0409 133.0 312.8534Q133.17188 312.6659 133.5 312.6659Q133.84375 312.6659 134.01562 312.8534Q134.1875 313.0409 134.1875 313.32214Q134.1875 313.58777 134.01562 313.77527Q133.84375 313.94714 133.5 313.94714Q133.17188 313.94714 133.0 313.77527Q132.84375 313.58777 132.84375 313.32214ZM141.29688 313.88464L135.70312 313.88464L135.70312 313.1034L138.65625 309.82214Q139.3125 309.07214 139.5625 308.61902Q139.8125 308.15027 139.8125 307.65027Q139.8125 306.9784 139.40625 306.55652Q139.01562 306.11902 138.32812 306.11902Q137.53125 306.11902 137.07812 306.58777Q136.625 307.0409 136.625 307.86902L135.54688 307.86902Q135.54688 306.68152 136.29688 305.96277Q137.0625 305.2284 138.32812 305.2284Q139.53125 305.2284 140.21875 305.8534Q140.90625 306.4784 140.90625 307.52527Q140.90625 308.77527 139.29688 310.52527L137.01562 312.99402L141.29688 312.99402L141.29688 313.88464ZM146.26562 313.88464L145.1875 313.88464L145.1875 306.6659L143.0 307.46277L143.0 306.4784L146.10938 305.30652L146.26562 305.30652L146.26562 313.88464Z" fill-rule="nonzero"/><path fill="#4285f4" d="M131.0625 310.24402Q131.0625 312.15027 130.40625 313.08777Q129.76562 314.00964 128.375 314.00964Q127.015625 314.00964 126.359375 313.1034Q125.703125 312.19714 125.671875 310.38464L125.671875 308.94714Q125.671875 307.05652 126.3125 306.15027Q126.96875 305.2284 128.35938 305.2284Q129.73438 305.2284 130.39062 306.11902Q131.04688 306.99402 131.0625 308.83777L131.0625 310.24402ZM129.96875 308.75964Q129.96875 307.38464 129.57812 306.75964Q129.20312 306.11902 128.35938 306.11902Q127.53125 306.11902 127.140625 306.75964Q126.765625 307.38464 126.765625 308.68152L126.765625 310.4159Q126.765625 311.7909 127.15625 312.46277Q127.5625 313.11902 128.375 313.11902Q129.17188 313.11902 129.5625 312.49402Q129.95312 311.86902 129.96875 310.5409L129.96875 308.75964ZM132.84375 313.32214Q132.84375 313.0409 133.0 312.8534Q133.17188 312.6659 133.5 312.6659Q133.84375 312.6659 134.01562 312.8534Q134.1875 313.0409 134.1875 313.32214Q134.1875 313.58777 134.01562 313.77527Q133.84375 313.94714 133.5 313.94714Q133.17188 313.94714 133.0 313.77527Q132.84375 313.58777 132.84375 313.32214ZM141.29688 313.88464L135.70312 313.88464L135.70312 313.1034L138.65625 309.82214Q139.3125 309.07214 139.5625 308.61902Q139.8125 308.15027 139.8125 307.65027Q139.8125 306.9784 139.40625 306.55652Q139.01562 306.11902 138.32812 306.11902Q137.53125 306.11902 137.07812 306.58777Q136.625 307.0409 136.625 307.86902L135.54688 307.86902Q135.54688 306.68152 136.29688 305.96277Q137.0625 305.2284 138.32812 305.2284Q139.53125 305.2284 140.21875 305.8534Q140.90625 306.4784 140.90625 307.52527Q140.90625 308.77527 139.29688 310.52527L137.01562 312.99402L141.29688 312.99402L141.29688 313.88464ZM146.26562 313.88464L145.1875 313.88464L145.1875 306.6659L143.0 307.46277L143.0 306.4784L146.10938 305.30652L146.26562 305.30652L146.26562 313.88464Z" fill-rule="nonzero"/><path stroke="#4285f4" stroke-width="3.0" stroke-linejoin="round" stroke-linecap="round" d="M251.89062 242.62141Q251.89062 243.26204 251.54688 243.76204Q251.20312 244.26204 250.64062 244.54329Q251.29688 244.82454 251.6875 245.38704Q252.07812 245.93391 252.07812 246.63704Q252.07812 247.73079 251.32812 248.40266Q250.59375 249.05891 249.375 249.05891Q248.14062 249.05891 247.39062 248.40266Q246.65625 247.73079 246.65625 246.63704Q246.65625 245.93391 247.03125 245.38704Q247.40625 244.82454 248.07812 244.54329Q247.51562 244.26204 247.1875 243.76204Q246.85938 243.26204 246.85938 242.62141Q246.85938 241.54329 247.54688 240.91829Q248.23438 240.27766 249.375 240.27766Q250.5 240.27766 251.1875 240.91829Q251.89062 241.54329 251.89062 242.62141ZM251.0 246.60579Q251.0 245.88704 250.54688 245.44954Q250.09375 244.99641 249.35938 244.99641Q248.625 244.99641 248.17188 245.44954Q247.73438 245.88704 247.73438 246.62141Q247.73438 247.34016 248.17188 247.76204Q248.60938 248.16829 249.375 248.16829Q250.125 248.16829 250.5625 247.74641Q251.0 247.32454 251.0 246.60579ZM249.375 241.16829Q248.73438 241.16829 248.32812 241.57454Q247.9375 241.96516 247.9375 242.65266Q247.9375 243.29329 248.32812 243.69954Q248.71875 244.10579 249.35938 244.10579Q250.01562 244.10579 250.40625 243.69954Q250.79688 243.29329 250.79688 242.65266Q250.79688 241.99641 250.39062 241.59016Q249.98438 241.16829 249.375 241.16829ZM253.84375 248.37141Q253.84375 248.09016 254.0 247.90266Q254.17188 247.71516 254.5 247.71516Q254.84375 247.71516 255.01562 247.90266Q255.1875 248.09016 255.1875 248.37141Q255.1875 248.63704 255.01562 248.82454Q254.84375 248.99641 254.5 248.99641Q254.17188 248.99641 254.0 248.82454Q253.84375 248.63704 253.84375 248.37141ZM260.26562 248.93391L259.1875 248.93391L259.1875 241.71516L257.0 242.51204L257.0 241.52766L260.10938 240.35579L260.26562 240.35579L260.26562 248.93391ZM265.28125 244.13704L266.09375 244.13704Q266.875 244.12141 267.3125 243.73079Q267.75 243.34016 267.75 242.66829Q267.75 241.16829 266.25 241.16829Q265.54688 241.16829 265.125 241.57454Q264.71875 241.98079 264.71875 242.63704L263.625 242.63704Q263.625 241.62141 264.35938 240.94954Q265.10938 240.27766 266.25 240.27766Q267.45312 240.27766 268.14062 240.91829Q268.82812 241.55891 268.82812 242.69954Q268.82812 243.26204 268.46875 243.77766Q268.10938 244.29329 267.48438 244.55891Q268.1875 244.77766 268.5625 245.29329Q268.95312 245.80891 268.95312 246.55891Q268.95312 247.69954 268.20312 248.38704Q267.45312 249.05891 266.25 249.05891Q265.0625 249.05891 264.29688 248.40266Q263.54688 247.74641 263.54688 246.68391L264.64062 246.68391Q264.64062 247.35579 265.07812 247.76204Q265.51562 248.16829 266.26562 248.16829Q267.04688 248.16829 267.45312 247.76204Q267.875 247.34016 267.875 246.57454Q267.875 245.84016 267.42188 245.44954Q266.96875 245.04329 266.09375 245.02766L265.28125 245.02766L265.28125 244.13704Z" fill-rule="nonzero"/><path fill="#ffffff" d="M251.89062 242.62141Q251.89062 243.26204 251.54688 243.76204Q251.20312 244.26204 250.64062 244.54329Q251.29688 244.82454 251.6875 245.38704Q252.07812 245.93391 252.07812 246.63704Q252.07812 247.73079 251.32812 248.40266Q250.59375 249.05891 249.375 249.05891Q248.14062 249.05891 247.39062 248.40266Q246.65625 247.73079 246.65625 246.63704Q246.65625 245.93391 247.03125 245.38704Q247.40625 244.82454 248.07812 244.54329Q247.51562 244.26204 247.1875 243.76204Q246.85938 243.26204 246.85938 242.62141Q246.85938 241.54329 247.54688 240.91829Q248.23438 240.27766 249.375 240.27766Q250.5 240.27766 251.1875 240.91829Q251.89062 241.54329 251.89062 242.62141ZM251.0 246.60579Q251.0 245.88704 250.54688 245.44954Q250.09375 244.99641 249.35938 244.99641Q248.625 244.99641 248.17188 245.44954Q247.73438 245.88704 247.73438 246.62141Q247.73438 247.34016 248.17188 247.76204Q248.60938 248.16829 249.375 248.16829Q250.125 248.16829 250.5625 247.74641Q251.0 247.32454 251.0 246.60579ZM249.375 241.16829Q248.73438 241.16829 248.32812 241.57454Q247.9375 241.96516 247.9375 242.65266Q247.9375 243.29329 248.32812 243.69954Q248.71875 244.10579 249.35938 244.10579Q250.01562 244.10579 250.40625 243.69954Q250.79688 243.29329 250.79688 242.65266Q250.79688 241.99641 250.39062 241.59016Q249.98438 241.16829 249.375 241.16829ZM253.84375 248.37141Q253.84375 248.09016 254.0 247.90266Q254.17188 247.71516 254.5 247.71516Q254.84375 247.71516 255.01562 247.90266Q255.1875 248.09016 255.1875 248.37141Q255.1875 248.63704 255.01562 248.82454Q254.84375 248.99641 254.5 248.99641Q254.17188 248.99641 254.0 248.82454Q253.84375 248.63704 253.84375 248.37141ZM260.26562 248.93391L259.1875 248.93391L259.1875 241.71516L257.0 242.51204L257.0 241.52766L260.10938 240.35579L260.26562 240.35579L260.26562 248.93391ZM265.28125 244.13704L266.09375 244.13704Q266.875 244.12141 267.3125 243.73079Q267.75 243.34016 267.75 242.66829Q267.75 241.16829 266.25 241.16829Q265.54688 241.16829 265.125 241.57454Q264.71875 241.98079 264.71875 242.63704L263.625 242.63704Q263.625 241.62141 264.35938 240.94954Q265.10938 240.27766 266.25 240.27766Q267.45312 240.27766 268.14062 240.91829Q268.82812 241.55891 268.82812 242.69954Q268.82812 243.26204 268.46875 243.77766Q268.10938 244.29329 267.48438 244.55891Q268.1875 244.77766 268.5625 245.29329Q268.95312 245.80891 268.95312 246.55891Q268.95312 247.69954 268.20312 248.38704Q267.45312 249.05891 266.25 249.05891Q265.0625 249.05891 264.29688 248.40266Q263.54688 247.74641 263.54688 246.68391L264.64062 246.68391Q264.64062 247.35579 265.07812 247.76204Q265.51562 248.16829 266.26562 248.16829Q267.04688 248.16829 267.45312 247.76204Q267.875 247.34016 267.875 246.57454Q267.875 245.84016 267.42188 245.44954Q266.96875 245.04329 266.09375 245.02766L265.28125 245.02766L265.28125 244.13704Z" fill-rule="nonzero"/><path stroke="#4285f4" stroke-width="3.0" stroke-linejoin="round" stroke-linecap="round" d="M367.76562 194.45056L366.6875 194.45056L366.6875 187.23181L364.5 188.02869L364.5 187.04431L367.60938 185.87244L367.76562 185.87244L367.76562 194.45056ZM376.79688 194.45056L371.20312 194.45056L371.20312 193.66931L374.15625 190.38806Q374.8125 189.63806 375.0625 189.18494Q375.3125 188.71619 375.3125 188.21619Q375.3125 187.54431 374.90625 187.12244Q374.51562 186.68494 373.82812 186.68494Q373.03125 186.68494 372.57812 187.15369Q372.125 187.60681 372.125 188.43494L371.04688 188.43494Q371.04688 187.24744 371.79688 186.52869Q372.5625 185.79431 373.82812 185.79431Q375.03125 185.79431 375.71875 186.41931Q376.40625 187.04431 376.40625 188.09119Q376.40625 189.34119 374.79688 191.09119L372.51562 193.55994L376.79688 193.55994L376.79688 194.45056ZM378.34375 193.88806Q378.34375 193.60681 378.5 193.41931Q378.67188 193.23181 379.0 193.23181Q379.34375 193.23181 379.51562 193.41931Q379.6875 193.60681 379.6875 193.88806Q379.6875 194.15369 379.51562 194.34119Q379.34375 194.51306 379.0 194.51306Q378.67188 194.51306 378.5 194.34119Q378.34375 194.15369 378.34375 193.88806ZM381.70312 190.16931L382.14062 185.91931L386.51562 185.91931L386.51562 186.91931L383.0625 186.91931L382.79688 189.24744Q383.4375 188.87244 384.23438 188.87244Q385.39062 188.87244 386.07812 189.65369Q386.76562 190.41931 386.76562 191.73181Q386.76562 193.04431 386.04688 193.80994Q385.34375 194.57556 384.0625 194.57556Q382.9375 194.57556 382.21875 193.95056Q381.5 193.30994 381.40625 192.20056L382.42188 192.20056Q382.53125 192.93494 382.95312 193.30994Q383.375 193.68494 384.0625 193.68494Q384.8125 193.68494 385.25 193.16931Q385.6875 192.65369 385.6875 191.74744Q385.6875 190.88806 385.21875 190.37244Q384.75 189.85681 383.96875 189.85681Q383.26562 189.85681 382.85938 190.15369L382.57812 190.38806L381.70312 190.16931ZM392.35938 190.70056Q392.03125 191.10681 391.54688 191.35681Q391.07812 191.59119 390.51562 191.59119Q389.78125 191.59119 389.23438 191.23181Q388.6875 190.87244 388.39062 190.21619Q388.09375 189.54431 388.09375 188.74744Q388.09375 187.90369 388.40625 187.21619Q388.73438 186.52869 389.32812 186.16931Q389.9375 185.79431 390.73438 185.79431Q392.0 185.79431 392.71875 186.74744Q393.45312 187.70056 393.45312 189.32556L393.45312 189.63806Q393.45312 192.13806 392.46875 193.27869Q391.48438 194.41931 389.5 194.45056L389.28125 194.45056L389.28125 193.54431L389.51562 193.54431Q390.85938 193.51306 391.57812 192.84119Q392.29688 192.16931 392.35938 190.70056ZM390.6875 190.70056Q391.23438 190.70056 391.6875 190.37244Q392.15625 190.02869 392.375 189.54431L392.375 189.10681Q392.375 188.04431 391.90625 187.37244Q391.4375 186.70056 390.73438 186.70056Q390.01562 186.70056 389.57812 187.24744Q389.15625 187.79431 389.15625 188.70056Q389.15625 189.57556 389.5625 190.13806Q389.98438 190.70056 390.6875 190.70056Z" fill-rule="nonzero"/><path fill="#ffffff" d="M367.76562 194.45056L366.6875 194.45056L366.6875 187.23181L364.5 188.02869L364.5 187.04431L367.60938 185.87244L367.76562 185.87244L367.76562 194.45056ZM376.79688 194.45056L371.20312 194.45056L371.20312 193.66931L374.15625 190.38806Q374.8125 189.63806 375.0625 189.18494Q375.3125 188.71619 375.3125 188.21619Q375.3125 187.54431 374.90625 187.12244Q374.51562 186.68494 373.82812 186.68494Q373.03125 186.68494 372.57812 187.15369Q372.125 187.60681 372.125 188.43494L371.04688 188.43494Q371.04688 187.24744 371.79688 186.52869Q372.5625 185.79431 373.82812 185.79431Q375.03125 185.79431 375.71875 186.41931Q376.40625 187.04431 376.40625 188.09119Q376.40625 189.34119 374.79688 191.09119L372.51562 193.55994L376.79688 193.55994L376.79688 194.45056ZM378.34375 193.88806Q378.34375 193.60681 378.5 193.41931Q378.67188 193.23181 379.0 193.23181Q379.34375 193.23181 379.51562 193.41931Q379.6875 193.60681 379.6875 193.88806Q379.6875 194.15369 379.51562 194.34119Q379.34375 194.51306 379.0 194.51306Q378.67188 194.51306 378.5 194.34119Q378.34375 194.15369 378.34375 193.88806ZM381.70312 190.16931L382.14062 185.91931L386.51562 185.91931L386.51562 186.91931L383.0625 186.91931L382.79688 189.24744Q383.4375 188.87244 384.23438 188.87244Q385.39062 188.87244 386.07812 189.65369Q386.76562 190.41931 386.76562 191.73181Q386.76562 193.04431 386.04688 193.80994Q385.34375 194.57556 384.0625 194.57556Q382.9375 194.57556 382.21875 193.95056Q381.5 193.30994 381.40625 192.20056L382.42188 192.20056Q382.53125 192.93494 382.95312 193.30994Q383.375 193.68494 384.0625 193.68494Q384.8125 193.68494 385.25 193.16931Q385.6875 192.65369 385.6875 191.74744Q385.6875 190.88806 385.21875 190.37244Q384.75 189.85681 383.96875 189.85681Q383.26562 189.85681 382.85938 190.15369L382.57812 190.38806L381.70312 190.16931ZM392.35938 190.70056Q392.03125 191.10681 391.54688 191.35681Q391.07812 191.59119 390.51562 191.59119Q389.78125 191.59119 389.23438 191.23181Q388.6875 190.87244 388.39062 190.21619Q388.09375 189.54431 388.09375 188.74744Q388.09375 187.90369 388.40625 187.21619Q388.73438 186.52869 389.32812 186.16931Q389.9375 185.79431 390.73438 185.79431Q392.0 185.79431 392.71875 186.74744Q393.45312 187.70056 393.45312 189.32556L393.45312 189.63806Q393.45312 192.13806 392.46875 193.27869Q391.48438 194.41931 389.5 194.45056L389.28125 194.45056L389.28125 193.54431L389.51562 193.54431Q390.85938 193.51306 391.57812 192.84119Q392.29688 192.16931 392.35938 190.70056ZM390.6875 190.70056Q391.23438 190.70056 391.6875 190.37244Q392.15625 190.02869 392.375 189.54431L392.375 189.10681Q392.375 188.04431 391.90625 187.37244Q391.4375 186.70056 390.73438 186.70056Q390.01562 186.70056 389.57812 187.24744Q389.15625 187.79431 389.15625 188.70056Q389.15625 189.57556 389.5625 190.13806Q389.98438 190.70056 390.6875 190.70056Z" fill-rule="nonzero"/><path stroke="#4285f4" stroke-width="3.0" stroke-linejoin="round" stroke-linecap="round" d="M494.29688 101.4868L488.70312 101.4868L488.70312 100.70555L491.65625 97.4243Q492.3125 96.6743 492.5625 96.221176Q492.8125 95.752426 492.8125 95.252426Q492.8125 94.58055 492.40625 94.158676Q492.01562 93.721176 491.32812 93.721176Q490.53125 93.721176 490.07812 94.189926Q489.625 94.64305 489.625 95.471176L488.54688 95.471176Q488.54688 94.283676 489.29688 93.564926Q490.0625 92.83055 491.32812 92.83055Q492.53125 92.83055 493.21875 93.45555Q493.90625 94.08055 493.90625 95.127426Q493.90625 96.377426 492.29688 98.127426L490.01562 100.596176L494.29688 100.596176L494.29688 101.4868ZM501.0625 97.846176Q501.0625 99.752426 500.40625 100.689926Q499.76562 101.6118 498.375 101.6118Q497.01562 101.6118 496.35938 100.70555Q495.70312 99.7993 495.67188 97.9868L495.67188 96.5493Q495.67188 94.658676 496.3125 93.752426Q496.96875 92.83055 498.35938 92.83055Q499.73438 92.83055 500.39062 93.721176Q501.04688 94.596176 501.0625 96.439926L501.0625 97.846176ZM499.96875 96.3618Q499.96875 94.9868 499.57812 94.3618Q499.20312 93.721176 498.35938 93.721176Q497.53125 93.721176 497.14062 94.3618Q496.76562 94.9868 496.76562 96.283676L496.76562 98.01805Q496.76562 99.39305 497.15625 100.064926Q497.5625 100.721176 498.375 100.721176Q499.17188 100.721176 499.5625 100.096176Q499.95312 99.471176 499.96875 98.14305L499.96875 96.3618ZM502.84375 100.9243Q502.84375 100.64305 503.0 100.45555Q503.17188 100.26805 503.5 100.26805Q503.84375 100.26805 504.01562 100.45555Q504.1875 100.64305 504.1875 100.9243Q504.1875 101.189926 504.01562 101.377426Q503.84375 101.5493 503.5 101.5493Q503.17188 101.5493 503.0 101.377426Q502.84375 101.189926 502.84375 100.9243ZM511.29688 101.4868L505.70312 101.4868L505.70312 100.70555L508.65625 97.4243Q509.3125 96.6743 509.5625 96.221176Q509.8125 95.752426 509.8125 95.252426Q509.8125 94.58055 509.40625 94.158676Q509.01562 93.721176 508.32812 93.721176Q507.53125 93.721176 507.07812 94.189926Q506.625 94.64305 506.625 95.471176L505.54688 95.471176Q505.54688 94.283676 506.29688 93.564926Q507.0625 92.83055 508.32812 92.83055Q509.53125 92.83055 510.21875 93.45555Q510.90625 94.08055 510.90625 95.127426Q510.90625 96.377426 509.29688 98.127426L507.01562 100.596176L511.29688 100.596176L511.29688 101.4868Z" fill-rule="nonzero"/><path fill="#ffffff" d="M494.29688 101.4868L488.70312 101.4868L488.70312 100.70555L491.65625 97.4243Q492.3125 96.6743 492.5625 96.221176Q492.8125 95.752426 492.8125 95.252426Q492.8125 94.58055 492.40625 94.158676Q492.01562 93.721176 491.32812 93.721176Q490.53125 93.721176 490.07812 94.189926Q489.625 94.64305 489.625 95.471176L488.54688 95.471176Q488.54688 94.283676 489.29688 93.564926Q490.0625 92.83055 491.32812 92.83055Q492.53125 92.83055 493.21875 93.45555Q493.90625 94.08055 493.90625 95.127426Q493.90625 96.377426 492.29688 98.127426L490.01562 100.596176L494.29688 100.596176L494.29688 101.4868ZM501.0625 97.846176Q501.0625 99.752426 500.40625 100.689926Q499.76562 101.6118 498.375 101.6118Q497.01562 101.6118 496.35938 100.70555Q495.70312 99.7993 495.67188 97.9868L495.67188 96.5493Q495.67188 94.658676 496.3125 93.752426Q496.96875 92.83055 498.35938 92.83055Q499.73438 92.83055 500.39062 93.721176Q501.04688 94.596176 501.0625 96.439926L501.0625 97.846176ZM499.96875 96.3618Q499.96875 94.9868 499.57812 94.3618Q499.20312 93.721176 498.35938 93.721176Q497.53125 93.721176 497.14062 94.3618Q496.76562 94.9868 496.76562 96.283676L496.76562 98.01805Q496.76562 99.39305 497.15625 100.064926Q497.5625 100.721176 498.375 100.721176Q499.17188 100.721176 499.5625 100.096176Q499.95312 99.471176 499.96875 98.14305L499.96875 96.3618ZM502.84375 100.9243Q502.84375 100.64305 503.0 100.45555Q503.17188 100.26805 503.5 100.26805Q503.84375 100.26805 504.01562 100.45555Q504.1875 100.64305 504.1875 100.9243Q504.1875 101.189926 504.01562 101.377426Q503.84375 101.5493 503.5 101.5493Q503.17188 101.5493 503.0 101.377426Q502.84375 101.189926 502.84375 100.9243ZM511.29688 101.4868L505.70312 101.4868L505.70312 100.70555L508.65625 97.4243Q509.3125 96.6743 509.5625 96.221176Q509.8125 95.752426 509.8125 95.252426Q509.8125 94.58055 509.40625 94.158676Q509.01562 93.721176 508.32812 93.721176Q507.53125 93.721176 507.07812 94.189926Q506.625 94.64305 506.625 95.471176L505.54688 95.471176Q505.54688 94.283676 506.29688 93.564926Q507.0625 92.83055 508.32812 92.83055Q509.53125 92.83055 510.21875 93.45555Q510.90625 94.08055 510.90625 95.127426Q510.90625 96.377426 509.29688 98.127426L507.01562 100.596176L511.29688 100.596176L511.29688 101.4868Z" fill-rule="nonzero"/><path fill="#757575" d="M31.6125 332.3094Q31.6125 334.21564 30.95625 335.15314Q30.315624 336.075 28.925 336.075Q27.565624 336.075 26.909374 335.16876Q26.253124 334.2625 26.221874 332.45L26.221874 331.0125Q26.221874 329.1219 26.8625 328.21564Q27.51875 327.29376 28.909374 327.29376Q30.284374 327.29376 30.940624 328.1844Q31.596874 329.0594 31.6125 330.90314L31.6125 332.3094ZM30.51875 330.825Q30.51875 329.45 30.128124 328.825Q29.753124 328.1844 28.909374 328.1844Q28.08125 328.1844 27.690624 328.825Q27.315624 329.45 27.315624 330.7469L27.315624 332.48126Q27.315624 333.85626 27.70625 334.52814Q28.1125 335.1844 28.925 335.1844Q29.721874 335.1844 30.1125 334.5594Q30.503124 333.9344 30.51875 332.60626L30.51875 330.825ZM34.39375 329.60626L34.425 330.3094Q35.1125 329.4969 36.3 329.4969Q37.628124 329.4969 38.1125 330.5125Q38.425 330.0594 38.925 329.77814Q39.440624 329.4969 40.128124 329.4969Q42.221874 329.4969 42.253124 331.7L42.253124 335.95L41.175 335.95L41.175 331.7625Q41.175 331.09064 40.8625 330.7625Q40.55 330.41876 39.815624 330.41876Q39.20625 330.41876 38.8 330.77814Q38.409374 331.1375 38.346874 331.7469L38.346874 335.95L37.26875 335.95L37.26875 331.79376Q37.26875 330.41876 35.909374 330.41876Q34.846874 330.41876 34.45625 331.325L34.45625 335.95L33.3625 335.95L33.3625 329.60626L34.39375 329.60626ZM48.065624 334.2625Q48.065624 333.825 47.721874 333.59064Q47.39375 333.34064 46.565624 333.16876Q45.753124 332.9969 45.26875 332.7469Q44.784374 332.4969 44.55 332.16876Q44.33125 331.825 44.33125 331.35626Q44.33125 330.575 44.9875 330.04376Q45.64375 329.4969 46.675 329.4969Q47.753124 329.4969 48.409374 330.0594Q49.08125 330.60626 49.08125 331.46564L48.003124 331.46564Q48.003124 331.02814 47.6125 330.71564Q47.2375 330.3875 46.675 330.3875Q46.08125 330.3875 45.7375 330.65314Q45.409374 330.90314 45.409374 331.3094Q45.409374 331.7 45.721874 331.90314Q46.034374 332.10626 46.846874 332.29376Q47.659374 332.46564 48.159374 332.71564Q48.659374 332.96564 48.89375 333.325Q49.14375 333.6844 49.14375 334.1844Q49.14375 335.04376 48.45625 335.5594Q47.784374 336.075 46.70625 336.075Q45.940624 336.075 45.346874 335.8094Q44.76875 335.52814 44.440624 335.04376Q44.1125 334.5594 44.1125 333.9969L45.190624 333.9969Q45.221874 334.54376 45.628124 334.8719Q46.034374 335.1844 46.70625 335.1844Q47.315624 335.1844 47.690624 334.9344Q48.065624 334.6844 48.065624 334.2625Z" fill-rule="nonzero"/><path fill="#757575" d="M26.753124 270.58875L27.190624 266.33875L31.565624 266.33875L31.565624 267.33875L28.1125 267.33875L27.846874 269.66687Q28.4875 269.29187 29.284374 269.29187Q30.440624 269.29187 31.128124 270.07312Q31.815624 270.83875 31.815624 272.15125Q31.815624 273.46375 31.096874 274.22937Q30.39375 274.995 29.1125 274.995Q27.9875 274.995 27.26875 274.37Q26.55 273.72937 26.45625 272.62L27.471874 272.62Q27.58125 273.35437 28.003124 273.72937Q28.425 274.10437 29.1125 274.10437Q29.8625 274.10437 30.3 273.58875Q30.7375 273.07312 30.7375 272.16687Q30.7375 271.3075 30.26875 270.79187Q29.8 270.27625 29.01875 270.27625Q28.315624 270.27625 27.909374 270.57312L27.628124 270.8075L26.753124 270.58875ZM34.39375 268.52625L34.425 269.22937Q35.1125 268.41687 36.3 268.41687Q37.628124 268.41687 38.1125 269.4325Q38.425 268.97937 38.925 268.69812Q39.440624 268.41687 40.128124 268.41687Q42.221874 268.41687 42.253124 270.62L42.253124 274.87L41.175 274.87L41.175 270.6825Q41.175 270.01062 40.8625 269.6825Q40.55 269.33875 39.815624 269.33875Q39.20625 269.33875 38.8 269.69812Q38.409374 270.0575 38.346874 270.66687L38.346874 274.87L37.26875 274.87L37.26875 270.71375Q37.26875 269.33875 35.909374 269.33875Q34.846874 269.33875 34.45625 270.245L34.45625 274.87L33.3625 274.87L33.3625 268.52625L34.39375 268.52625ZM48.065624 273.1825Q48.065624 272.745 47.721874 272.51062Q47.39375 272.26062 46.565624 272.08875Q45.753124 271.91687 45.26875 271.66687Q44.784374 271.41687 44.55 271.08875Q44.33125 270.745 44.33125 270.27625Q44.33125 269.495 44.9875 268.96375Q45.64375 268.41687 46.675 268.41687Q47.753124 268.41687 48.409374 268.97937Q49.08125 269.52625 49.08125 270.38562L48.003124 270.38562Q48.003124 269.94812 47.6125 269.63562Q47.2375 269.3075 46.675 269.3075Q46.08125 269.3075 45.7375 269.57312Q45.409374 269.82312 45.409374 270.22937Q45.409374 270.62 45.721874 270.82312Q46.034374 271.02625 46.846874 271.21375Q47.659374 271.38562 48.159374 271.63562Q48.659374 271.88562 48.89375 272.245Q49.14375 272.60437 49.14375 273.10437Q49.14375 273.96375 48.45625 274.47937Q47.784374 274.995 46.70625 274.995Q45.940624 274.995 45.346874 274.72937Q44.76875 274.44812 44.440624 273.96375Q44.1125 273.47937 44.1125 272.91687L45.190624 272.91687Q45.221874 273.46375 45.628124 273.79187Q46.034374 274.10437 46.70625 274.10437Q47.315624 274.10437 47.690624 273.85437Q48.065624 273.60437 48.065624 273.1825Z" fill-rule="nonzero"/><path fill="#757575" d="M22.815624 213.79L21.7375 213.79L21.7375 206.57124L19.55 207.36812L19.55 206.38374L22.659374 205.21187L22.815624 205.21187L22.815624 213.79ZM31.6125 210.14937Q31.6125 212.05562 30.95625 212.99312Q30.315624 213.915 28.925 213.915Q27.565624 213.915 26.909374 213.00874Q26.253124 212.1025 26.221874 210.29L26.221874 208.8525Q26.221874 206.96187 26.8625 206.05562Q27.51875 205.13374 28.909374 205.13374Q30.284374 205.13374 30.940624 206.02437Q31.596874 206.89937 31.6125 208.74312L31.6125 210.14937ZM30.51875 208.665Q30.51875 207.29 30.128124 206.665Q29.753124 206.02437 28.909374 206.02437Q28.08125 206.02437 27.690624 206.665Q27.315624 207.29 27.315624 208.58687L27.315624 210.32124Q27.315624 211.69624 27.70625 212.36812Q28.1125 213.02437 28.925 213.02437Q29.721874 213.02437 30.1125 212.39937Q30.503124 211.77437 30.51875 210.44624L30.51875 208.665ZM34.39375 207.44624L34.425 208.14937Q35.1125 207.33687 36.3 207.33687Q37.628124 207.33687 38.1125 208.3525Q38.425 207.89937 38.925 207.61812Q39.440624 207.33687 40.128124 207.33687Q42.221874 207.33687 42.253124 209.54L42.253124 213.79L41.175 213.79L41.175 209.6025Q41.175 208.93062 40.8625 208.6025Q40.55 208.25874 39.815624 208.25874Q39.20625 208.25874 38.8 208.61812Q38.409374 208.9775 38.346874 209.58687L38.346874 213.79L37.26875 213.79L37.26875 209.63374Q37.26875 208.25874 35.909374 208.25874Q34.846874 208.25874 34.45625 209.165L34.45625 213.79L33.3625 213.79L33.3625 207.44624L34.39375 207.44624ZM48.065624 212.1025Q48.065624 211.665 47.721874 211.43062Q47.39375 211.18062 46.565624 211.00874Q45.753124 210.83687 45.26875 210.58687Q44.784374 210.33687 44.55 210.00874Q44.33125 209.665 44.33125 209.19624Q44.33125 208.415 44.9875 207.88374Q45.64375 207.33687 46.675 207.33687Q47.753124 207.33687 48.409374 207.89937Q49.08125 208.44624 49.08125 209.30562L48.003124 209.30562Q48.003124 208.86812 47.6125 208.55562Q47.2375 208.2275 46.675 208.2275Q46.08125 208.2275 45.7375 208.49312Q45.409374 208.74312 45.409374 209.14937Q45.409374 209.54 45.721874 209.74312Q46.034374 209.94624 46.846874 210.13374Q47.659374 210.30562 48.159374 210.55562Q48.659374 210.80562 48.89375 211.165Q49.14375 211.52437 49.14375 212.02437Q49.14375 212.88374 48.45625 213.39937Q47.784374 213.915 46.70625 213.915Q45.940624 213.915 45.346874 213.64937Q44.76875 213.36812 44.440624 212.88374Q44.1125 212.39937 44.1125 211.83687L45.190624 211.83687Q45.221874 212.38374 45.628124 212.71187Q46.034374 213.02437 46.70625 213.02437Q47.315624 213.02437 47.690624 212.77437Q48.065624 212.52437 48.065624 212.1025Z" fill-rule="nonzero"/><path fill="#757575" d="M22.815624 152.71L21.7375 152.71L21.7375 145.49126L19.55 146.28813L19.55 145.30376L22.659374 144.13188L22.815624 144.13188L22.815624 152.71ZM26.753124 148.42876L27.190624 144.17876L31.565624 144.17876L31.565624 145.17876L28.1125 145.17876L27.846874 147.50688Q28.4875 147.13188 29.284374 147.13188Q30.440624 147.13188 31.128124 147.91313Q31.815624 148.67876 31.815624 149.99126Q31.815624 151.30376 31.096874 152.06938Q30.39375 152.835 29.1125 152.835Q27.9875 152.835 27.26875 152.21Q26.55 151.56938 26.45625 150.46L27.471874 150.46Q27.58125 151.19438 28.003124 151.56938Q28.425 151.94438 29.1125 151.94438Q29.8625 151.94438 30.3 151.42876Q30.7375 150.91313 30.7375 150.00688Q30.7375 149.1475 30.26875 148.63188Q29.8 148.11626 29.01875 148.11626Q28.315624 148.11626 27.909374 148.41313L27.628124 148.6475L26.753124 148.42876ZM34.39375 146.36626L34.425 147.06938Q35.1125 146.25688 36.3 146.25688Q37.628124 146.25688 38.1125 147.2725Q38.425 146.81938 38.925 146.53813Q39.440624 146.25688 40.128124 146.25688Q42.221874 146.25688 42.253124 148.46L42.253124 152.71L41.175 152.71L41.175 148.5225Q41.175 147.85063 40.8625 147.5225Q40.55 147.17876 39.815624 147.17876Q39.20625 147.17876 38.8 147.53813Q38.409374 147.8975 38.346874 148.50688L38.346874 152.71L37.26875 152.71L37.26875 148.55376Q37.26875 147.17876 35.909374 147.17876Q34.846874 147.17876 34.45625 148.085L34.45625 152.71L33.3625 152.71L33.3625 146.36626L34.39375 146.36626ZM48.065624 151.0225Q48.065624 150.585 47.721874 150.35063Q47.39375 150.10063 46.565624 149.92876Q45.753124 149.75688 45.26875 149.50688Q44.784374 149.25688 44.55 148.92876Q44.33125 148.585 44.33125 148.11626Q44.33125 147.335 44.9875 146.80376Q45.64375 146.25688 46.675 146.25688Q47.753124 146.25688 48.409374 146.81938Q49.08125 147.36626 49.08125 148.22563L48.003124 148.22563Q48.003124 147.78813 47.6125 147.47563Q47.2375 147.1475 46.675 147.1475Q46.08125 147.1475 45.7375 147.41313Q45.409374 147.66313 45.409374 148.06938Q45.409374 148.46 45.721874 148.66313Q46.034374 148.86626 46.846874 149.05376Q47.659374 149.22563 48.159374 149.47563Q48.659374 149.72563 48.89375 150.085Q49.14375 150.44438 49.14375 150.94438Q49.14375 151.80376 48.45625 152.31938Q47.784374 152.835 46.70625 152.835Q45.940624 152.835 45.346874 152.56938Q44.76875 152.28813 44.440624 151.80376Q44.1125 151.31938 44.1125 150.75688L45.190624 150.75688Q45.221874 151.30376 45.628124 151.63188Q46.034374 151.94438 46.70625 151.94438Q47.315624 151.94438 47.690624 151.69438Q48.065624 151.44438 48.065624 151.0225Z" fill-rule="nonzero"/><path fill="#757575" d="M24.846874 91.63L19.253124 91.63L19.253124 90.84875L22.20625 87.5675Q22.8625 86.8175 23.1125 86.36437Q23.3625 85.89562 23.3625 85.39562Q23.3625 84.72375 22.95625 84.30187Q22.565624 83.86437 21.878124 83.86437Q21.08125 83.86437 20.628124 84.33312Q20.175 84.78625 20.175 85.61437L19.096874 85.61437Q19.096874 84.42687 19.846874 83.70812Q20.6125 82.97375 21.878124 82.97375Q23.08125 82.97375 23.76875 83.59875Q24.45625 84.22375 24.45625 85.27062Q24.45625 86.52062 22.846874 88.27062L20.565624 90.73937L24.846874 90.73937L24.846874 91.63ZM31.6125 87.98937Q31.6125 89.89562 30.95625 90.83312Q30.315624 91.755 28.925 91.755Q27.565624 91.755 26.909374 90.84875Q26.253124 89.9425 26.221874 88.13L26.221874 86.6925Q26.221874 84.80187 26.8625 83.89562Q27.51875 82.97375 28.909374 82.97375Q30.284374 82.97375 30.940624 83.86437Q31.596874 84.73937 31.6125 86.58312L31.6125 87.98937ZM30.51875 86.505Q30.51875 85.13 30.128124 84.505Q29.753124 83.86437 28.909374 83.86437Q28.08125 83.86437 27.690624 84.505Q27.315624 85.13 27.315624 86.42687L27.315624 88.16125Q27.315624 89.53625 27.70625 90.20812Q28.1125 90.86437 28.925 90.86437Q29.721874 90.86437 30.1125 90.23937Q30.503124 89.61437 30.51875 88.28625L30.51875 86.505ZM34.39375 85.28625L34.425 85.98937Q35.1125 85.17687 36.3 85.17687Q37.628124 85.17687 38.1125 86.1925Q38.425 85.73937 38.925 85.45812Q39.440624 85.17687 40.128124 85.17687Q42.221874 85.17687 42.253124 87.38L42.253124 91.63L41.175 91.63L41.175 87.4425Q41.175 86.77062 40.8625 86.4425Q40.55 86.09875 39.815624 86.09875Q39.20625 86.09875 38.8 86.45812Q38.409374 86.8175 38.346874 87.42687L38.346874 91.63L37.26875 91.63L37.26875 87.47375Q37.26875 86.09875 35.909374 86.09875Q34.846874 86.09875 34.45625 87.005L34.45625 91.63L33.3625 91.63L33.3625 85.28625L34.39375 85.28625ZM48.065624 89.9425Q48.065624 89.505 47.721874 89.27062Q47.39375 89.02062 46.565624 88.84875Q45.753124 88.67687 45.26875 88.42687Q44.784374 88.17687 44.55 87.84875Q44.33125 87.505 44.33125 87.03625Q44.33125 86.255 44.9875 85.72375Q45.64375 85.17687 46.675 85.17687Q47.753124 85.17687 48.409374 85.73937Q49.08125 86.28625 49.08125 87.14562L48.003124 87.14562Q48.003124 86.70812 47.6125 86.39562Q47.2375 86.0675 46.675 86.0675Q46.08125 86.0675 45.7375 86.33312Q45.409374 86.58312 45.409374 86.98937Q45.409374 87.38 45.721874 87.58312Q46.034374 87.78625 46.846874 87.97375Q47.659374 88.14562 48.159374 88.39562Q48.659374 88.64562 48.89375 89.005Q49.14375 89.36437 49.14375 89.86437Q49.14375 90.72375 48.45625 91.23937Q47.784374 91.755 46.70625 91.755Q45.940624 91.755 45.346874 91.48937Q44.76875 91.20812 44.440624 90.72375Q44.1125 90.23937 44.1125 89.67687L45.190624 89.67687Q45.221874 90.22375 45.628124 90.55187Q46.034374 90.86437 46.70625 90.86437Q47.315624 90.86437 47.690624 90.61437Q48.065624 90.36437 48.065624 89.9425Z" fill-rule="nonzero"/><path fill="#757575" d="M24.846874 30.55L19.253124 30.55L19.253124 29.76875L22.20625 26.4875Q22.8625 25.7375 23.1125 25.284374Q23.3625 24.815624 23.3625 24.315624Q23.3625 23.64375 22.95625 23.221874Q22.565624 22.784374 21.878124 22.784374Q21.08125 22.784374 20.628124 23.253124Q20.175 23.70625 20.175 24.534374L19.096874 24.534374Q19.096874 23.346874 19.846874 22.628124Q20.6125 21.89375 21.878124 21.89375Q23.08125 21.89375 23.76875 22.51875Q24.45625 23.14375 24.45625 24.190624Q24.45625 25.440624 22.846874 27.190624L20.565624 29.659374L24.846874 29.659374L24.846874 30.55ZM26.753124 26.26875L27.190624 22.01875L31.565624 22.01875L31.565624 23.01875L28.1125 23.01875L27.846874 25.346874Q28.4875 24.971874 29.284374 24.971874Q30.440624 24.971874 31.128124 25.753124Q31.815624 26.51875 31.815624 27.83125Q31.815624 29.14375 31.096874 29.909374Q30.39375 30.675 29.1125 30.675Q27.9875 30.675 27.26875 30.05Q26.55 29.409374 26.45625 28.3L27.471874 28.3Q27.58125 29.034374 28.003124 29.409374Q28.425 29.784374 29.1125 29.784374Q29.8625 29.784374 30.3 29.26875Q30.7375 28.753124 30.7375 27.846874Q30.7375 26.9875 30.26875 26.471874Q29.8 25.95625 29.01875 25.95625Q28.315624 25.95625 27.909374 26.253124L27.628124 26.4875L26.753124 26.26875ZM34.39375 24.20625L34.425 24.909374Q35.1125 24.096874 36.3 24.096874Q37.628124 24.096874 38.1125 25.1125Q38.425 24.659374 38.925 24.378124Q39.440624 24.096874 40.128124 24.096874Q42.221874 24.096874 42.253124 26.3L42.253124 30.55L41.175 30.55L41.175 26.3625Q41.175 25.690624 40.8625 25.3625Q40.55 25.01875 39.815624 25.01875Q39.20625 25.01875 38.8 25.378124Q38.409374 25.7375 38.346874 26.346874L38.346874 30.55L37.26875 30.55L37.26875 26.39375Q37.26875 25.01875 35.909374 25.01875Q34.846874 25.01875 34.45625 25.925L34.45625 30.55L33.3625 30.55L33.3625 24.20625L34.39375 24.20625ZM48.065624 28.8625Q48.065624 28.425 47.721874 28.190624Q47.39375 27.940624 46.565624 27.76875Q45.753124 27.596874 45.26875 27.346874Q44.784374 27.096874 44.55 26.76875Q44.33125 26.425 44.33125 25.95625Q44.33125 25.175 44.9875 24.64375Q45.64375 24.096874 46.675 24.096874Q47.753124 24.096874 48.409374 24.659374Q49.08125 25.20625 49.08125 26.065624L48.003124 26.065624Q48.003124 25.628124 47.6125 25.315624Q47.2375 24.9875 46.675 24.9875Q46.08125 24.9875 45.7375 25.253124Q45.409374 25.503124 45.409374 25.909374Q45.409374 26.3 45.721874 26.503124Q46.034374 26.70625 46.846874 26.89375Q47.659374 27.065624 48.159374 27.315624Q48.659374 27.565624 48.89375 27.925Q49.14375 28.284374 49.14375 28.784374Q49.14375 29.64375 48.45625 30.159374Q47.784374 30.675 46.70625 30.675Q45.940624 30.675 45.346874 30.409374Q44.76875 30.128124 44.440624 29.64375Q44.1125 29.159374 44.1125 28.596874L45.190624 28.596874Q45.221874 29.14375 45.628124 29.471874Q46.034374 29.784374 46.70625 29.784374Q47.315624 29.784374 47.690624 29.534374Q48.065624 29.284374 48.065624 28.8625Z" fill-rule="nonzero"/><path fill="#757575" d="M99.8583 345.6844L96.26455 345.6844L96.26455 349.45L95.13955 349.45L95.13955 340.91876L100.436424 340.91876L100.436424 341.84064L96.26455 341.84064L96.26455 344.7625L99.8583 344.7625L99.8583 345.6844ZM105.88955 349.45Q105.7958 349.2625 105.7333 348.77814Q104.9833 349.575 103.936424 349.575Q102.998924 349.575 102.38955 349.04376Q101.7958 348.5125 101.7958 347.6844Q101.7958 346.7 102.5458 346.15314Q103.2958 345.60626 104.6708 345.60626L105.717674 345.60626L105.717674 345.10626Q105.717674 344.54376 105.373924 344.21564Q105.0458 343.8719 104.373924 343.8719Q103.7958 343.8719 103.405174 344.16876Q103.01455 344.45 103.01455 344.8719L101.9208 344.8719Q101.9208 344.3875 102.248924 343.95Q102.592674 343.5125 103.1708 343.2625Q103.748924 342.9969 104.436424 342.9969Q105.5458 342.9969 106.155174 343.54376Q106.780174 344.09064 106.811424 345.04376L106.811424 347.96564Q106.811424 348.84064 107.030174 349.35626L107.030174 349.45L105.88955 349.45ZM104.092674 348.6219Q104.6083 348.6219 105.061424 348.35626Q105.51455 348.09064 105.717674 347.66876L105.717674 346.3719L104.873924 346.3719Q102.873924 346.3719 102.873924 347.54376Q102.873924 348.04376 103.217674 348.34064Q103.561424 348.6219 104.092674 348.6219ZM112.6708 347.7625Q112.6708 347.325 112.32705 347.09064Q111.998924 346.84064 111.1708 346.66876Q110.3583 346.4969 109.873924 346.2469Q109.38955 345.9969 109.155174 345.66876Q108.936424 345.325 108.936424 344.85626Q108.936424 344.075 109.592674 343.54376Q110.248924 342.9969 111.280174 342.9969Q112.3583 342.9969 113.01455 343.5594Q113.686424 344.10626 113.686424 344.96564L112.6083 344.96564Q112.6083 344.52814 112.217674 344.21564Q111.842674 343.8875 111.280174 343.8875Q110.686424 343.8875 110.342674 344.15314Q110.01455 344.40314 110.01455 344.8094Q110.01455 345.2 110.32705 345.40314Q110.63955 345.60626 111.45205 345.79376Q112.26455 345.96564 112.76455 346.21564Q113.26455 346.46564 113.498924 346.825Q113.748924 347.1844 113.748924 347.6844Q113.748924 348.54376 113.061424 349.0594Q112.38955 349.575 111.311424 349.575Q110.5458 349.575 109.95205 349.3094Q109.373924 349.02814 109.0458 348.54376Q108.717674 348.0594 108.717674 347.4969L109.7958 347.4969Q109.82705 348.04376 110.2333 348.3719Q110.63955 348.6844 111.311424 348.6844Q111.9208 348.6844 112.2958 348.4344Q112.6708 348.1844 112.6708 347.7625ZM116.45205 341.575L116.45205 343.10626L117.623924 343.10626L117.623924 343.95L116.45205 343.95L116.45205 347.8719Q116.45205 348.2625 116.6083 348.45Q116.76455 348.6375 117.13955 348.6375Q117.32705 348.6375 117.655174 348.575L117.655174 349.45Q117.2333 349.575 116.82705 349.575Q116.1083 349.575 115.7333 349.1375Q115.3583 348.6844 115.3583 347.8719L115.3583 343.95L114.20205 343.95L114.20205 343.10626L115.3583 343.10626L115.3583 341.575L116.45205 341.575ZM121.6083 349.575Q120.311424 349.575 119.498924 348.73126Q118.70205 347.8719 118.70205 346.45L118.70205 346.2625Q118.70205 345.3094 119.061424 344.575Q119.4208 343.825 120.061424 343.41876Q120.717674 342.9969 121.467674 342.9969Q122.70205 342.9969 123.38955 343.8094Q124.07705 344.6219 124.07705 346.1375L124.07705 346.59064L119.780174 346.59064Q119.811424 347.52814 120.32705 348.10626Q120.8583 348.6844 121.6708 348.6844Q122.2333 348.6844 122.623924 348.45Q123.030174 348.21564 123.342674 347.825L123.998924 348.34064Q123.20205 349.575 121.6083 349.575ZM121.467674 343.8875Q120.811424 343.8875 120.3583 344.3719Q119.9208 344.84064 119.82705 345.7L122.998924 345.7L122.998924 345.6219Q122.95205 344.79376 122.5458 344.34064Q122.155174 343.8875 121.467674 343.8875ZM128.6708 347.7625Q128.6708 347.325 128.32706 347.09064Q127.998924 346.84064 127.1708 346.66876Q126.3583 346.4969 125.873924 346.2469Q125.38955 345.9969 125.155174 345.66876Q124.936424 345.325 124.936424 344.85626Q124.936424 344.075 125.592674 343.54376Q126.248924 342.9969 127.280174 342.9969Q128.3583 342.9969 129.01456 343.5594Q129.68643 344.10626 129.68643 344.96564L128.6083 344.96564Q128.6083 344.52814 128.21768 344.21564Q127.842674 343.8875 127.280174 343.8875Q126.686424 343.8875 126.342674 344.15314Q126.01455 344.40314 126.01455 344.8094Q126.01455 345.2 126.32705 345.40314Q126.63955 345.60626 127.45205 345.79376Q128.26456 345.96564 128.76456 346.21564Q129.26456 346.46564 129.49893 346.825Q129.74893 347.1844 129.74893 347.6844Q129.74893 348.54376 129.06143 349.0594Q128.38956 349.575 127.311424 349.575Q126.5458 349.575 125.95205 349.3094Q125.373924 349.02814 125.0458 348.54376Q124.717674 348.0594 124.717674 347.4969L125.7958 347.4969Q125.82705 348.04376 126.2333 348.3719Q126.63955 348.6844 127.311424 348.6844Q127.9208 348.6844 128.2958 348.4344Q128.6708 348.1844 128.6708 347.7625ZM132.45206 341.575L132.45206 343.10626L133.62393 343.10626L133.62393 343.95L132.45206 343.95L132.45206 347.8719Q132.45206 348.2625 132.6083 348.45Q132.76456 348.6375 133.13956 348.6375Q133.32706 348.6375 133.65518 348.575L133.65518 349.45Q133.2333 349.575 132.82706 349.575Q132.1083 349.575 131.7333 349.1375Q131.3583 348.6844 131.3583 347.8719L131.3583 343.95L130.20206 343.95L130.20206 343.10626L131.3583 343.10626L131.3583 341.575L132.45206 341.575ZM141.28018 345.9969L139.26456 345.9969L139.26456 349.45L138.13956 349.45L138.13956 340.91876L140.96768 340.91876Q142.40518 340.91876 143.1708 341.575Q143.95206 342.23126 143.95206 343.48126Q143.95206 344.27814 143.51456 344.8719Q143.09268 345.46564 142.32706 345.7625L144.32706 349.3719L144.32706 349.45L143.12393 349.45L141.28018 345.9969ZM139.26456 345.075L140.99893 345.075Q141.84268 345.075 142.32706 344.65314Q142.82706 344.21564 142.82706 343.48126Q142.82706 342.7 142.3583 342.27814Q141.88956 341.85626 140.99893 341.84064L139.26456 341.84064L139.26456 345.075ZM147.6083 349.575Q146.31143 349.575 145.49893 348.73126Q144.70206 347.8719 144.70206 346.45L144.70206 346.2625Q144.70206 345.3094 145.06143 344.575Q145.4208 343.825 146.06143 343.41876Q146.71768 342.9969 147.46768 342.9969Q148.70206 342.9969 149.38956 343.8094Q150.07706 344.6219 150.07706 346.1375L150.07706 346.59064L145.78018 346.59064Q145.81143 347.52814 146.32706 348.10626Q146.8583 348.6844 147.6708 348.6844Q148.2333 348.6844 148.62393 348.45Q149.03018 348.21564 149.34268 347.825L149.99893 348.34064Q149.20206 349.575 147.6083 349.575ZM147.46768 343.8875Q146.81143 343.8875 146.3583 344.3719Q145.9208 344.84064 145.82706 345.7L148.99893 345.7L148.99893 345.6219Q148.95206 344.79376 148.5458 344.34064Q148.15518 343.8875 147.46768 343.8875ZM150.71768 346.23126Q150.71768 344.73126 151.38956 343.8719Q152.07706 342.9969 153.2333 342.9969Q154.3583 342.9969 155.01456 343.7469L155.06143 343.10626L156.06143 343.10626L156.06143 351.8875L154.96768 351.8875L154.96768 348.85626Q154.31143 349.575 153.2333 349.575Q152.07706 349.575 151.38956 348.6844Q150.71768 347.77814 150.71768 346.3094L150.71768 346.23126ZM151.7958 346.35626Q151.7958 347.4344 152.24893 348.0594Q152.71768 348.6844 153.49893 348.6844Q154.46768 348.6844 154.96768 347.825L154.96768 344.71564Q154.45206 343.8875 153.51456 343.8875Q152.71768 343.8875 152.24893 344.5125Q151.7958 345.1375 151.7958 346.35626ZM161.88956 348.825Q161.26456 349.575 160.03018 349.575Q159.01456 349.575 158.4833 348.98126Q157.95206 348.3875 157.95206 347.23126L157.95206 343.10626L159.03018 343.10626L159.03018 347.2Q159.03018 348.65314 160.20206 348.65314Q161.45206 348.65314 161.8583 347.71564L161.8583 343.10626L162.95206 343.10626L162.95206 349.45L161.9208 349.45L161.88956 348.825ZM167.6083 349.575Q166.31143 349.575 165.49893 348.73126Q164.70206 347.8719 164.70206 346.45L164.70206 346.2625Q164.70206 345.3094 165.06143 344.575Q165.4208 343.825 166.06143 343.41876Q166.71768 342.9969 167.46768 342.9969Q168.70206 342.9969 169.38956 343.8094Q170.07706 344.6219 170.07706 346.1375L170.07706 346.59064L165.78018 346.59064Q165.81143 347.52814 166.32706 348.10626Q166.8583 348.6844 167.6708 348.6844Q168.2333 348.6844 168.62393 348.45Q169.03018 348.21564 169.34268 347.825L169.99893 348.34064Q169.20206 349.575 167.6083 349.575ZM167.46768 343.8875Q166.81143 343.8875 166.3583 344.3719Q165.9208 344.84064 165.82706 345.7L168.99893 345.7L168.99893 345.6219Q168.95206 344.79376 168.5458 344.34064Q168.15518 343.8875 167.46768 343.8875ZM174.6708 347.7625Q174.6708 347.325 174.32706 347.09064Q173.99893 346.84064 173.1708 346.66876Q172.3583 346.4969 171.87393 346.2469Q171.38956 345.9969 171.15518 345.66876Q170.93643 345.325 170.93643 344.85626Q170.93643 344.075 171.59268 343.54376Q172.24893 342.9969 173.28018 342.9969Q174.3583 342.9969 175.01456 343.5594Q175.68643 344.10626 175.68643 344.96564L174.6083 344.96564Q174.6083 344.52814 174.21768 344.21564Q173.84268 343.8875 173.28018 343.8875Q172.68643 343.8875 172.34268 344.15314Q172.01456 344.40314 172.01456 344.8094Q172.01456 345.2 172.32706 345.40314Q172.63956 345.60626 173.45206 345.79376Q174.26456 345.96564 174.76456 346.21564Q175.26456 346.46564 175.49893 346.825Q175.74893 347.1844 175.74893 347.6844Q175.74893 348.54376 175.06143 349.0594Q174.38956 349.575 173.31143 349.575Q172.5458 349.575 171.95206 349.3094Q171.37393 349.02814 171.0458 348.54376Q170.71768 348.0594 170.71768 347.4969L171.7958 347.4969Q171.82706 348.04376 172.2333 348.3719Q172.63956 348.6844 173.31143 348.6844Q173.9208 348.6844 174.2958 348.4344Q174.6708 348.1844 174.6708 347.7625ZM178.45206 341.575L178.45206 343.10626L179.62393 343.10626L179.62393 343.95L178.45206 343.95L178.45206 347.8719Q178.45206 348.2625 178.6083 348.45Q178.76456 348.6375 179.13956 348.6375Q179.32706 348.6375 179.65518 348.575L179.65518 349.45Q179.2333 349.575 178.82706 349.575Q178.1083 349.575 177.7333 349.1375Q177.3583 348.6844 177.3583 347.8719L177.3583 343.95L176.20206 343.95L176.20206 343.10626L177.3583 343.10626L177.3583 341.575L178.45206 341.575Z" fill-rule="nonzero"/><path fill="#757575" d="M217.48923 340.91876L220.2861 347.8719L223.06735 340.91876L224.5361 340.91876L224.5361 349.45L223.4111 349.45L223.4111 346.1219L223.52048 342.54376L220.70798 349.45L219.8486 349.45L217.05173 342.5594L217.1611 346.1219L217.1611 349.45L216.0361 349.45L216.0361 340.91876L217.48923 340.91876ZM228.50485 349.575Q227.20798 349.575 226.39548 348.73126Q225.5986 347.8719 225.5986 346.45L225.5986 346.2625Q225.5986 345.3094 225.95798 344.575Q226.31735 343.825 226.95798 343.41876Q227.61423 342.9969 228.36423 342.9969Q229.5986 342.9969 230.2861 343.8094Q230.9736 344.6219 230.9736 346.1375L230.9736 346.59064L226.67673 346.59064Q226.70798 347.52814 227.2236 348.10626Q227.75485 348.6844 228.56735 348.6844Q229.12985 348.6844 229.52048 348.45Q229.92673 348.21564 230.23923 347.825L230.89548 348.34064Q230.0986 349.575 228.50485 349.575ZM228.36423 343.8875Q227.70798 343.8875 227.25485 344.3719Q226.81735 344.84064 226.7236 345.7L229.89548 345.7L229.89548 345.6219Q229.8486 344.79376 229.44235 344.34064Q229.05173 343.8875 228.36423 343.8875ZM231.61423 346.23126Q231.61423 344.7625 232.30173 343.8875Q232.98923 342.9969 234.11423 342.9969Q235.2236 342.9969 235.87985 343.7469L235.87985 340.45L236.95798 340.45L236.95798 349.45L235.95798 349.45L235.9111 348.7625Q235.25485 349.575 234.0986 349.575Q233.00485 349.575 232.30173 348.66876Q231.61423 347.7625 231.61423 346.3094L231.61423 346.23126ZM232.69235 346.35626Q232.69235 347.4344 233.12985 348.04376Q233.58298 348.65314 234.36423 348.65314Q235.39548 348.65314 235.87985 347.71564L235.87985 344.8094Q235.39548 343.91876 234.37985 343.91876Q233.58298 343.91876 233.12985 344.52814Q232.69235 345.1375 232.69235 346.35626ZM240.05173 349.45L238.9736 349.45L238.9736 343.10626L240.05173 343.10626L240.05173 349.45ZM238.87985 341.4344Q238.87985 341.16876 239.0361 340.98126Q239.20798 340.79376 239.52048 340.79376Q239.83298 340.79376 239.98923 340.98126Q240.1611 341.16876 240.1611 341.4344Q240.1611 341.6844 239.98923 341.8719Q239.83298 342.04376 239.52048 342.04376Q239.20798 342.04376 239.0361 341.8719Q238.87985 341.6844 238.87985 341.4344ZM245.7861 349.45Q245.69235 349.2625 245.62985 348.77814Q244.87985 349.575 243.83298 349.575Q242.89548 349.575 242.2861 349.04376Q241.69235 348.5125 241.69235 347.6844Q241.69235 346.7 242.44235 346.15314Q243.19235 345.60626 244.56735 345.60626L245.61423 345.60626L245.61423 345.10626Q245.61423 344.54376 245.27048 344.21564Q244.94235 343.8719 244.27048 343.8719Q243.69235 343.8719 243.30173 344.16876Q242.9111 344.45 242.9111 344.8719L241.81735 344.8719Q241.81735 344.3875 242.14548 343.95Q242.48923 343.5125 243.06735 343.2625Q243.64548 342.9969 244.33298 342.9969Q245.44235 342.9969 246.05173 343.54376Q246.67673 344.09064 246.70798 345.04376L246.70798 347.96564Q246.70798 348.84064 246.92673 349.35626L246.92673 349.45L245.7861 349.45ZM243.98923 348.6219Q244.50485 348.6219 244.95798 348.35626Q245.4111 348.09064 245.61423 347.66876L245.61423 346.3719L244.77048 346.3719Q242.77048 346.3719 242.77048 347.54376Q242.77048 348.04376 243.11423 348.34064Q243.45798 348.6219 243.98923 348.6219ZM249.89548 343.10626L249.92673 343.90314Q250.6611 342.9969 251.83298 342.9969Q253.8486 342.9969 253.86423 345.2625L253.86423 349.45L252.77048 349.45L252.77048 345.2469Q252.77048 344.575 252.45798 344.2469Q252.1611 343.91876 251.50485 343.91876Q250.9736 343.91876 250.56735 344.2Q250.17673 344.48126 249.95798 344.9344L249.95798 349.45L248.87985 349.45L248.87985 343.10626L249.89548 343.10626ZM262.17673 345.9969L260.1611 345.9969L260.1611 349.45L259.0361 349.45L259.0361 340.91876L261.86423 340.91876Q263.30173 340.91876 264.06735 341.575Q264.8486 342.23126 264.8486 343.48126Q264.8486 344.27814 264.4111 344.8719Q263.98923 345.46564 263.2236 345.7625L265.2236 349.3719L265.2236 349.45L264.02048 349.45L262.17673 345.9969ZM260.1611 345.075L261.89548 345.075Q262.73923 345.075 263.2236 344.65314Q263.7236 344.21564 263.7236 343.48126Q263.7236 342.7 263.25485 342.27814Q262.7861 341.85626 261.89548 341.84064L260.1611 341.84064L260.1611 345.075ZM268.50485 349.575Q267.20798 349.575 266.39548 348.73126Q265.5986 347.8719 265.5986 346.45L265.5986 346.2625Q265.5986 345.3094 265.95798 344.575Q266.31735 343.825 266.95798 343.41876Q267.61423 342.9969 268.36423 342.9969Q269.5986 342.9969 270.2861 343.8094Q270.9736 344.6219 270.9736 346.1375L270.9736 346.59064L266.67673 346.59064Q266.70798 347.52814 267.2236 348.10626Q267.75485 348.6844 268.56735 348.6844Q269.12985 348.6844 269.52048 348.45Q269.92673 348.21564 270.23923 347.825L270.89548 348.34064Q270.0986 349.575 268.50485 349.575ZM268.36423 343.8875Q267.70798 343.8875 267.25485 344.3719Q266.81735 344.84064 266.7236 345.7L269.89548 345.7L269.89548 345.6219Q269.8486 344.79376 269.44235 344.34064Q269.05173 343.8875 268.36423 343.8875ZM271.61423 346.23126Q271.61423 344.73126 272.2861 343.8719Q272.9736 342.9969 274.12985 342.9969Q275.25485 342.9969 275.9111 343.7469L275.95798 343.10626L276.95798 343.10626L276.95798 351.8875L275.86423 351.8875L275.86423 348.85626Q275.20798 349.575 274.12985 349.575Q272.9736 349.575 272.2861 348.6844Q271.61423 347.77814 271.61423 346.3094L271.61423 346.23126ZM272.69235 346.35626Q272.69235 347.4344 273.14548 348.0594Q273.61423 348.6844 274.39548 348.6844Q275.36423 348.6844 275.86423 347.825L275.86423 344.71564Q275.3486 343.8875 274.4111 343.8875Q273.61423 343.8875 273.14548 344.5125Q272.69235 345.1375 272.69235 346.35626ZM282.7861 348.825Q282.1611 349.575 280.92673 349.575Q279.9111 349.575 279.37985 348.98126Q278.8486 348.3875 278.8486 347.23126L278.8486 343.10626L279.92673 343.10626L279.92673 347.2Q279.92673 348.65314 281.0986 348.65314Q282.3486 348.65314 282.75485 347.71564L282.75485 343.10626L283.8486 343.10626L283.8486 349.45L282.81735 349.45L282.7861 348.825ZM288.50485 349.575Q287.20798 349.575 286.39548 348.73126Q285.5986 347.8719 285.5986 346.45L285.5986 346.2625Q285.5986 345.3094 285.95798 344.575Q286.31735 343.825 286.95798 343.41876Q287.61423 342.9969 288.36423 342.9969Q289.5986 342.9969 290.2861 343.8094Q290.9736 344.6219 290.9736 346.1375L290.9736 346.59064L286.67673 346.59064Q286.70798 347.52814 287.2236 348.10626Q287.75485 348.6844 288.56735 348.6844Q289.12985 348.6844 289.52048 348.45Q289.92673 348.21564 290.23923 347.825L290.89548 348.34064Q290.0986 349.575 288.50485 349.575ZM288.36423 343.8875Q287.70798 343.8875 287.25485 344.3719Q286.81735 344.84064 286.7236 345.7L289.89548 345.7L289.89548 345.6219Q289.8486 344.79376 289.44235 344.34064Q289.05173 343.8875 288.36423 343.8875ZM295.56735 347.7625Q295.56735 347.325 295.2236 347.09064Q294.89548 346.84064 294.06735 346.66876Q293.25485 346.4969 292.77048 346.2469Q292.2861 345.9969 292.05173 345.66876Q291.83298 345.325 291.83298 344.85626Q291.83298 344.075 292.48923 343.54376Q293.14548 342.9969 294.17673 342.9969Q295.25485 342.9969 295.9111 343.5594Q296.58298 344.10626 296.58298 344.96564L295.50485 344.96564Q295.50485 344.52814 295.11423 344.21564Q294.73923 343.8875 294.17673 343.8875Q293.58298 343.8875 293.23923 344.15314Q292.9111 344.40314 292.9111 344.8094Q292.9111 345.2 293.2236 345.40314Q293.5361 345.60626 294.3486 345.79376Q295.1611 345.96564 295.6611 346.21564Q296.1611 346.46564 296.39548 346.825Q296.64548 347.1844 296.64548 347.6844Q296.64548 348.54376 295.95798 349.0594Q295.2861 349.575 294.20798 349.575Q293.44235 349.575 292.8486 349.3094Q292.27048 349.02814 291.94235 348.54376Q291.61423 348.0594 291.61423 347.4969L292.69235 347.4969Q292.7236 348.04376 293.12985 348.3719Q293.5361 348.6844 294.20798 348.6844Q294.81735 348.6844 295.19235 348.4344Q295.56735 348.1844 295.56735 347.7625ZM299.3486 341.575L299.3486 343.10626L300.52048 343.10626L300.52048 343.95L299.3486 343.95L299.3486 347.8719Q299.3486 348.2625 299.50485 348.45Q299.6611 348.6375 300.0361 348.6375Q300.2236 348.6375 300.55173 348.575L300.55173 349.45Q300.12985 349.575 299.7236 349.575Q299.00485 349.575 298.62985 349.1375Q298.25485 348.6844 298.25485 347.8719L298.25485 343.95L297.0986 343.95L297.0986 343.10626L298.25485 343.10626L298.25485 341.575L299.3486 341.575Z" fill-rule="nonzero"/><path fill="#757575" d="M343.30765 345.7Q342.97952 346.10626 342.49515 346.35626Q342.0264 346.59064 341.4639 346.59064Q340.72952 346.59064 340.18265 346.23126Q339.63577 345.8719 339.3389 345.21564Q339.04202 344.54376 339.04202 343.7469Q339.04202 342.90314 339.35452 342.21564Q339.68265 341.52814 340.2764 341.16876Q340.88577 340.79376 341.68265 340.79376Q342.94827 340.79376 343.66702 341.7469Q344.4014 342.7 344.4014 344.325L344.4014 344.6375Q344.4014 347.1375 343.41702 348.27814Q342.43265 349.41876 340.44827 349.45L340.22952 349.45L340.22952 348.54376L340.4639 348.54376Q341.80765 348.5125 342.5264 347.84064Q343.24515 347.16876 343.30765 345.7ZM341.63577 345.7Q342.18265 345.7 342.63577 345.3719Q343.10452 345.02814 343.32327 344.54376L343.32327 344.10626Q343.32327 343.04376 342.85452 342.3719Q342.38577 341.7 341.68265 341.7Q340.9639 341.7 340.5264 342.2469Q340.10452 342.79376 340.10452 343.7Q340.10452 344.575 340.51077 345.1375Q340.93265 345.7 341.63577 345.7ZM351.51077 345.8094Q351.51077 347.71564 350.85452 348.65314Q350.2139 349.575 348.82327 349.575Q347.4639 349.575 346.80765 348.66876Q346.1514 347.7625 346.12015 345.95L346.12015 344.5125Q346.12015 342.6219 346.76077 341.71564Q347.41702 340.79376 348.80765 340.79376Q350.18265 340.79376 350.8389 341.6844Q351.49515 342.5594 351.51077 344.40314L351.51077 345.8094ZM350.41702 344.325Q350.41702 342.95 350.0264 342.325Q349.6514 341.6844 348.80765 341.6844Q347.97952 341.6844 347.5889 342.325Q347.2139 342.95 347.2139 344.2469L347.2139 345.98126Q347.2139 347.35626 347.60452 348.02814Q348.01077 348.6844 348.82327 348.6844Q349.62015 348.6844 350.01077 348.0594Q350.4014 347.4344 350.41702 346.10626L350.41702 344.325ZM354.74515 341.575L354.74515 343.10626L355.91702 343.10626L355.91702 343.95L354.74515 343.95L354.74515 347.8719Q354.74515 348.2625 354.9014 348.45Q355.05765 348.6375 355.43265 348.6375Q355.62015 348.6375 355.94827 348.575L355.94827 349.45Q355.5264 349.575 355.12015 349.575Q354.4014 349.575 354.0264 349.1375Q353.6514 348.6844 353.6514 347.8719L353.6514 343.95L352.49515 343.95L352.49515 343.10626L353.6514 343.10626L353.6514 341.575L354.74515 341.575ZM358.35452 343.8719Q359.07327 342.9969 360.22952 342.9969Q362.24515 342.9969 362.26077 345.2625L362.26077 349.45L361.16702 349.45L361.16702 345.2469Q361.16702 344.575 360.85452 344.2469Q360.55765 343.91876 359.9014 343.91876Q359.37015 343.91876 358.9639 344.2Q358.57327 344.48126 358.35452 344.9344L358.35452 349.45L357.2764 349.45L357.2764 340.45L358.35452 340.45L358.35452 343.8719ZM368.55765 346.10626L368.55765 349.45L367.43265 349.45L367.43265 340.91876L370.5889 340.91876Q371.97952 340.91876 372.7764 341.6375Q373.57327 342.34064 373.57327 343.52814Q373.57327 344.7625 372.79202 345.4344Q372.0264 346.10626 370.57327 346.10626L368.55765 346.10626ZM368.55765 345.1844L370.5889 345.1844Q371.49515 345.1844 371.9639 344.7625Q372.44827 344.34064 372.44827 343.54376Q372.44827 342.77814 371.9639 342.325Q371.49515 341.85626 370.6514 341.84064L368.55765 341.84064L368.55765 345.1844ZM377.9014 349.575Q376.60452 349.575 375.79202 348.73126Q374.99515 347.8719 374.99515 346.45L374.99515 346.2625Q374.99515 345.3094 375.35452 344.575Q375.7139 343.825 376.35452 343.41876Q377.01077 342.9969 377.76077 342.9969Q378.99515 342.9969 379.68265 343.8094Q380.37015 344.6219 380.37015 346.1375L380.37015 346.59064L376.07327 346.59064Q376.10452 347.52814 376.62015 348.10626Q377.1514 348.6844 377.9639 348.6844Q378.5264 348.6844 378.91702 348.45Q379.32327 348.21564 379.63577 347.825L380.29202 348.34064Q379.49515 349.575 377.9014 349.575ZM377.76077 343.8875Q377.10452 343.8875 376.6514 344.3719Q376.2139 344.84064 376.12015 345.7L379.29202 345.7L379.29202 345.6219Q379.24515 344.79376 378.8389 344.34064Q378.44827 343.8875 377.76077 343.8875ZM384.3389 344.075Q384.0889 344.04376 383.80765 344.04376Q382.72952 344.04376 382.35452 344.95L382.35452 349.45L381.2764 349.45L381.2764 343.10626L382.32327 343.10626L382.3389 343.84064Q382.87015 342.9969 383.85452 342.9969Q384.16702 342.9969 384.3389 343.075L384.3389 344.075ZM387.80765 348.6844Q388.38577 348.6844 388.82327 348.34064Q389.26077 347.98126 389.30765 347.45L390.3389 347.45Q390.30765 347.9969 389.94827 348.4969Q389.60452 348.98126 389.0264 349.27814Q388.4639 349.575 387.80765 349.575Q386.51077 349.575 385.74515 348.71564Q384.99515 347.84064 384.99515 346.34064L384.99515 346.15314Q384.99515 345.23126 385.32327 344.5125Q385.66702 343.79376 386.29202 343.40314Q386.93265 342.9969 387.80765 342.9969Q388.87015 342.9969 389.57327 343.6375Q390.29202 344.2625 390.3389 345.29376L389.30765 345.29376Q389.26077 344.66876 388.8389 344.27814Q388.41702 343.8875 387.80765 343.8875Q386.97952 343.8875 386.5264 344.48126Q386.07327 345.075 386.07327 346.2L386.07327 346.40314Q386.07327 347.4969 386.5264 348.09064Q386.97952 348.6844 387.80765 348.6844ZM393.9014 349.575Q392.60452 349.575 391.79202 348.73126Q390.99515 347.8719 390.99515 346.45L390.99515 346.2625Q390.99515 345.3094 391.35452 344.575Q391.7139 343.825 392.35452 343.41876Q393.01077 342.9969 393.76077 342.9969Q394.99515 342.9969 395.68265 343.8094Q396.37015 344.6219 396.37015 346.1375L396.37015 346.59064L392.07327 346.59064Q392.10452 347.52814 392.62015 348.10626Q393.1514 348.6844 393.9639 348.6844Q394.5264 348.6844 394.91702 348.45Q395.32327 348.21564 395.63577 347.825L396.29202 348.34064Q395.49515 349.575 393.9014 349.575ZM393.76077 343.8875Q393.10452 343.8875 392.6514 344.3719Q392.2139 344.84064 392.12015 345.7L395.29202 345.7L395.29202 345.6219Q395.24515 344.79376 394.8389 344.34064Q394.44827 343.8875 393.76077 343.8875ZM398.29202 343.10626L398.32327 343.90314Q399.05765 342.9969 400.22952 342.9969Q402.24515 342.9969 402.26077 345.2625L402.26077 349.45L401.16702 349.45L401.16702 345.2469Q401.16702 344.575 400.85452 344.2469Q400.55765 343.91876 399.9014 343.91876Q399.37015 343.91876 398.9639 344.2Q398.57327 344.48126 398.35452 344.9344L398.35452 349.45L397.2764 349.45L397.2764 343.10626L398.29202 343.10626ZM405.74515 341.575L405.74515 343.10626L406.91702 343.10626L406.91702 343.95L405.74515 343.95L405.74515 347.8719Q405.74515 348.2625 405.9014 348.45Q406.05765 348.6375 406.43265 348.6375Q406.62015 348.6375 406.94827 348.575L406.94827 349.45Q406.5264 349.575 406.12015 349.575Q405.4014 349.575 405.0264 349.1375Q404.6514 348.6844 404.6514 347.8719L404.6514 343.95L403.49515 343.95L403.49515 343.10626L404.6514 343.10626L404.6514 341.575L405.74515 341.575ZM409.44827 349.45L408.37015 349.45L408.37015 343.10626L409.44827 343.10626L409.44827 349.45ZM408.2764 341.4344Q408.2764 341.16876 408.43265 340.98126Q408.60452 340.79376 408.91702 340.79376Q409.22952 340.79376 409.38577 340.98126Q409.55765 341.16876 409.55765 341.4344Q409.55765 341.6844 409.38577 341.8719Q409.22952 342.04376 408.91702 342.04376Q408.60452 342.04376 408.43265 341.8719Q408.2764 341.6844 408.2764 341.4344ZM412.44827 349.45L411.37015 349.45L411.37015 340.45L412.44827 340.45L412.44827 349.45ZM416.9014 349.575Q415.60452 349.575 414.79202 348.73126Q413.99515 347.8719 413.99515 346.45L413.99515 346.2625Q413.99515 345.3094 414.35452 344.575Q414.7139 343.825 415.35452 343.41876Q416.01077 342.9969 416.76077 342.9969Q417.99515 342.9969 418.68265 343.8094Q419.37015 344.6219 419.37015 346.1375L419.37015 346.59064L415.07327 346.59064Q415.10452 347.52814 415.62015 348.10626Q416.1514 348.6844 416.9639 348.6844Q417.5264 348.6844 417.91702 348.45Q418.32327 348.21564 418.63577 347.825L419.29202 348.34064Q418.49515 349.575 416.9014 349.575ZM416.76077 343.8875Q416.10452 343.8875 415.6514 344.3719Q415.2139 344.84064 415.12015 345.7L418.29202 345.7L418.29202 345.6219Q418.24515 344.79376 417.8389 344.34064Q417.44827 343.8875 416.76077 343.8875Z" fill-rule="nonzero"/><path fill="#757575" d="M459.34482 345.65314Q457.90732 345.23126 457.23544 344.6219Q456.5792 344.0125 456.5792 343.1219Q456.5792 342.1219 457.37607 341.46564Q458.18857 340.79376 459.48544 340.79376Q460.36044 340.79376 461.04794 341.1375Q461.73544 341.48126 462.11044 342.075Q462.50107 342.66876 462.50107 343.3875L461.36044 343.3875Q461.36044 342.60626 460.86044 342.16876Q460.37607 341.73126 459.48544 341.73126Q458.65732 341.73126 458.18857 342.10626Q457.71982 342.46564 457.71982 343.10626Q457.71982 343.6375 458.15732 343.9969Q458.61044 344.35626 459.67294 344.65314Q460.73544 344.95 461.3292 345.3094Q461.93857 345.66876 462.21982 346.15314Q462.5167 346.6375 462.5167 347.27814Q462.5167 348.325 461.7042 348.95Q460.8917 349.575 459.54794 349.575Q458.65732 349.575 457.8917 349.23126Q457.1417 348.8875 456.71982 348.3094Q456.31357 347.71564 456.31357 346.98126L457.43857 346.98126Q457.43857 347.7469 458.0167 348.2Q458.59482 348.65314 459.54794 348.65314Q460.43857 348.65314 460.90732 348.29376Q461.37607 347.91876 461.37607 347.29376Q461.37607 346.66876 460.93857 346.325Q460.50107 345.98126 459.34482 345.65314ZM464.84482 349.45L463.7667 349.45L463.7667 340.45L464.84482 340.45L464.84482 349.45ZM466.37607 346.21564Q466.37607 345.29376 466.73544 344.54376Q467.11044 343.79376 467.7667 343.40314Q468.42294 342.9969 469.25107 342.9969Q470.54794 342.9969 471.34482 343.8875Q472.15732 344.77814 472.15732 346.27814L472.15732 346.35626Q472.15732 347.27814 471.79794 348.0125Q471.43857 348.7469 470.78232 349.16876Q470.12607 349.575 469.2667 349.575Q467.98544 349.575 467.17294 348.6844Q466.37607 347.77814 466.37607 346.29376L466.37607 346.21564ZM467.46982 346.35626Q467.46982 347.40314 467.9542 348.04376Q468.4542 348.6844 469.2667 348.6844Q470.09482 348.6844 470.5792 348.04376Q471.06357 347.3875 471.06357 346.21564Q471.06357 345.1844 470.56357 344.54376Q470.0792 343.8875 469.25107 343.8875Q468.4542 343.8875 467.9542 344.52814Q467.46982 345.15314 467.46982 346.35626ZM479.28232 347.95L480.50107 343.10626L481.5792 343.10626L479.73544 349.45L478.86044 349.45L477.31357 344.6375L475.81357 349.45L474.93857 349.45L473.09482 343.10626L474.17294 343.10626L475.42294 347.85626L476.90732 343.10626L477.7667 343.10626L479.28232 347.95ZM485.29794 349.575Q484.00107 349.575 483.18857 348.73126Q482.3917 347.8719 482.3917 346.45L482.3917 346.2625Q482.3917 345.3094 482.75107 344.575Q483.11044 343.825 483.75107 343.41876Q484.40732 342.9969 485.15732 342.9969Q486.3917 342.9969 487.0792 343.8094Q487.7667 344.6219 487.7667 346.1375L487.7667 346.59064L483.46982 346.59064Q483.50107 347.52814 484.0167 348.10626Q484.54794 348.6844 485.36044 348.6844Q485.92294 348.6844 486.31357 348.45Q486.71982 348.21564 487.03232 347.825L487.68857 348.34064Q486.8917 349.575 485.29794 349.575ZM485.15732 343.8875Q484.50107 343.8875 484.04794 344.3719Q483.61044 344.84064 483.5167 345.7L486.68857 345.7L486.68857 345.6219Q486.6417 344.79376 486.23544 344.34064Q485.84482 343.8875 485.15732 343.8875ZM492.36044 347.7625Q492.36044 347.325 492.0167 347.09064Q491.68857 346.84064 490.86044 346.66876Q490.04794 346.4969 489.56357 346.2469Q489.0792 345.9969 488.84482 345.66876Q488.62607 345.325 488.62607 344.85626Q488.62607 344.075 489.28232 343.54376Q489.93857 342.9969 490.96982 342.9969Q492.04794 342.9969 492.7042 343.5594Q493.37607 344.10626 493.37607 344.96564L492.29794 344.96564Q492.29794 344.52814 491.90732 344.21564Q491.53232 343.8875 490.96982 343.8875Q490.37607 343.8875 490.03232 344.15314Q489.7042 344.40314 489.7042 344.8094Q489.7042 345.2 490.0167 345.40314Q490.3292 345.60626 491.1417 345.79376Q491.9542 345.96564 492.4542 346.21564Q492.9542 346.46564 493.18857 346.825Q493.43857 347.1844 493.43857 347.6844Q493.43857 348.54376 492.75107 349.0594Q492.0792 349.575 491.00107 349.575Q490.23544 349.575 489.6417 349.3094Q489.06357 349.02814 488.73544 348.54376Q488.40732 348.0594 488.40732 347.4969L489.48544 347.4969Q489.5167 348.04376 489.92294 348.3719Q490.3292 348.6844 491.00107 348.6844Q491.61044 348.6844 491.98544 348.4344Q492.36044 348.1844 492.36044 347.7625ZM496.1417 341.575L496.1417 343.10626L497.31357 343.10626L497.31357 343.95L496.1417 343.95L496.1417 347.8719Q496.1417 348.2625 496.29794 348.45Q496.4542 348.6375 496.8292 348.6375Q497.0167 348.6375 497.34482 348.575L497.34482 349.45Q496.92294 349.575 496.5167 349.575Q495.79794 349.575 495.42294 349.1375Q495.04794 348.6844 495.04794 347.8719L495.04794 343.95L493.8917 343.95L493.8917 343.10626L495.04794 343.10626L495.04794 341.575L496.1417 341.575ZM504.96982 345.9969L502.9542 345.9969L502.9542 349.45L501.8292 349.45L501.8292 340.91876L504.65732 340.91876Q506.09482 340.91876 506.86044 341.575Q507.6417 342.23126 507.6417 343.48126Q507.6417 344.27814 507.2042 344.8719Q506.78232 345.46564 506.0167 345.7625L508.0167 349.3719L508.0167 349.45L506.81357 349.45L504.96982 345.9969ZM502.9542 345.075L504.68857 345.075Q505.53232 345.075 506.0167 344.65314Q506.5167 344.21564 506.5167 343.48126Q506.5167 342.7 506.04794 342.27814Q505.5792 341.85626 504.68857 341.84064L502.9542 341.84064L502.9542 345.075ZM511.29794 349.575Q510.00107 349.575 509.18857 348.73126Q508.3917 347.8719 508.3917 346.45L508.3917 346.2625Q508.3917 345.3094 508.75107 344.575Q509.11044 343.825 509.75107 343.41876Q510.40732 342.9969 511.15732 342.9969Q512.3917 342.9969 513.0792 343.8094Q513.7667 344.6219 513.7667 346.1375L513.7667 346.59064L509.46982 346.59064Q509.50107 347.52814 510.0167 348.10626Q510.54794 348.6844 511.36044 348.6844Q511.92294 348.6844 512.3136 348.45Q512.71985 348.21564 513.03235 347.825L513.6886 348.34064Q512.8917 349.575 511.29794 349.575ZM511.15732 343.8875Q510.50107 343.8875 510.04794 344.3719Q509.61044 344.84064 509.5167 345.7L512.6886 345.7L512.6886 345.6219Q512.6417 344.79376 512.2355 344.34064Q511.84482 343.8875 511.15732 343.8875ZM514.40735 346.23126Q514.40735 344.73126 515.0792 343.8719Q515.7667 342.9969 516.923 342.9969Q518.048 342.9969 518.7042 343.7469L518.7511 343.10626L519.7511 343.10626L519.7511 351.8875L518.65735 351.8875L518.65735 348.85626Q518.0011 349.575 516.923 349.575Q515.7667 349.575 515.0792 348.6844Q514.40735 347.77814 514.40735 346.3094L514.40735 346.23126ZM515.4855 346.35626Q515.4855 347.4344 515.9386 348.0594Q516.40735 348.6844 517.1886 348.6844Q518.15735 348.6844 518.65735 347.825L518.65735 344.71564Q518.1417 343.8875 517.2042 343.8875Q516.40735 343.8875 515.9386 344.5125Q515.4855 345.1375 515.4855 346.35626ZM525.5792 348.825Q524.9542 349.575 523.71985 349.575Q522.7042 349.575 522.173 348.98126Q521.6417 348.3875 521.6417 347.23126L521.6417 343.10626L522.71985 343.10626L522.71985 347.2Q522.71985 348.65314 523.8917 348.65314Q525.1417 348.65314 525.548 347.71564L525.548 343.10626L526.6417 343.10626L526.6417 349.45L525.6105 349.45L525.5792 348.825ZM531.298 349.575Q530.0011 349.575 529.1886 348.73126Q528.3917 347.8719 528.3917 346.45L528.3917 346.2625Q528.3917 345.3094 528.7511 344.575Q529.1105 343.825 529.7511 343.41876Q530.40735 342.9969 531.15735 342.9969Q532.3917 342.9969 533.0792 343.8094Q533.7667 344.6219 533.7667 346.1375L533.7667 346.59064L529.46985 346.59064Q529.5011 347.52814 530.0167 348.10626Q530.548 348.6844 531.3605 348.6844Q531.923 348.6844 532.3136 348.45Q532.71985 348.21564 533.03235 347.825L533.6886 348.34064Q532.8917 349.575 531.298 349.575ZM531.15735 343.8875Q530.5011 343.8875 530.048 344.3719Q529.6105 344.84064 529.5167 345.7L532.6886 345.7L532.6886 345.6219Q532.6417 344.79376 532.2355 344.34064Q531.84485 343.8875 531.15735 343.8875ZM538.3605 347.7625Q538.3605 347.325 538.0167 347.09064Q537.6886 346.84064 536.8605 346.66876Q536.048 346.4969 535.5636 346.2469Q535.0792 345.9969 534.84485 345.66876Q534.6261 345.325 534.6261 344.85626Q534.6261 344.075 535.28235 343.54376Q535.9386 342.9969 536.96985 342.9969Q538.048 342.9969 538.7042 343.5594Q539.3761 344.10626 539.3761 344.96564L538.298 344.96564Q538.298 344.52814 537.90735 344.21564Q537.53235 343.8875 536.96985 343.8875Q536.3761 343.8875 536.03235 344.15314Q535.7042 344.40314 535.7042 344.8094Q535.7042 345.2 536.0167 345.40314Q536.3292 345.60626 537.1417 345.79376Q537.9542 345.96564 538.4542 346.21564Q538.9542 346.46564 539.1886 346.825Q539.4386 347.1844 539.4386 347.6844Q539.4386 348.54376 538.7511 349.0594Q538.0792 349.575 537.0011 349.575Q536.2355 349.575 535.6417 349.3094Q535.0636 349.02814 534.7355 348.54376Q534.40735 348.0594 534.40735 347.4969L535.4855 347.4969Q535.5167 348.04376 535.923 348.3719Q536.3292 348.6844 537.0011 348.6844Q537.6105 348.6844 537.9855 348.4344Q538.3605 348.1844 538.3605 347.7625ZM542.1417 341.575L542.1417 343.10626L543.3136 343.10626L543.3136 343.95L542.1417 343.95L542.1417 347.8719Q542.1417 348.2625 542.298 348.45Q542.4542 348.6375 542.8292 348.6375Q543.0167 348.6375 543.34485 348.575L543.34485 349.45Q542.923 349.575 542.5167 349.575Q541.798 349.575 541.423 349.1375Q541.048 348.6844 541.048 347.8719L541.048 343.95L539.8917 343.95L539.8917 343.10626L541.048 343.10626L541.048 341.575L542.1417 341.575Z" fill-rule="nonzero"/></svg>